Cinzel-Regular.ufo
<glyph name="exclam" format="2">
  <advance width="230"/>
  <unicode hex="0021"/>
  <outline>
    <contour>
      <point x="115" y="-4" type="curve" smooth="yes"/>
      <point x="139.853" y="-4"/>
      <point x="160" y="16.147"/>
      <point x="160" y="41" type="curve" smooth="yes"/>
      <point x="160" y="65.853"/>
      <point x="139.853" y="86"/>
      <point x="115" y="86" type="curve" smooth="yes"/>
      <point x="90.147" y="86"/>
      <point x="70" y="65.853"/>
      <point x="70" y="41" type="curve" smooth="yes"/>
      <point x="70" y="16.147"/>
      <point x="90.147" y="-4"/>
    </contour>
    <contour>
      <point x="118.902" y="170" type="line"/>
      <point x="139.869" y="402.957" type="line"/>
      <point x="151.774" y="701.602" type="line"/>
      <point x="76.775" y="701.602" type="line"/>
      <point x="88.649" y="402.957" type="line"/>
      <point x="108.902" y="170" type="line"/>
    </contour>
  </outline>
</glyph>
<glyph name="quotedbl" format="2">
  <advance width="315"/>
  <unicode hex="0022"/>
  <outline>
    <contour>
      <point x="65.648" y="700" type="line"/>
      <point x="71.06" y="627.334"/>
      <point x="68.588" y="592.918"/>
      <point x="50" y="505.251" type="curve"/>
      <point x="59.018" y="500" type="line"/>
      <point x="121.661" y="535.343"/>
      <point x="137.33" y="662.464"/>
      <point x="135.648" y="714" type="curve"/>
    </contour>
    <contour>
      <point x="195.648" y="700" type="line"/>
      <point x="201.06" y="627.334"/>
      <point x="198.588" y="592.918"/>
      <point x="180" y="505.251" type="curve"/>
      <point x="189.018" y="500" type="line"/>
      <point x="251.661" y="535.343"/>
      <point x="267.33" y="662.464"/>
      <point x="265.648" y="714" type="curve"/>
    </contour>
  </outline>
</glyph>
<glyph name="ampersand" format="2">
  <advance width="646.279"/>
  <unicode hex="0026"/>
  <outline>
    <contour>
      <point x="314.249" y="714.449" type="curve" smooth="yes"/>
      <point x="191.406" y="714.449"/>
      <point x="113.115" y="640.718"/>
      <point x="113.115" y="542.732" type="curve" smooth="yes"/>
      <point x="113.115" y="427.396"/>
      <point x="178.751" y="359.856"/>
      <point x="294.76" y="253.366" type="curve" smooth="yes"/>
      <point x="353.387" y="199.549"/>
      <point x="415.926" y="145.615"/>
      <point x="517.091" y="62.53" type="curve" smooth="yes"/>
      <point x="602.713" y="-8"/>
      <point x="696.856" y="0"/>
      <point x="736.279" y="0" type="curve"/>
      <point x="736.279" y="10" type="line"/>
      <point x="659.7" y="15.84"/>
      <point x="590.929" y="87.26"/>
      <point x="528.299" y="138.897" type="curve" smooth="yes"/>
      <point x="440.561" y="211.234"/>
      <point x="383.692" y="264.499"/>
      <point x="340.825" y="302.868" type="curve" smooth="yes"/>
      <point x="237.786" y="395.097"/>
      <point x="182.115" y="458.924"/>
      <point x="182.115" y="542.732" type="curve" smooth="yes"/>
      <point x="182.115" y="624.396"/>
      <point x="237.906" y="684.449"/>
      <point x="314.249" y="684.449" type="curve" smooth="yes"/>
      <point x="399.27" y="684.449"/>
      <point x="456.379" y="625.74"/>
      <point x="456.379" y="529.951" type="curve"/>
      <point x="466.379" y="529.951" type="line"/>
      <point x="483.728" y="643.151" type="line"/>
      <point x="448.45" y="686.145"/>
      <point x="380.948" y="713.516"/>
    </contour>
    <contour>
      <point x="590.357" y="329.364" type="curve" smooth="yes"/>
      <point x="585.167" y="356.341"/>
      <point x="598.071" y="374.633"/>
      <point x="627.405" y="374.592" type="curve" smooth="yes"/>
      <point x="642.475" y="374.571" type="line"/>
      <point x="642.475" y="384.571" type="line"/>
      <point x="442.607" y="384.571" type="line"/>
      <point x="442.607" y="374.571" type="line"/>
      <point x="458.374" y="374.592" type="line" smooth="yes"/>
      <point x="489.65" y="374.633"/>
      <point x="509.464" y="356.172"/>
      <point x="522.807" y="329.025" type="curve" smooth="yes"/>
      <point x="581.511" y="209.59"/>
      <point x="506.82" y="20.326"/>
      <point x="336.249" y="20.326" type="curve" smooth="yes"/>
      <point x="187.075" y="20.326"/>
      <point x="103" y="103.85"/>
      <point x="103" y="224.336" type="curve" smooth="yes"/>
      <point x="103" y="289.492"/>
      <point x="123.638" y="349.684"/>
      <point x="176.684" y="393.108" type="curve"/>
      <point x="162.8" y="414.841" type="line"/>
      <point x="87.464" y="380.422"/>
      <point x="30" y="320.529"/>
      <point x="30" y="224.336" type="curve" smooth="yes"/>
      <point x="30" y="75.25"/>
      <point x="140.575" y="-10"/>
      <point x="336.249" y="-10" type="curve" smooth="yes"/>
      <point x="527.334" y="-10"/>
      <point x="625.51" y="146.65"/>
    </contour>
  </outline>
</glyph>
<glyph name="quotesingle" format="2">
  <advance width="170"/>
  <unicode hex="0027"/>
  <outline>
    <contour>
      <point x="50.648" y="700" type="line"/>
      <point x="56.06" y="627.334"/>
      <point x="53.588" y="592.918"/>
      <point x="35" y="505.251" type="curve"/>
      <point x="44.018" y="500" type="line"/>
      <point x="106.661" y="535.343"/>
      <point x="122.33" y="662.464"/>
      <point x="120.648" y="714" type="curve"/>
    </contour>
  </outline>
</glyph>
<glyph name="parenleft" format="2">
  <advance width="338"/>
  <unicode hex="0028"/>
  <outline>
    <contour>
      <point x="308.536" y="724" type="curve"/>
      <point x="302.536" y="732" type="line"/>
      <point x="187.219" y="691.523"/>
      <point x="88.212" y="526.28"/>
      <point x="90.025" y="333.717" type="curve" smooth="yes"/>
      <point x="91.858" y="138.924"/>
      <point x="190.275" y="-42"/>
      <point x="300.742" y="-100" type="curve"/>
      <point x="306.742" y="-91" type="line"/>
      <point x="232.426" y="-39"/>
      <point x="162.681" y="138.621"/>
      <point x="160.025" y="335.511" type="curve" smooth="yes"/>
      <point x="157.482" y="523.937"/>
      <point x="227.731" y="685.43"/>
    </contour>
  </outline>
</glyph>
<glyph name="parenright" format="2">
  <advance width="338"/>
  <unicode hex="0029"/>
  <outline>
    <contour>
      <point x="30" y="724" type="line"/>
      <point x="110.805" y="685.43"/>
      <point x="181.054" y="523.937"/>
      <point x="178.511" y="335.511" type="curve" smooth="yes"/>
      <point x="175.855" y="138.621"/>
      <point x="106.11" y="-39"/>
      <point x="31.794" y="-91" type="curve"/>
      <point x="37.794" y="-100" type="line"/>
      <point x="148.261" y="-42"/>
      <point x="246.678" y="138.924"/>
      <point x="248.511" y="333.717" type="curve" smooth="yes"/>
      <point x="250.324" y="526.28"/>
      <point x="151.317" y="691.523"/>
      <point x="36" y="732" type="curve"/>
    </contour>
  </outline>
</glyph>
<glyph name="plus" format="2">
  <advance width="481"/>
  <unicode hex="002B"/>
  <outline>
    <contour>
      <point x="40" y="332" type="line"/>
      <point x="40" y="287" type="line"/>
      <point x="442" y="287" type="line"/>
      <point x="442" y="332" type="line"/>
    </contour>
    <contour>
      <point x="218" y="109" type="line"/>
      <point x="263" y="109" type="line"/>
      <point x="263" y="511" type="line"/>
      <point x="218" y="511" type="line"/>
    </contour>
  </outline>
</glyph>
<glyph name="comma" format="2">
  <advance width="185"/>
  <unicode hex="002C"/>
  <outline>
    <contour>
      <point x="55" y="65" type="curve" smooth="yes"/>
      <point x="45" y="40"/>
      <point x="65" y="23"/>
      <point x="78" y="8" type="curve" smooth="yes"/>
      <point x="94" y="-12"/>
      <point x="104" y="-62"/>
      <point x="45" y="-81" type="curve"/>
      <point x="47" y="-89" type="line"/>
      <point x="111" y="-87"/>
      <point x="163" y="-20"/>
      <point x="131" y="55" type="curve" smooth="yes"/>
      <point x="115" y="95"/>
      <point x="68" y="93"/>
    </contour>
  </outline>
</glyph>
<glyph name="hyphen" format="2">
  <advance width="380"/>
  <unicode hex="002D"/>
  <outline>
    <contour>
      <point x="40" y="314" type="line"/>
      <point x="34" y="291.5" type="line"/>
      <point x="40" y="269" type="line"/>
      <point x="340" y="269" type="line"/>
      <point x="346" y="291.5" type="line"/>
      <point x="340" y="314" type="line"/>
    </contour>
  </outline>
</glyph>
<glyph name="period" format="2">
  <advance width="179"/>
  <unicode hex="002E"/>
  <outline>
    <contour>
      <point x="90" y="-4" type="curve" smooth="yes"/>
      <point x="115" y="-4"/>
      <point x="135" y="16"/>
      <point x="135" y="41" type="curve" smooth="yes"/>
      <point x="135" y="66"/>
      <point x="115" y="86"/>
      <point x="90" y="86" type="curve" smooth="yes"/>
      <point x="65" y="86"/>
      <point x="45" y="66"/>
      <point x="45" y="41" type="curve" smooth="yes"/>
      <point x="45" y="16"/>
      <point x="65" y="-4"/>
    </contour>
  </outline>
</glyph>
<glyph name="slash" format="2">
  <advance width="406"/>
  <unicode hex="002F"/>
  <unicode hex="2215"/>
  <outline>
    <contour>
      <point x="367" y="714" type="line"/>
      <point x="7" y="5" type="line"/>
      <point x="38" y="-14" type="line"/>
      <point x="399" y="697" type="line"/>
    </contour>
  </outline>
</glyph>
<glyph name="zero" format="2">
  <advance width="596"/>
  <unicode hex="0030"/>
  <outline>
    <contour>
      <point x="298.089" y="714" type="curve" smooth="yes"/>
      <point x="152.334" y="714"/>
      <point x="63" y="575.68"/>
      <point x="63" y="350" type="curve" smooth="yes"/>
      <point x="63" y="124.32"/>
      <point x="152.334" y="-14"/>
      <point x="298.089" y="-14" type="curve" smooth="yes"/>
      <point x="443.844" y="-14"/>
      <point x="533.178" y="124.32"/>
      <point x="533.178" y="350" type="curve" smooth="yes"/>
      <point x="533.178" y="575.68"/>
      <point x="443.844" y="714"/>
    </contour>
    <contour>
      <point x="298.089" y="684" type="curve" smooth="yes"/>
      <point x="400.444" y="684"/>
      <point x="463.178" y="557.08"/>
      <point x="463.178" y="350" type="curve" smooth="yes"/>
      <point x="463.178" y="142.92"/>
      <point x="400.444" y="16"/>
      <point x="298.089" y="16" type="curve"/>
      <point x="195.734" y="16"/>
      <point x="133" y="142.92"/>
      <point x="133" y="350" type="curve" smooth="yes"/>
      <point x="133" y="557.08"/>
      <point x="195.734" y="684"/>
    </contour>
  </outline>
</glyph>
<glyph name="one" format="2">
  <advance width="344"/>
  <unicode hex="0031"/>
  <outline>
    <contour>
      <point x="284.041" y="0" type="line"/>
      <point x="67.489" y="0" type="line"/>
      <point x="67.628" y="10" type="line"/>
      <point x="88.533" y="9.979" type="line" smooth="yes"/>
      <point x="118.677" y="9.949"/>
      <point x="143.75" y="34.108"/>
      <point x="143.75" y="64.102" type="curve" smooth="yes"/>
      <point x="143.75" y="591" type="line"/>
      <point x="143.75" y="623.2"/>
      <point x="127.864" y="640"/>
      <point x="97.732" y="640" type="curve"/>
      <point x="60" y="640" type="line"/>
      <point x="60" y="650" type="line"/>
      <point x="112.008" y="657.022"/>
      <point x="158.816" y="667.649"/>
      <point x="197.797" y="714" type="curve"/>
      <point x="207.797" y="714" type="line"/>
      <point x="207.797" y="63.45" type="line" smooth="yes"/>
      <point x="207.797" y="33.75"/>
      <point x="233.072" y="9.949"/>
      <point x="262.997" y="9.979" type="curve" smooth="yes"/>
      <point x="283.902" y="10" type="line"/>
    </contour>
  </outline>
</glyph>
<glyph name="two" format="2">
  <advance width="553"/>
  <unicode hex="0032"/>
  <outline>
    <contour>
      <point x="91.576" y="535.502" type="line"/>
      <point x="101.576" y="535.502" type="line"/>
      <point x="99.576" y="631.4"/>
      <point x="159.77" y="682.236"/>
      <point x="252.737" y="684" type="curve" smooth="yes"/>
      <point x="341.978" y="685.693"/>
      <point x="396.671" y="620.385"/>
      <point x="396.671" y="511.937" type="curve" smooth="yes"/>
      <point x="396.671" y="357.958"/>
      <point x="176.716" y="117.69"/>
      <point x="60" y="10" type="curve"/>
      <point x="60" y="0" type="line"/>
      <point x="470.5" y="0" type="line"/>
      <point x="518.215" y="141.133" type="line"/>
      <point x="508.215" y="141.133" type="line"/>
      <point x="473.034" y="77.755"/>
      <point x="450.527" y="56.354"/>
      <point x="391.096" y="56.354" type="curve"/>
      <point x="160.955" y="56.354" type="line"/>
      <point x="259.761" y="157.791"/>
      <point x="471.671" y="344.896"/>
      <point x="471.671" y="515.937" type="curve" smooth="yes"/>
      <point x="471.671" y="638.736"/>
      <point x="385.376" y="714"/>
      <point x="252.737" y="714" type="curve" smooth="yes"/>
      <point x="188.91" y="714"/>
      <point x="112.316" y="686.707"/>
      <point x="74.227" y="648.702" type="curve"/>
    </contour>
  </outline>
</glyph>
<glyph name="three" format="2">
  <advance width="503"/>
  <unicode hex="0033"/>
  <outline>
    <contour>
      <point x="217" y="712" type="curve" smooth="yes"/>
      <point x="138" y="708"/>
      <point x="93" y="677"/>
      <point x="61.089" y="640.966" type="curve"/>
      <point x="78.438" y="547.766" type="line"/>
      <point x="88.438" y="547.766" type="line"/>
      <point x="84" y="627"/>
      <point x="132" y="682"/>
      <point x="214.754" y="682.264" type="curve" smooth="yes"/>
      <point x="299" y="682"/>
      <point x="335" y="624"/>
      <point x="338" y="565" type="curve" smooth="yes"/>
      <point x="344" y="456"/>
      <point x="244" y="394"/>
      <point x="154.782" y="394.366" type="curve"/>
      <point x="152.959" y="384.366" type="line"/>
      <point x="272" y="384"/>
      <point x="358" y="332"/>
      <point x="358.359" y="218.601" type="curve" smooth="yes"/>
      <point x="358" y="75"/>
      <point x="221" y="-26"/>
      <point x="62" y="-22" type="curve"/>
      <point x="60" y="-32" type="line"/>
      <point x="261" y="-67"/>
      <point x="433" y="60"/>
      <point x="433.359" y="216.168" type="curve" smooth="yes"/>
      <point x="433" y="336"/>
      <point x="333" y="400"/>
      <point x="244.981" y="399.238" type="curve"/>
      <point x="318" y="379"/>
      <point x="414" y="466"/>
      <point x="414" y="563" type="curve" smooth="yes"/>
      <point x="414" y="650"/>
      <point x="338" y="718"/>
    </contour>
  </outline>
</glyph>
<glyph name="four" format="2">
  <advance width="583"/>
  <unicode hex="0034"/>
  <outline>
    <contour>
      <point x="350.646" y="614" type="line"/>
      <point x="350.646" y="1" type="line"/>
      <point x="415.646" y="1" type="line"/>
      <point x="415.646" y="714" type="line"/>
      <point x="406.281" y="714" type="line"/>
    </contour>
    <contour>
      <point x="406.281" y="714" type="line"/>
      <point x="40" y="258.763" type="line"/>
      <point x="40" y="248.763" type="line"/>
      <point x="502.797" y="248.763" type="line"/>
      <point x="523.797" y="323.763" type="line"/>
      <point x="513.797" y="323.763" type="line"/>
      <point x="501.797" y="309.867"/>
      <point x="495.992" y="303.763"/>
      <point x="459.154" y="303.763" type="curve"/>
      <point x="114.943" y="303.763" type="line"/>
      <point x="415.657" y="677" type="line"/>
    </contour>
    <contour>
      <point x="415.642" y="64" type="curve"/>
      <point x="350.686" y="64" type="line"/>
      <point x="350.686" y="33"/>
      <point x="325.613" y="10"/>
      <point x="295.469" y="10" type="curve" smooth="yes"/>
      <point x="284.564" y="10" type="line"/>
      <point x="284.425" y="0" type="line"/>
      <point x="481.886" y="0" type="line"/>
      <point x="481.747" y="10" type="line"/>
      <point x="470.842" y="10" type="line" smooth="yes"/>
      <point x="440.917" y="10"/>
      <point x="415.642" y="34"/>
    </contour>
  </outline>
</glyph>
<glyph name="five" format="2">
  <advance width="498"/>
  <unicode hex="0035"/>
  <outline>
    <contour>
      <point x="388.907" y="624" type="line"/>
      <point x="422.315" y="729" type="line"/>
      <point x="412.315" y="729" type="line"/>
      <point x="396.98" y="699.101"/>
      <point x="374.621" y="679"/>
      <point x="332.919" y="679" type="curve"/>
      <point x="135.427" y="664" type="line"/>
      <point x="56.981" y="392.7" type="line"/>
      <point x="65.981" y="388.7" type="line"/>
      <point x="229.879" y="444.08"/>
      <point x="357.303" y="380.769"/>
      <point x="347.827" y="246.198" type="curve" smooth="yes"/>
      <point x="334.925" y="62.98"/>
      <point x="136.364" y="-23"/>
      <point x="52" y="-21" type="curve"/>
      <point x="50" y="-31" type="line"/>
      <point x="133.185" y="-46"/>
      <point x="412.827" y="11"/>
      <point x="422.827" y="253.749" type="curve" smooth="yes"/>
      <point x="429.979" y="427.34"/>
      <point x="275.009" y="493.397"/>
      <point x="108.095" y="450.931" type="curve"/>
      <point x="154.14" y="609" type="line"/>
    </contour>
  </outline>
</glyph>
<glyph name="six" format="2">
  <advance width="560"/>
  <unicode hex="0036"/>
  <outline>
    <contour>
      <point x="401.067" y="734.431" type="line"/>
      <point x="172.067" y="707.135"/>
      <point x="67.839" y="478.506"/>
      <point x="65.045" y="271.543" type="curve" smooth="yes"/>
      <point x="62.593" y="89.882"/>
      <point x="160.418" y="-17"/>
      <point x="294.79" y="-15" type="curve" smooth="yes"/>
      <point x="431.423" y="-13"/>
      <point x="512.466" y="100.131"/>
      <point x="504.896" y="215.543" type="curve" smooth="yes"/>
      <point x="490.355" y="437.236"/>
      <point x="282.728" y="449.064"/>
      <point x="179.458" y="324.209" type="curve"/>
      <point x="184.934" y="315.209" type="line"/>
      <point x="211.131" y="349.463"/>
      <point x="253.004" y="366.522"/>
      <point x="294.79" y="366.701" type="curve" smooth="yes"/>
      <point x="381.093" y="367.069"/>
      <point x="428.254" y="302.244"/>
      <point x="429.896" y="201.543" type="curve" smooth="yes"/>
      <point x="431.448" y="106.455"/>
      <point x="390.279" y="15.044"/>
      <point x="294.79" y="15.044" type="curve" smooth="yes"/>
      <point x="191.533" y="15.044"/>
      <point x="140.045" y="120.849"/>
      <point x="140.045" y="271.543" type="curve" smooth="yes"/>
      <point x="140.045" y="478.504"/>
      <point x="214.536" y="665.977"/>
      <point x="404.778" y="727.022" type="curve"/>
    </contour>
  </outline>
</glyph>
<glyph name="seven" format="2">
  <advance width="502"/>
  <unicode hex="0037"/>
  <outline>
    <contour>
      <point x="35" y="585" type="line"/>
      <point x="63.218" y="698.125" type="line"/>
      <point x="462.58" y="700" type="line"/>
      <point x="354.965" y="410.481" type="line" smooth="yes"/>
      <point x="330.275" y="344.057"/>
      <point x="247.148" y="110.415"/>
      <point x="220.691" y="0" type="curve"/>
      <point x="150.691" y="0" type="line"/>
      <point x="191.453" y="101.557"/>
      <point x="272.338" y="304.145"/>
      <point x="314.226" y="414.053" type="curve" smooth="yes"/>
      <point x="402.245" y="645" type="line"/>
      <point x="119.968" y="645" type="line"/>
      <point x="79.985" y="645"/>
      <point x="59.761" y="624.656"/>
      <point x="45" y="585" type="curve"/>
    </contour>
  </outline>
</glyph>
<glyph name="nine" format="2">
  <advance width="560"/>
  <unicode hex="0039"/>
  <outline>
    <contour>
      <point x="159.441" y="-37" type="line"/>
      <point x="390" y="-17"/>
      <point x="495" y="225"/>
      <point x="495" y="424" type="curve" smooth="yes"/>
      <point x="495" y="609"/>
      <point x="404" y="714"/>
      <point x="266" y="712" type="curve" smooth="yes"/>
      <point x="143" y="710"/>
      <point x="52" y="622"/>
      <point x="56" y="481" type="curve" smooth="yes"/>
      <point x="62" y="268"/>
      <point x="281" y="246"/>
      <point x="381.05" y="372.791" type="curve"/>
      <point x="375.574" y="381.791" type="line"/>
      <point x="349" y="347"/>
      <point x="307" y="331"/>
      <point x="266" y="330" type="curve" smooth="yes"/>
      <point x="179" y="328"/>
      <point x="133" y="398"/>
      <point x="131" y="495" type="curve" smooth="yes"/>
      <point x="129" y="595"/>
      <point x="171" y="682"/>
      <point x="266.095" y="681.956" type="curve" smooth="yes"/>
      <point x="369" y="682"/>
      <point x="420" y="580"/>
      <point x="420.463" y="417.718" type="curve" smooth="yes"/>
      <point x="420" y="219"/>
      <point x="344" y="23"/>
      <point x="155.73" y="-30" type="curve"/>
    </contour>
  </outline>
</glyph>
<glyph name="less" format="2">
  <advance width="481"/>
  <unicode hex="003C"/>
  <outline>
    <contour>
      <point x="441.723" y="475.253" type="line"/>
      <point x="441.723" y="523.253" type="line"/>
      <point x="40" y="332.255" type="line"/>
      <point x="40" y="287.255" type="line"/>
      <point x="441.723" y="96.254" type="line"/>
      <point x="441.723" y="144.254" type="line"/>
      <point x="55.685" y="331.076" type="line"/>
      <point x="54.685" y="288.431" type="line"/>
    </contour>
  </outline>
</glyph>
<glyph name="equal" format="2">
  <advance width="481"/>
  <unicode hex="003D"/>
  <outline>
    <contour>
      <point x="40" y="408.891" type="line"/>
      <point x="40" y="363.891" type="line"/>
      <point x="441.723" y="363.891" type="line"/>
      <point x="441.723" y="408.891" type="line"/>
    </contour>
    <contour>
      <point x="40" y="233.891" type="line"/>
      <point x="40" y="188.891" type="line"/>
      <point x="441.723" y="188.891" type="line"/>
      <point x="441.723" y="233.891" type="line"/>
    </contour>
  </outline>
</glyph>
<glyph name="greater" format="2">
  <advance width="481"/>
  <unicode hex="003E"/>
  <outline>
    <contour>
      <point x="40" y="475" type="line"/>
      <point x="427" y="288" type="line"/>
      <point x="426" y="331" type="line"/>
      <point x="40" y="144" type="line"/>
      <point x="40" y="96" type="line"/>
      <point x="442" y="287" type="line"/>
      <point x="442" y="332" type="line"/>
      <point x="40" y="523" type="line"/>
    </contour>
  </outline>
</glyph>
<glyph name="question" format="2">
  <advance width="413"/>
  <unicode hex="003F"/>
  <outline>
    <contour>
      <point x="20" y="624.954" type="curve"/>
      <point x="30" y="530.23" type="line"/>
      <point x="40" y="530.23" type="line"/>
      <point x="38" y="626.296"/>
      <point x="88.492" y="684"/>
      <point x="167.61" y="684" type="curve" smooth="yes"/>
      <point x="242.454" y="684"/>
      <point x="288.326" y="631.644"/>
      <point x="288.326" y="544.306" type="curve" smooth="yes"/>
      <point x="288.326" y="418.866"/>
      <point x="145.587" y="360.392"/>
      <point x="145.587" y="265.559" type="curve" smooth="yes"/>
      <point x="145.587" y="233.706"/>
      <point x="155.317" y="201.853"/>
      <point x="190.182" y="170" type="curve"/>
      <point x="196.208" y="174.956" type="line"/>
      <point x="171.628" y="207.376"/>
      <point x="177.442" y="234.841"/>
      <point x="186.442" y="267.261" type="curve" smooth="yes"/>
      <point x="212.167" y="359.932"/>
      <point x="363.326" y="408.611"/>
      <point x="363.326" y="544.306" type="curve" smooth="yes"/>
      <point x="363.326" y="650.244"/>
      <point x="288.954" y="714"/>
      <point x="167.61" y="714" type="curve" smooth="yes"/>
      <point x="103.437" y="714"/>
      <point x="50.346" y="680.891"/>
    </contour>
    <contour>
      <point x="180.352" y="-4" type="curve" smooth="yes"/>
      <point x="205.205" y="-4"/>
      <point x="225.352" y="16.147"/>
      <point x="225.352" y="41" type="curve" smooth="yes"/>
      <point x="225.352" y="65.853"/>
      <point x="205.205" y="86"/>
      <point x="180.352" y="86" type="curve" smooth="yes"/>
      <point x="155.499" y="86"/>
      <point x="135.352" y="65.853"/>
      <point x="135.352" y="41" type="curve" smooth="yes"/>
      <point x="135.352" y="16.147"/>
      <point x="155.499" y="-4"/>
    </contour>
  </outline>
</glyph>
<glyph name="A" format="2">
  <advance width="712"/>
  <unicode hex="0041"/>
  <guideline x="744.412" y="-14" angle="0"/>
  <guideline x="734.412" y="714" angle="0"/>
  <anchor x="535.72" y="10" name="ogonek"/>
  <anchor x="356.664" y="764" name="top"/>
  <outline>
    <contour>
      <point x="359.414" y="714" type="line"/>
      <point x="339.4" y="619" type="line"/>
      <point x="569.573" y="6.095" type="line"/>
      <point x="654.633" y="6.095" type="line"/>
    </contour>
    <contour>
      <point x="144.486" y="72.681" type="curve"/>
      <point x="86.66" y="73.013" type="line"/>
      <point x="66.448" y="28.464"/>
      <point x="29.438" y="10"/>
      <point x="-1" y="10" type="curve" smooth="yes"/>
      <point x="-1" y="10"/>
      <point x="-10" y="10"/>
      <point x="-10" y="10" type="curve"/>
      <point x="-10" y="0" type="line"/>
      <point x="191.278" y="0" type="line"/>
      <point x="191.278" y="9.908" type="line"/>
      <point x="182.486" y="9.908" type="line" smooth="yes"/>
      <point x="156.669" y="9.908"/>
      <point x="129.884" y="32.663"/>
    </contour>
    <contour>
      <point x="359.414" y="714" type="line"/>
      <point x="350.408" y="714" type="line"/>
      <point x="350.408" y="692.013"/>
      <point x="313.382" y="611"/>
      <point x="313.382" y="611" type="curve"/>
      <point x="57.19" y="3.095" type="line"/>
      <point x="117.233" y="3.095" type="line"/>
      <point x="368.42" y="644" type="line"/>
    </contour>
    <contour>
      <point x="499.513" y="273" type="line"/>
      <point x="187.293" y="273" type="line"/>
      <point x="187.293" y="243" type="line"/>
      <point x="499.513" y="243" type="line"/>
    </contour>
    <contour>
      <point x="544.567" y="72.681" type="line"/>
      <point x="559.169" y="32.664"/>
      <point x="532.384" y="9.911"/>
      <point x="506.568" y="9.911" type="curve" smooth="yes"/>
      <point x="497.776" y="9.911" type="line"/>
      <point x="497.776" y="0" type="line"/>
      <point x="722.956" y="0" type="line"/>
      <point x="722.956" y="10" type="line"/>
      <point x="722.956" y="10"/>
      <point x="714.593" y="10"/>
      <point x="714.593" y="10" type="curve" smooth="yes"/>
      <point x="683.946" y="10"/>
      <point x="646.936" y="28.464"/>
      <point x="626.724" y="73.013" type="curve"/>
    </contour>
  </outline>
</glyph>
<glyph name="B" format="2">
  <advance width="586"/>
  <unicode hex="0042"/>
  <outline>
    <contour>
      <point x="152.611" y="700" type="line" smooth="yes"/>
      <point x="152.611" y="700"/>
      <point x="162.663" y="669.483"/>
      <point x="162.663" y="667.949" type="curve"/>
      <point x="255.176" y="667.818" type="line"/>
      <point x="350" y="668"/>
      <point x="401" y="616"/>
      <point x="401.384" y="525.604" type="curve" smooth="yes"/>
      <point x="401" y="397"/>
      <point x="297" y="379"/>
      <point x="236.016" y="379.222" type="curve"/>
      <point x="236.244" y="369.81" type="line"/>
      <point x="333" y="370"/>
      <point x="462" y="345"/>
      <point x="461.907" y="195.122" type="curve" smooth="yes"/>
      <point x="462" y="94"/>
      <point x="403" y="36"/>
      <point x="300.375" y="36.469" type="curve"/>
      <point x="193.994" y="36.469" type="line"/>
      <point x="193.994" y="36.469"/>
      <point x="193.136" y="0"/>
      <point x="193.136" y="0" type="curve"/>
      <point x="303.994" y="0" type="line" smooth="yes"/>
      <point x="453" y="0"/>
      <point x="537" y="75"/>
      <point x="536.907" y="187.941" type="curve" smooth="yes"/>
      <point x="537" y="287"/>
      <point x="472" y="365"/>
      <point x="365.549" y="380.853" type="curve"/>
      <point x="422" y="397"/>
      <point x="476" y="448"/>
      <point x="476.384" y="532.796" type="curve" smooth="yes"/>
      <point x="476" y="633"/>
      <point x="399" y="700"/>
      <point x="258.795" y="700" type="curve" smooth="yes"/>
    </contour>
    <contour>
      <point x="202.314" y="700" type="line"/>
      <point x="137.197" y="700" type="line"/>
      <point x="137.197" y="0" type="line"/>
      <point x="202.314" y="0" type="line"/>
    </contour>
    <contour>
      <point x="140.123" y="72.864" type="line"/>
      <point x="137.213" y="72.864" type="line"/>
      <point x="136.558" y="38.029"/>
      <point x="108.161" y="9.979"/>
      <point x="73.16" y="9.979" type="curve" smooth="yes"/>
      <point x="71" y="10"/>
      <point x="63" y="10"/>
      <point x="60.51" y="10" type="curve"/>
      <point x="60.348" y="0" type="line"/>
      <point x="140.123" y="0" type="line"/>
    </contour>
    <contour>
      <point x="140.126" y="627.195" type="line"/>
      <point x="140.126" y="700" type="line"/>
      <point x="60.351" y="700" type="line"/>
      <point x="60.513" y="690.06" type="line"/>
      <point x="63" y="690"/>
      <point x="71" y="690"/>
      <point x="73" y="690" type="curve" smooth="yes"/>
      <point x="108.164" y="690.08"/>
      <point x="136.561" y="662.03"/>
      <point x="137.217" y="627.195" type="curve"/>
    </contour>
  </outline>
</glyph>
<glyph name="E" format="2">
  <advance width="577"/>
  <unicode hex="0045"/>
  <anchor x="288" y="0" name="bottom"/>
  <anchor x="424" y="3" name="ogonek"/>
  <anchor x="298" y="764" name="top"/>
  <outline>
    <contour>
      <point x="202" y="700" type="line"/>
      <point x="137" y="700" type="line"/>
      <point x="137" y="0" type="line"/>
      <point x="202" y="0" type="line"/>
    </contour>
    <contour>
      <point x="472" y="31" type="line"/>
      <point x="199" y="31" type="line"/>
      <point x="199" y="0" type="line"/>
      <point x="472" y="0" type="line"/>
    </contour>
    <contour>
      <point x="429" y="360" type="line"/>
      <point x="199" y="360" type="line"/>
      <point x="199" y="330" type="line"/>
      <point x="429" y="330" type="line"/>
    </contour>
    <contour>
      <point x="472" y="700" type="line"/>
      <point x="199" y="700" type="line"/>
      <point x="199" y="669" type="line" smooth="yes"/>
      <point x="472" y="669" type="line"/>
    </contour>
    <contour>
      <point x="533" y="162" type="line"/>
      <point x="523" y="162" type="line"/>
      <point x="492" y="85"/>
      <point x="451" y="31"/>
      <point x="345" y="31" type="curve"/>
      <point x="309" y="0" type="line"/>
      <point x="475" y="0" type="line"/>
    </contour>
    <contour>
      <point x="429" y="332" type="line"/>
      <point x="371" y="332" type="line"/>
      <point x="371" y="330" type="line"/>
      <point x="398" y="330"/>
      <point x="419" y="308"/>
      <point x="419" y="281" type="curve" smooth="yes"/>
      <point x="419" y="266" type="line"/>
      <point x="429" y="266" type="line"/>
    </contour>
    <contour>
      <point x="429" y="424" type="line"/>
      <point x="419" y="424" type="line"/>
      <point x="419" y="410" type="line" smooth="yes"/>
      <point x="419" y="383"/>
      <point x="398" y="361"/>
      <point x="371" y="360" type="curve"/>
      <point x="371" y="358" type="line"/>
      <point x="429" y="358" type="line"/>
    </contour>
    <contour>
      <point x="472" y="672" type="line"/>
      <point x="403" y="672" type="line"/>
      <point x="403" y="670" type="line"/>
      <point x="436" y="669"/>
      <point x="462" y="642"/>
      <point x="462" y="610" type="curve" smooth="yes"/>
      <point x="462" y="592" type="line"/>
      <point x="472" y="592" type="line"/>
    </contour>
    <contour>
      <point x="472" y="718" type="line"/>
      <point x="453" y="710"/>
      <point x="393" y="700"/>
      <point x="350" y="700" type="curve"/>
      <point x="472" y="689" type="line"/>
    </contour>
    <contour>
      <point x="140" y="73" type="line"/>
      <point x="137" y="73" type="line"/>
      <point x="136" y="38"/>
      <point x="108" y="10"/>
      <point x="73" y="10" type="curve" smooth="yes"/>
      <point x="73" y="10"/>
      <point x="60" y="10"/>
      <point x="60" y="10" type="curve"/>
      <point x="60" y="0" type="line"/>
      <point x="140" y="0" type="line"/>
    </contour>
    <contour>
      <point x="140" y="627" type="line"/>
      <point x="140" y="700" type="line"/>
      <point x="60" y="700" type="line"/>
      <point x="61" y="690" type="line"/>
      <point x="61" y="690"/>
      <point x="73" y="690"/>
      <point x="73" y="690" type="curve" smooth="yes"/>
      <point x="108" y="690"/>
      <point x="137" y="662"/>
      <point x="137" y="627" type="curve"/>
    </contour>
  </outline>
</glyph>
<glyph name="G" format="2">
  <advance width="798"/>
  <unicode hex="0047"/>
  <anchor x="419.42" y="-64" name="bottom"/>
  <anchor x="419.421" y="764" name="top"/>
  <outline>
    <contour>
      <point x="708.625" y="280.182" type="line"/>
      <point x="708.151" y="309.103"/>
      <point x="726.339" y="325.41"/>
      <point x="758.673" y="325.41" type="curve" smooth="yes"/>
      <point x="773.743" y="325.389" type="line"/>
      <point x="773.743" y="335.389" type="line"/>
      <point x="577.875" y="335.389" type="line"/>
      <point x="577.875" y="325.389" type="line"/>
      <point x="593.642" y="325.41" type="line" smooth="yes"/>
      <point x="625.918" y="325.455"/>
      <point x="645.075" y="309.049"/>
      <point x="645.075" y="279.843" type="curve"/>
      <point x="643.565" y="102.656" type="line"/>
      <point x="587.402" y="49.354"/>
      <point x="506.333" y="15.926"/>
      <point x="419.42" y="15.926" type="curve" smooth="yes"/>
      <point x="249.918" y="16.817"/>
      <point x="135" y="150.447"/>
      <point x="135" y="350" type="curve" smooth="yes"/>
      <point x="135" y="550.445"/>
      <point x="249.919" y="684.074"/>
      <point x="419.422" y="684.074" type="curve" smooth="yes"/>
      <point x="551.47" y="684.074"/>
      <point x="642.999" y="619.702"/>
      <point x="673.378" y="505.264" type="curve"/>
      <point x="681.701" y="505.232" type="line"/>
      <point x="661.525" y="646.468" type="line"/>
      <point x="602.775" y="684.286"/>
      <point x="529.117" y="714"/>
      <point x="419.128" y="714" type="curve" smooth="yes"/>
      <point x="206.768" y="714"/>
      <point x="60" y="568.401"/>
      <point x="60" y="350.002" type="curve" smooth="yes"/>
      <point x="60" y="132.363"/>
      <point x="206.768" y="-13"/>
      <point x="419.42" y="-14" type="curve" smooth="yes"/>
      <point x="569.586" y="-14"/>
      <point x="663.024" y="54.215"/>
      <point x="708.625" y="114.81" type="curve"/>
    </contour>
  </outline>
</glyph>
<glyph name="H" format="2">
  <advance width="813"/>
  <unicode hex="0048"/>
  <anchor x="406.306" y="350" name="center"/>
  <anchor x="406.306" y="700" name="top"/>
  <outline>
    <contour>
      <point x="676.189" y="700.03" type="line"/>
      <point x="611.142" y="700.03" type="line"/>
      <point x="611.142" y="0" type="line"/>
      <point x="676.189" y="0" type="line"/>
    </contour>
    <contour>
      <point x="201.92" y="700.03" type="line"/>
      <point x="136.873" y="700.03" type="line"/>
      <point x="136.873" y="0" type="line"/>
      <point x="201.92" y="0" type="line"/>
    </contour>
    <contour>
      <point x="620.318" y="361.058" type="line"/>
      <point x="191.574" y="361.058" type="line"/>
      <point x="191.574" y="331.058" type="line"/>
      <point x="620.318" y="331.058" type="line"/>
    </contour>
    <contour>
      <point x="139.775" y="72.864" type="line"/>
      <point x="136.865" y="72.864" type="line"/>
      <point x="136.21" y="38.029"/>
      <point x="107.813" y="9.979"/>
      <point x="72.811" y="9.979" type="curve" smooth="yes"/>
      <point x="72.659" y="9.979"/>
      <point x="60.318" y="10"/>
      <point x="60.161" y="10" type="curve"/>
      <point x="60" y="0" type="line"/>
      <point x="139.775" y="0" type="line"/>
    </contour>
    <contour>
      <point x="139.791" y="627.196" type="line"/>
      <point x="139.791" y="700.03" type="line"/>
      <point x="60.016" y="700.03" type="line"/>
      <point x="60.178" y="690.06" type="line"/>
      <point x="60.335" y="690.06"/>
      <point x="72.676" y="690.08"/>
      <point x="72.828" y="690.08" type="curve" smooth="yes"/>
      <point x="107.829" y="690.08"/>
      <point x="136.226" y="662.03"/>
      <point x="136.882" y="627.196" type="curve"/>
    </contour>
    <contour>
      <point x="199.012" y="72.864" type="line"/>
      <point x="199.012" y="0" type="line"/>
      <point x="278.787" y="0" type="line"/>
      <point x="278.626" y="10" type="line"/>
      <point x="278.469" y="10"/>
      <point x="266.128" y="9.979"/>
      <point x="265.976" y="9.979" type="curve" smooth="yes"/>
      <point x="230.974" y="9.979"/>
      <point x="202.577" y="38.029"/>
      <point x="201.922" y="72.864" type="curve"/>
    </contour>
    <contour>
      <point x="198.996" y="627.196" type="line"/>
      <point x="201.905" y="627.196" type="line"/>
      <point x="202.561" y="662.03"/>
      <point x="230.958" y="690.08"/>
      <point x="265.959" y="690.08" type="curve" smooth="yes"/>
      <point x="266.111" y="690.08"/>
      <point x="278.452" y="690.06"/>
      <point x="278.609" y="690.06" type="curve"/>
      <point x="278.771" y="700.03" type="line"/>
      <point x="198.996" y="700.03" type="line"/>
    </contour>
    <contour>
      <point x="614.071" y="72.864" type="line"/>
      <point x="611.161" y="72.864" type="line"/>
      <point x="610.506" y="38.029"/>
      <point x="582.109" y="9.979"/>
      <point x="547.107" y="9.979" type="curve" smooth="yes"/>
      <point x="546.955" y="9.979"/>
      <point x="534.614" y="10"/>
      <point x="534.457" y="10" type="curve"/>
      <point x="534.296" y="0" type="line"/>
      <point x="614.071" y="0" type="line"/>
    </contour>
    <contour>
      <point x="614.087" y="627.196" type="line"/>
      <point x="614.087" y="700.03" type="line"/>
      <point x="534.312" y="700.03" type="line"/>
      <point x="534.474" y="690.06" type="line"/>
      <point x="534.631" y="690.06"/>
      <point x="546.972" y="690.08"/>
      <point x="547.124" y="690.08" type="curve" smooth="yes"/>
      <point x="582.125" y="690.08"/>
      <point x="610.522" y="662.03"/>
      <point x="611.178" y="627.196" type="curve"/>
    </contour>
    <contour>
      <point x="673.308" y="72.864" type="line"/>
      <point x="673.308" y="0" type="line"/>
      <point x="753.083" y="0" type="line"/>
      <point x="752.922" y="10" type="line"/>
      <point x="752.765" y="10"/>
      <point x="740.424" y="9.979"/>
      <point x="740.272" y="9.979" type="curve" smooth="yes"/>
      <point x="705.27" y="9.979"/>
      <point x="676.873" y="38.029"/>
      <point x="676.218" y="72.864" type="curve"/>
    </contour>
    <contour>
      <point x="673.292" y="627.196" type="line"/>
      <point x="676.201" y="627.196" type="line"/>
      <point x="676.857" y="662.03"/>
      <point x="705.254" y="690.08"/>
      <point x="740.255" y="690.08" type="curve" smooth="yes"/>
      <point x="740.407" y="690.08"/>
      <point x="752.748" y="690.06"/>
      <point x="752.905" y="690.06" type="curve"/>
      <point x="753.067" y="700.03" type="line"/>
      <point x="673.292" y="700.03" type="line"/>
    </contour>
  </outline>
</glyph>
<glyph name="I" format="2">
  <advance width="338"/>
  <unicode hex="0049"/>
  <anchor x="138" y="3" name="ogonek"/>
  <anchor x="169" y="764" name="top"/>
  <outline>
    <contour>
      <point x="202" y="700" type="line"/>
      <point x="137" y="700" type="line"/>
      <point x="137" y="0" type="line"/>
      <point x="202" y="0" type="line"/>
    </contour>
    <contour>
      <point x="140" y="73" type="line"/>
      <point x="137" y="73" type="line"/>
      <point x="136" y="38"/>
      <point x="108" y="10"/>
      <point x="73" y="10" type="curve" smooth="yes"/>
      <point x="73" y="10"/>
      <point x="60" y="10"/>
      <point x="60" y="10" type="curve"/>
      <point x="60" y="0" type="line"/>
      <point x="140" y="0" type="line"/>
    </contour>
    <contour>
      <point x="140" y="627" type="line"/>
      <point x="140" y="700" type="line"/>
      <point x="60" y="700" type="line"/>
      <point x="60" y="690" type="line"/>
      <point x="60" y="690"/>
      <point x="73" y="690"/>
      <point x="73" y="690" type="curve" smooth="yes"/>
      <point x="108" y="690"/>
      <point x="136" y="662"/>
      <point x="137" y="627" type="curve"/>
    </contour>
    <contour>
      <point x="199" y="73" type="line"/>
      <point x="199" y="0" type="line"/>
      <point x="279" y="0" type="line"/>
      <point x="279" y="10" type="line"/>
      <point x="278" y="10"/>
      <point x="266" y="10"/>
      <point x="266" y="10" type="curve" smooth="yes"/>
      <point x="231" y="10"/>
      <point x="203" y="38"/>
      <point x="202" y="73" type="curve"/>
    </contour>
    <contour>
      <point x="199" y="627" type="line"/>
      <point x="202" y="627" type="line"/>
      <point x="203" y="662"/>
      <point x="231" y="690"/>
      <point x="266" y="690" type="curve" smooth="yes"/>
      <point x="266" y="690"/>
      <point x="278" y="690"/>
      <point x="279" y="690" type="curve"/>
      <point x="279" y="700" type="line"/>
      <point x="199" y="700" type="line"/>
    </contour>
  </outline>
</glyph>
<glyph name="J" format="2">
  <advance width="324"/>
  <unicode hex="004A"/>
  <anchor x="171" y="700" name="top"/>
  <outline>
    <contour>
      <point x="202.163" y="700" type="line"/>
      <point x="136.961" y="699.742" type="line"/>
      <point x="136.961" y="2.923" type="line" smooth="yes"/>
      <point x="136.961" y="-83"/>
      <point x="85.498" y="-168"/>
      <point x="20" y="-191" type="curve"/>
      <point x="20" y="-200" type="line"/>
      <point x="122.011" y="-200"/>
      <point x="202.163" y="-112"/>
      <point x="202.163" y="0.099" type="curve" smooth="yes"/>
    </contour>
    <contour>
      <point x="139.86" y="627.196" type="line"/>
      <point x="139.86" y="700.06" type="line"/>
      <point x="60.085" y="700.06" type="line"/>
      <point x="60.247" y="690.06" type="line"/>
      <point x="60.404" y="690.06"/>
      <point x="72.745" y="690.08"/>
      <point x="72.897" y="690.08" type="curve" smooth="yes"/>
      <point x="107.898" y="690.08"/>
      <point x="136.295" y="662.03"/>
      <point x="136.951" y="627.196" type="curve"/>
    </contour>
    <contour>
      <point x="199.249" y="627.196" type="line"/>
      <point x="202.158" y="627.196" type="line"/>
      <point x="202.814" y="662.03"/>
      <point x="231.211" y="690.08"/>
      <point x="266.212" y="690.08" type="curve" smooth="yes"/>
      <point x="266.364" y="690.08"/>
      <point x="278.705" y="690.06"/>
      <point x="278.862" y="690.06" type="curve"/>
      <point x="279.024" y="700.06" type="line"/>
      <point x="199.249" y="700.06" type="line"/>
    </contour>
  </outline>
</glyph>
<glyph name="L" format="2">
  <advance width="562"/>
  <unicode hex="004C"/>
  <anchor x="307" y="0" name="bottom"/>
  <anchor x="170" y="764" name="top"/>
  <outline>
    <contour>
      <point x="202" y="700" type="line"/>
      <point x="137" y="700" type="line"/>
      <point x="137" y="0" type="line"/>
      <point x="202" y="0" type="line"/>
    </contour>
    <contour>
      <point x="472" y="31" type="line"/>
      <point x="199" y="31" type="line"/>
      <point x="199" y="0" type="line"/>
      <point x="472" y="0" type="line"/>
    </contour>
    <contour>
      <point x="533" y="162" type="line"/>
      <point x="523" y="162" type="line"/>
      <point x="492" y="85"/>
      <point x="451" y="31"/>
      <point x="345" y="31" type="curve"/>
      <point x="309" y="0" type="line"/>
      <point x="475" y="0" type="line"/>
    </contour>
    <contour>
      <point x="140" y="73" type="line"/>
      <point x="137" y="73" type="line"/>
      <point x="136" y="38"/>
      <point x="108" y="10"/>
      <point x="73" y="10" type="curve" smooth="yes"/>
      <point x="73" y="10"/>
      <point x="60" y="10"/>
      <point x="60" y="10" type="curve"/>
      <point x="60" y="0" type="line"/>
      <point x="140" y="0" type="line"/>
    </contour>
    <contour>
      <point x="140" y="627" type="line"/>
      <point x="140" y="700" type="line"/>
      <point x="60" y="700" type="line"/>
      <point x="60" y="690" type="line"/>
      <point x="60" y="690"/>
      <point x="73" y="690"/>
      <point x="73" y="690" type="curve" smooth="yes"/>
      <point x="108" y="690"/>
      <point x="136" y="662"/>
      <point x="137" y="627" type="curve"/>
    </contour>
    <contour>
      <point x="199" y="627" type="line"/>
      <point x="202" y="627" type="line"/>
      <point x="203" y="662"/>
      <point x="231" y="690"/>
      <point x="266" y="690" type="curve" smooth="yes"/>
      <point x="266" y="690"/>
      <point x="278" y="690"/>
      <point x="279" y="690" type="curve"/>
      <point x="279" y="700" type="line"/>
      <point x="199" y="700" type="line"/>
    </contour>
  </outline>
</glyph>
<glyph name="O" format="2">
  <advance width="838"/>
  <unicode hex="004F"/>
  <anchor x="429" y="764" name="top"/>
  <outline>
    <contour>
      <point x="429.432" y="714" type="curve" smooth="yes"/>
      <point x="216.773" y="714"/>
      <point x="70" y="568.397"/>
      <point x="70" y="349.992" type="curve" smooth="yes"/>
      <point x="70" y="131.597"/>
      <point x="216.773" y="-14"/>
      <point x="429.432" y="-14" type="curve" smooth="yes"/>
      <point x="642.092" y="-14"/>
      <point x="788.865" y="131.597"/>
      <point x="788.865" y="349.992" type="curve" smooth="yes"/>
      <point x="788.865" y="568.397"/>
      <point x="642.092" y="714"/>
    </contour>
    <contour>
      <point x="429.432" y="15.925" type="curve" smooth="yes"/>
      <point x="259.773" y="15.925"/>
      <point x="146.667" y="149.552"/>
      <point x="146.667" y="349.992" type="curve" smooth="yes"/>
      <point x="146.667" y="550.442"/>
      <point x="259.773" y="684.075"/>
      <point x="429.432" y="684.075" type="curve" smooth="yes"/>
      <point x="599.092" y="684.075"/>
      <point x="712.198" y="550.442"/>
      <point x="712.198" y="349.992" type="curve" smooth="yes"/>
      <point x="712.198" y="149.552"/>
      <point x="599.092" y="15.925"/>
    </contour>
  </outline>
</glyph>
<glyph name="P" format="2">
  <advance width="577"/>
  <unicode hex="0050"/>
  <outline>
    <contour>
      <point x="189.409" y="700" type="line" smooth="yes"/>
      <point x="189.409" y="700"/>
      <point x="199.462" y="670"/>
      <point x="199.462" y="670" type="curve"/>
      <point x="317.309" y="670" type="line"/>
      <point x="402.369" y="670"/>
      <point x="449.631" y="608.769"/>
      <point x="452.132" y="516.922" type="curve" smooth="yes"/>
      <point x="452.734" y="494.813"/>
      <point x="450.178" y="470.686"/>
      <point x="445.741" y="456.605" type="curve" smooth="yes"/>
      <point x="400.614" y="313.379"/>
      <point x="236.101" y="348.866"/>
      <point x="236.101" y="348.866" type="curve"/>
      <point x="236.221" y="339.416" type="line"/>
      <point x="361.688" y="273.283"/>
      <point x="527.132" y="354.447"/>
      <point x="527.132" y="506.868" type="curve" smooth="yes"/>
      <point x="527.132" y="626.61"/>
      <point x="448.776" y="700"/>
      <point x="320.931" y="700" type="curve" smooth="yes"/>
    </contour>
    <contour>
      <point x="202.029" y="700" type="line"/>
      <point x="136.905" y="700" type="line"/>
      <point x="136.905" y="0" type="line"/>
      <point x="202.029" y="0" type="line"/>
    </contour>
    <contour>
      <point x="139.775" y="72.864" type="line"/>
      <point x="136.865" y="72.864" type="line"/>
      <point x="136.21" y="38.029"/>
      <point x="107.813" y="9.979"/>
      <point x="72.811" y="9.979" type="curve" smooth="yes"/>
      <point x="72.659" y="9.979"/>
      <point x="60.318" y="10"/>
      <point x="60.161" y="10" type="curve"/>
      <point x="60" y="0" type="line"/>
      <point x="139.775" y="0" type="line"/>
    </contour>
    <contour>
      <point x="140.126" y="627.196" type="line"/>
      <point x="140.126" y="700.06" type="line"/>
      <point x="60.351" y="700.06" type="line"/>
      <point x="60.513" y="690.06" type="line"/>
      <point x="60.67" y="690.06"/>
      <point x="73.011" y="690.08"/>
      <point x="73.163" y="690.08" type="curve" smooth="yes"/>
      <point x="108.164" y="690.08"/>
      <point x="136.561" y="662.03"/>
      <point x="137.217" y="627.196" type="curve"/>
    </contour>
    <contour>
      <point x="199.122" y="72.864" type="line"/>
      <point x="199.122" y="0" type="line"/>
      <point x="278.897" y="0" type="line"/>
      <point x="278.736" y="10" type="line"/>
      <point x="278.579" y="10"/>
      <point x="266.238" y="9.979"/>
      <point x="266.086" y="9.979" type="curve" smooth="yes"/>
      <point x="231.084" y="9.979"/>
      <point x="202.687" y="38.029"/>
      <point x="202.032" y="72.864" type="curve"/>
    </contour>
  </outline>
</glyph>
<glyph name="Q" format="2">
  <advance width="837"/>
  <unicode hex="0051"/>
  <outline>
    <contour>
      <point x="408.017" y="-14" type="line"/>
      <point x="542.506" y="-38"/>
      <point x="706.004" y="-141"/>
      <point x="828.204" y="-194" type="curve" smooth="yes"/>
      <point x="1113.89" y="-318"/>
      <point x="1304.35" y="-152"/>
      <point x="1327.75" y="-89" type="curve"/>
      <point x="1323.93" y="-84" type="line"/>
      <point x="1200.51" y="-200"/>
      <point x="986.206" y="-196"/>
      <point x="836.029" y="-133" type="curve" smooth="yes"/>
      <point x="636.66" y="-48"/>
      <point x="479.059" y="11.861"/>
      <point x="417.682" y="11.861" type="curve"/>
    </contour>
    <contour>
      <point x="419.432" y="714" type="curve" smooth="yes"/>
      <point x="206.773" y="714"/>
      <point x="60" y="568.397"/>
      <point x="60" y="349.992" type="curve" smooth="yes"/>
      <point x="60" y="131.597"/>
      <point x="206.773" y="-14"/>
      <point x="419.432" y="-14" type="curve"/>
      <point x="629.092" y="-14"/>
      <point x="777.198" y="131.597"/>
      <point x="777.198" y="349.992" type="curve" smooth="yes"/>
      <point x="777.198" y="568.397"/>
      <point x="631.092" y="714"/>
    </contour>
    <contour>
      <point x="419.432" y="15.925" type="curve" smooth="yes"/>
      <point x="249.773" y="15.925"/>
      <point x="135" y="149.552"/>
      <point x="135" y="349.992" type="curve" smooth="yes"/>
      <point x="135" y="550.442"/>
      <point x="248.773" y="684.075"/>
      <point x="419.432" y="684.075" type="curve" smooth="yes"/>
      <point x="589.092" y="684.075"/>
      <point x="702.198" y="550.442"/>
      <point x="702.198" y="349.992" type="curve" smooth="yes"/>
      <point x="702.198" y="149.552"/>
      <point x="589.092" y="15.925"/>
    </contour>
  </outline>
</glyph>
<glyph name="R" format="2">
  <advance width="677"/>
  <unicode hex="0052"/>
  <anchor x="377.58" y="-50" name="bottom"/>
  <anchor x="323.58" y="764" name="top"/>
  <outline>
    <contour>
      <point x="189.086" y="700" type="line" smooth="yes"/>
      <point x="189.086" y="700"/>
      <point x="199.076" y="670.736"/>
      <point x="199.076" y="669.211" type="curve" smooth="yes"/>
      <point x="199.076" y="667.686"/>
      <point x="268.669" y="671.236"/>
      <point x="326.124" y="668.088" type="curve" smooth="yes"/>
      <point x="400.575" y="664.007"/>
      <point x="447.716" y="606.077"/>
      <point x="450.179" y="515.639" type="curve" smooth="yes"/>
      <point x="450.776" y="493.723"/>
      <point x="448.23" y="469.772"/>
      <point x="443.816" y="455.761" type="curve" smooth="yes"/>
      <point x="415.44" y="365.7"/>
      <point x="339.612" y="353.336"/>
      <point x="287.744" y="351.924" type="curve" smooth="yes"/>
      <point x="257.639" y="351.104"/>
      <point x="234.9" y="351.594"/>
      <point x="234.9" y="351.594" type="curve"/>
      <point x="234.9" y="342.34" type="line"/>
      <point x="271.428" y="342.34"/>
      <point x="300.603" y="307.699"/>
      <point x="326.739" y="274.862" type="curve" smooth="yes"/>
      <point x="334.422" y="265.209"/>
      <point x="447.113" y="101.246"/>
      <point x="458.478" y="87.675" type="curve" smooth="yes"/>
      <point x="489.919" y="50.133"/>
      <point x="539.891" y="0"/>
      <point x="632.955" y="0" type="curve" smooth="yes"/>
      <point x="687.817" y="0" type="line"/>
      <point x="687.817" y="10.028" type="line"/>
      <point x="629.052" y="10.499"/>
      <point x="592.038" y="41.708"/>
      <point x="551.804" y="85.645" type="curve" smooth="yes"/>
      <point x="513.09" y="127.922"/>
      <point x="426.876" y="251.026"/>
      <point x="426.876" y="251.026" type="curve" smooth="yes"/>
      <point x="407.493" y="278.393"/>
      <point x="376.754" y="311.492"/>
      <point x="355.306" y="321.391" type="curve"/>
      <point x="451.474" y="321.391"/>
      <point x="525.179" y="415.255"/>
      <point x="525.179" y="512.063" type="curve" smooth="yes"/>
      <point x="525.179" y="628.584"/>
      <point x="450.906" y="700"/>
      <point x="329.724" y="700" type="curve" smooth="yes"/>
    </contour>
    <contour>
      <point x="201.612" y="700" type="line"/>
      <point x="136.895" y="700" type="line"/>
      <point x="136.895" y="0" type="line"/>
      <point x="201.612" y="0" type="line"/>
    </contour>
    <contour>
      <point x="139.816" y="72.864" type="line"/>
      <point x="136.906" y="72.864" type="line"/>
      <point x="136.251" y="38.029"/>
      <point x="107.854" y="9.979"/>
      <point x="72.852" y="9.979" type="curve" smooth="yes"/>
      <point x="72.7" y="9.979"/>
      <point x="60.359" y="10"/>
      <point x="60.202" y="10" type="curve"/>
      <point x="60.041" y="0" type="line"/>
      <point x="139.816" y="0" type="line"/>
    </contour>
    <contour>
      <point x="139.775" y="627.196" type="line"/>
      <point x="139.775" y="700.06" type="line"/>
      <point x="60" y="700.06" type="line"/>
      <point x="60.162" y="690.06" type="line"/>
      <point x="60.319" y="690.06"/>
      <point x="72.66" y="690.08"/>
      <point x="72.812" y="690.08" type="curve" smooth="yes"/>
      <point x="107.813" y="690.08"/>
      <point x="136.21" y="662.03"/>
      <point x="136.866" y="627.196" type="curve"/>
    </contour>
    <contour>
      <point x="198.723" y="72.864" type="line"/>
      <point x="198.723" y="0" type="line"/>
      <point x="278.498" y="0" type="line"/>
      <point x="278.337" y="10" type="line"/>
      <point x="278.18" y="10"/>
      <point x="265.839" y="9.979"/>
      <point x="265.687" y="9.979" type="curve" smooth="yes"/>
      <point x="230.685" y="9.979"/>
      <point x="202.288" y="38.029"/>
      <point x="201.633" y="72.864" type="curve"/>
    </contour>
  </outline>
</glyph>
<glyph name="Z" format="2">
  <advance width="651"/>
  <unicode hex="005A"/>
  <anchor x="324" y="764" name="top"/>
  <outline>
    <contour>
      <point x="579.594" y="714" type="curve"/>
      <point x="567.791" y="707.817"/>
      <point x="513.843" y="701.098"/>
      <point x="473.627" y="701.098" type="curve"/>
      <point x="74.348" y="700.737" type="line"/>
      <point x="74.348" y="670.856" type="line"/>
      <point x="480.247" y="670.855" type="line"/>
      <point x="60.184" y="9.322" type="line"/>
      <point x="60" y="0" type="line"/>
      <point x="133.584" y="0" type="line"/>
      <point x="579.594" y="705.328" type="line"/>
      <point x="579.594" y="705.33"/>
      <point x="579.594" y="714"/>
    </contour>
    <contour>
      <point x="587.324" y="29.733" type="line"/>
      <point x="123.887" y="29.733" type="line"/>
      <point x="123.887" y="0" type="line"/>
      <point x="581.193" y="0" type="line"/>
    </contour>
    <contour>
      <point x="616.845" y="154.443" type="line"/>
      <point x="606.845" y="154.443" type="line"/>
      <point x="587.84" y="84.574"/>
      <point x="544.654" y="29.733"/>
      <point x="470.05" y="29.733" type="curve"/>
      <point x="459.2" y="25.115" type="line"/>
      <point x="452.116" y="0" type="line"/>
      <point x="583.689" y="0" type="line"/>
    </contour>
    <contour>
      <point x="142.876" y="670.857" type="curve"/>
      <point x="142.876" y="673.565" type="line"/>
      <point x="74.301" y="673.565" type="line"/>
      <point x="74.301" y="593.264" type="line"/>
      <point x="84.366" y="593.414" type="line"/>
      <point x="84.347" y="611.238" type="line" smooth="yes"/>
      <point x="84.347" y="643.815"/>
      <point x="110.452" y="670.247"/>
    </contour>
    <contour>
      <point x="74.301" y="719.196" type="curve"/>
      <point x="74.301" y="689.918" type="line"/>
      <point x="196.232" y="700.996" type="line"/>
      <point x="152.872" y="700.996"/>
      <point x="93.25" y="711.21"/>
    </contour>
  </outline>
</glyph>
<glyph name="backslash" format="2">
  <advance width="406"/>
  <unicode hex="005C"/>
  <outline>
    <contour>
      <point x="38" y="714" type="line"/>
      <point x="7" y="697" type="line"/>
      <point x="368" y="-14" type="line"/>
      <point x="399" y="5" type="line"/>
    </contour>
  </outline>
</glyph>
<glyph name="asciicircum" format="2">
  <advance width="523"/>
  <unicode hex="005E"/>
  <outline>
    <contour>
      <point x="35" y="182" type="line"/>
      <point x="232" y="371" type="line"/>
      <point x="292" y="371" type="line"/>
      <point x="488" y="182" type="line"/>
      <point x="425" y="182" type="line"/>
      <point x="262" y="336" type="line"/>
      <point x="98" y="182" type="line"/>
    </contour>
  </outline>
</glyph>
<glyph name="underscore" format="2">
  <advance width="500"/>
  <unicode hex="005F"/>
  <outline>
    <contour>
      <point x="0" y="-60" type="line"/>
      <point x="0" y="-90" type="line"/>
      <point x="500" y="-90" type="line"/>
      <point x="500" y="-60" type="line"/>
    </contour>
  </outline>
</glyph>
<glyph name="grave" format="2">
  <advance width="439"/>
  <unicode hex="0060"/>
  <anchor x="232.541" y="745.971" name="_top"/>
  <outline>
    <contour>
      <point x="239.541" y="752.971" type="line"/>
      <point x="197.219" y="799.602"/>
      <point x="154.896" y="843.234"/>
      <point x="112.574" y="883.865" type="curve"/>
      <point x="96.94" y="869.329"/>
      <point x="82.305" y="851.792"/>
      <point x="71.671" y="831.256" type="curve"/>
      <point x="125.294" y="799.828"/>
      <point x="178.918" y="771.399"/>
      <point x="232.541" y="745.971" type="curve"/>
    </contour>
  </outline>
</glyph>
<glyph name="a" format="2">
  <advance width="663"/>
  <unicode hex="0061"/>
  <anchor x="460.38" y="10.333" name="ogonek"/>
  <anchor x="332.127" y="664" name="top"/>
  <outline>
    <contour>
      <point x="336.339" y="614" type="line"/>
      <point x="319.075" y="525" type="line"/>
      <point x="532.104" y="6.095" type="line"/>
      <point x="611.41" y="6.095" type="line"/>
    </contour>
    <contour>
      <point x="143.248" y="72.681" type="curve"/>
      <point x="83.86" y="73.013" type="line"/>
      <point x="63.458" y="28.464"/>
      <point x="30.658" y="10"/>
      <point x="2.931" y="10" type="curve" smooth="yes"/>
      <point x="2.931" y="10"/>
      <point x="-5" y="10"/>
      <point x="-5" y="10" type="curve"/>
      <point x="-5" y="0" type="line"/>
      <point x="185.542" y="0" type="line"/>
      <point x="185.542" y="9.908" type="line"/>
      <point x="177.594" y="9.908" type="line" smooth="yes"/>
      <point x="154.253" y="9.908"/>
      <point x="127.967" y="32.663"/>
    </contour>
    <contour>
      <point x="336.339" y="614" type="line"/>
      <point x="326.859" y="614" type="line"/>
      <point x="324.802" y="587.84"/>
      <point x="288.086" y="511"/>
      <point x="288.372" y="511" type="curve"/>
      <point x="51.133" y="3.095" type="line"/>
      <point x="113.824" y="3.095" type="line"/>
      <point x="342.809" y="545" type="line"/>
    </contour>
    <contour>
      <point x="454.01" y="233" type="line"/>
      <point x="189.253" y="233" type="line"/>
      <point x="189.253" y="203" type="line"/>
      <point x="454.01" y="203" type="line"/>
    </contour>
    <contour>
      <point x="504.901" y="72.681" type="line"/>
      <point x="520.207" y="32.664"/>
      <point x="493.891" y="9.91"/>
      <point x="470.552" y="9.91" type="curve" smooth="yes"/>
      <point x="462.602" y="9.91" type="line"/>
      <point x="462.602" y="0" type="line"/>
      <point x="668.018" y="0" type="line"/>
      <point x="668.018" y="10" type="line"/>
      <point x="668.018" y="10"/>
      <point x="660.458" y="10"/>
      <point x="660.458" y="10" type="curve" smooth="yes"/>
      <point x="632.751" y="10"/>
      <point x="601.397" y="28.464"/>
      <point x="581.018" y="73.013" type="curve"/>
    </contour>
  </outline>
</glyph>
<glyph name="b" format="2">
  <advance width="570"/>
  <unicode hex="0062"/>
  <outline>
    <contour>
      <point x="139.565" y="599.949" type="line" smooth="yes"/>
      <point x="139.565" y="599.949"/>
      <point x="148.976" y="571.501"/>
      <point x="148.976" y="570.071" type="curve"/>
      <point x="257.732" y="569.949" type="line"/>
      <point x="345.347" y="569.949"/>
      <point x="396.83" y="534.053"/>
      <point x="396.83" y="450.302" type="curve" smooth="yes"/>
      <point x="396.83" y="340.419"/>
      <point x="293.995" y="326.953"/>
      <point x="221.219" y="326.953" type="curve"/>
      <point x="221.44" y="316.953" type="line"/>
      <point x="329.162" y="317.012"/>
      <point x="453.535" y="295.613"/>
      <point x="453.535" y="167.897" type="curve" smooth="yes"/>
      <point x="453.535" y="72.581"/>
      <point x="388.033" y="30"/>
      <point x="301.88" y="30" type="curve"/>
      <point x="181.947" y="30" type="line"/>
      <point x="181.947" y="30"/>
      <point x="181.113" y="0"/>
      <point x="181.113" y="0" type="curve"/>
      <point x="302.535" y="0" type="line" smooth="yes"/>
      <point x="401.062" y="0"/>
      <point x="525.174" y="37.481"/>
      <point x="525.174" y="167.897" type="curve" smooth="yes"/>
      <point x="525.174" y="248.288"/>
      <point x="454" y="314.604"/>
      <point x="357.121" y="326.417" type="curve"/>
      <point x="411.915" y="339.544"/>
      <point x="467.064" y="388.562"/>
      <point x="467.064" y="450.302" type="curve" smooth="yes"/>
      <point x="467.064" y="583.235"/>
      <point x="330.858" y="599.949"/>
      <point x="259.013" y="599.949" type="curve" smooth="yes"/>
    </contour>
    <contour>
      <point x="189.719" y="599.949" type="line"/>
      <point x="126.866" y="599.949" type="line"/>
      <point x="126.866" y="0" type="line"/>
      <point x="189.719" y="0" type="line"/>
    </contour>
    <contour>
      <point x="129.573" y="64.45" type="line"/>
      <point x="126.88" y="64.45" type="line"/>
      <point x="126.243" y="34.594"/>
      <point x="100.803" y="9.979"/>
      <point x="66.958" y="9.979" type="curve" smooth="yes"/>
      <point x="66.855" y="9.979"/>
      <point x="55.22" y="10"/>
      <point x="55.157" y="10" type="curve"/>
      <point x="55" y="0" type="line"/>
      <point x="129.573" y="0" type="line"/>
    </contour>
    <contour>
      <point x="129.579" y="535.55" type="line"/>
      <point x="129.579" y="600" type="line"/>
      <point x="55.006" y="600" type="line"/>
      <point x="55.162" y="590" type="line"/>
      <point x="55.226" y="590"/>
      <point x="66.906" y="590.02"/>
      <point x="66.964" y="590.02" type="curve" smooth="yes"/>
      <point x="100.809" y="590.02"/>
      <point x="126.248" y="568.406"/>
      <point x="126.886" y="535.55" type="curve"/>
    </contour>
  </outline>
</glyph>
<glyph name="c" format="2">
  <advance width="705"/>
  <unicode hex="0063"/>
  <anchor x="380" y="-13" name="bottom"/>
  <anchor x="380" y="664" name="top"/>
  <outline>
    <contour>
      <point x="666" y="252" type="line"/>
      <point x="657" y="252" type="line"/>
      <point x="646" y="88"/>
      <point x="529" y="16"/>
      <point x="380" y="17" type="curve" smooth="yes"/>
      <point x="221" y="18"/>
      <point x="122" y="127"/>
      <point x="122" y="300" type="curve" smooth="yes"/>
      <point x="122" y="476"/>
      <point x="221" y="584"/>
      <point x="379" y="584" type="curve" smooth="yes"/>
      <point x="503" y="584"/>
      <point x="597" y="535"/>
      <point x="627" y="412" type="curve"/>
      <point x="636" y="412" type="line"/>
      <point x="614" y="553" type="line"/>
      <point x="552" y="591"/>
      <point x="463" y="614"/>
      <point x="380" y="614" type="curve" smooth="yes"/>
      <point x="177" y="614"/>
      <point x="50" y="495"/>
      <point x="50" y="300" type="curve" smooth="yes"/>
      <point x="50" y="106"/>
      <point x="177" y="-13"/>
      <point x="380" y="-14" type="curve"/>
      <point x="498" y="-14"/>
      <point x="603" y="35"/>
      <point x="655" y="115" type="curve"/>
    </contour>
  </outline>
</glyph>
<glyph name="e" format="2">
  <advance width="546"/>
  <unicode hex="0065"/>
  <anchor x="296.982" y="0" name="bottom"/>
  <anchor x="402.97" y="3.008" name="ogonek"/>
  <anchor x="296.982" y="664" name="top"/>
  <outline>
    <contour>
      <point x="190.5" y="600" type="line"/>
      <point x="126.666" y="600" type="line"/>
      <point x="126.666" y="0" type="line"/>
      <point x="190.5" y="0" type="line"/>
    </contour>
    <contour>
      <point x="459.693" y="30.59" type="line"/>
      <point x="188.58" y="30.59" type="line"/>
      <point x="188.58" y="0" type="line"/>
      <point x="458.097" y="0" type="line"/>
    </contour>
    <contour>
      <point x="412.734" y="315" type="line"/>
      <point x="188.58" y="315" type="line"/>
      <point x="188.58" y="285" type="line"/>
      <point x="412.734" y="285" type="line"/>
    </contour>
    <contour>
      <point x="458.849" y="600" type="line"/>
      <point x="188.58" y="600" type="line"/>
      <point x="188.58" y="569.409" type="line" smooth="yes"/>
      <point x="458.849" y="569.409" type="line"/>
    </contour>
    <contour>
      <point x="516.39" y="143.45" type="line"/>
      <point x="505.551" y="143.45" type="line"/>
      <point x="476.752" y="77.814"/>
      <point x="441.977" y="30.561"/>
      <point x="342.782" y="30.561" type="curve"/>
      <point x="308.939" y="0" type="line"/>
      <point x="461.269" y="0" type="line"/>
    </contour>
    <contour>
      <point x="412.734" y="287.029" type="line"/>
      <point x="361" y="287.029" type="line"/>
      <point x="361" y="285.1" type="line"/>
      <point x="388.967" y="284.665"/>
      <point x="401.869" y="265.834"/>
      <point x="401.869" y="242.624" type="curve" smooth="yes"/>
      <point x="401.851" y="229.922" type="line"/>
      <point x="412.734" y="229.815" type="line"/>
    </contour>
    <contour>
      <point x="412.734" y="370.275" type="line"/>
      <point x="401.851" y="370.167" type="line"/>
      <point x="401.87" y="357.465" type="line" smooth="yes"/>
      <point x="401.87" y="334.256"/>
      <point x="388.967" y="315.428"/>
      <point x="361" y="314.993" type="curve"/>
      <point x="361" y="313.065" type="line"/>
      <point x="412.734" y="313.065" type="line"/>
    </contour>
    <contour>
      <point x="458.849" y="571.746" type="line"/>
      <point x="397.704" y="571.746" type="line"/>
      <point x="397.704" y="569.412" type="line"/>
      <point x="428.227" y="568.886"/>
      <point x="447.988" y="546.099"/>
      <point x="447.988" y="518.016" type="curve" smooth="yes"/>
      <point x="447.967" y="502.65" type="line"/>
      <point x="458.849" y="502.521" type="line"/>
    </contour>
    <contour>
      <point x="458.849" y="615.682" type="line"/>
      <point x="441.156" y="608.798"/>
      <point x="385.563" y="599.993"/>
      <point x="345.149" y="599.993" type="curve"/>
      <point x="458.849" y="590.443" type="line"/>
    </contour>
    <contour>
      <point x="129.387" y="64.193" type="line"/>
      <point x="126.701" y="64.193" type="line"/>
      <point x="126.066" y="34.163"/>
      <point x="101.601" y="9.979"/>
      <point x="68.932" y="9.979" type="curve" smooth="yes"/>
      <point x="68.804" y="9.979"/>
      <point x="55.38" y="10"/>
      <point x="55.203" y="10" type="curve"/>
      <point x="55.023" y="0" type="line"/>
      <point x="141.741" y="0" type="line"/>
    </contour>
    <contour>
      <point x="129.365" y="537.186" type="line"/>
      <point x="141.718" y="600" type="line"/>
      <point x="55" y="600" type="line"/>
      <point x="55.182" y="590" type="line"/>
      <point x="55.358" y="590"/>
      <point x="68.782" y="590.02"/>
      <point x="68.91" y="590.02" type="curve" smooth="yes"/>
      <point x="101.579" y="590.02"/>
      <point x="126.044" y="567.216"/>
      <point x="126.678" y="537.186" type="curve"/>
    </contour>
  </outline>
</glyph>
<glyph name="f" format="2">
  <advance width="523"/>
  <unicode hex="0066"/>
  <outline>
    <contour>
      <point x="191.385" y="600" type="line"/>
      <point x="127.579" y="600" type="line"/>
      <point x="127.579" y="0" type="line"/>
      <point x="191.385" y="0" type="line"/>
    </contour>
    <contour>
      <point x="416.499" y="315" type="line"/>
      <point x="189.443" y="315" type="line"/>
      <point x="189.443" y="285" type="line"/>
      <point x="416.499" y="285" type="line"/>
    </contour>
    <contour>
      <point x="463.18" y="600" type="line"/>
      <point x="189.443" y="600" type="line"/>
      <point x="189.443" y="569.409" type="line" smooth="yes"/>
      <point x="463.18" y="569.409" type="line"/>
    </contour>
    <contour>
      <point x="416.499" y="287.029" type="line"/>
      <point x="364.493" y="287.029" type="line"/>
      <point x="364.493" y="285.1" type="line"/>
      <point x="392.605" y="284.665"/>
      <point x="405.486" y="265.834"/>
      <point x="405.486" y="242.624" type="curve" smooth="yes"/>
      <point x="405.468" y="229.922" type="line"/>
      <point x="416.499" y="229.815" type="line"/>
    </contour>
    <contour>
      <point x="416.499" y="370.275" type="line"/>
      <point x="405.468" y="370.167" type="line"/>
      <point x="405.487" y="357.465" type="line" smooth="yes"/>
      <point x="405.487" y="334.256"/>
      <point x="392.605" y="315.428"/>
      <point x="364.493" y="314.993" type="curve"/>
      <point x="364.493" y="313.065" type="line"/>
      <point x="416.499" y="313.065" type="line"/>
    </contour>
    <contour>
      <point x="463.18" y="571.746" type="line"/>
      <point x="401.799" y="571.746" type="line"/>
      <point x="401.799" y="569.412" type="line"/>
      <point x="432.317" y="568.886"/>
      <point x="452.171" y="546.099"/>
      <point x="452.171" y="518.016" type="curve" smooth="yes"/>
      <point x="452.149" y="502.65" type="line"/>
      <point x="463.18" y="502.521" type="line"/>
    </contour>
    <contour>
      <point x="463.18" y="615.682" type="line"/>
      <point x="445.258" y="608.798"/>
      <point x="388.957" y="599.993"/>
      <point x="348.031" y="599.993" type="curve"/>
      <point x="463.18" y="590.443" type="line"/>
    </contour>
    <contour>
      <point x="130.331" y="64.193" type="line"/>
      <point x="127.615" y="64.193" type="line"/>
      <point x="126.969" y="34.163"/>
      <point x="102.208" y="9.979"/>
      <point x="69.117" y="9.979" type="curve" smooth="yes"/>
      <point x="68.994" y="9.979"/>
      <point x="55.387" y="10"/>
      <point x="55.207" y="10" type="curve"/>
      <point x="55.023" y="0" type="line"/>
      <point x="142.913" y="0" type="line"/>
    </contour>
    <contour>
      <point x="130.308" y="537.186" type="line"/>
      <point x="142.889" y="600" type="line"/>
      <point x="55" y="600" type="line"/>
      <point x="55.185" y="590" type="line"/>
      <point x="55.365" y="590"/>
      <point x="68.972" y="590.02"/>
      <point x="69.095" y="590.02" type="curve" smooth="yes"/>
      <point x="102.185" y="590.02"/>
      <point x="126.946" y="567.216"/>
      <point x="127.592" y="537.186" type="curve"/>
    </contour>
    <contour>
      <point x="188.609" y="64.193" type="line"/>
      <point x="176.027" y="0" type="line"/>
      <point x="263.917" y="0" type="line"/>
      <point x="263.733" y="10" type="line"/>
      <point x="263.604" y="10"/>
      <point x="249.997" y="9.979"/>
      <point x="249.823" y="9.979" type="curve" smooth="yes"/>
      <point x="216.783" y="9.979"/>
      <point x="191.972" y="34.163"/>
      <point x="191.376" y="64.193" type="curve"/>
    </contour>
  </outline>
</glyph>
<glyph name="g" format="2">
  <advance width="742"/>
  <unicode hex="0067"/>
  <anchor x="378.42" y="-14" name="bottom"/>
  <anchor x="378.128" y="664" name="top"/>
  <outline>
    <contour>
      <point x="377.709" y="614" type="curve" smooth="yes"/>
      <point x="180.639" y="614"/>
      <point x="50" y="494.681"/>
      <point x="50" y="300.002" type="curve" smooth="yes"/>
      <point x="50" y="106.208"/>
      <point x="180.367" y="-13"/>
      <point x="378" y="-14" type="curve" smooth="yes"/>
      <point x="518.834" y="-14"/>
      <point x="616.259" y="55.96"/>
      <point x="662.83" y="114.81" type="curve"/>
      <point x="662.804" y="235.182" type="line"/>
      <point x="662.708" y="260.78"/>
      <point x="679.164" y="274.841"/>
      <point x="708.41" y="274.841" type="curve" smooth="yes"/>
      <point x="722.056" y="274.82" type="line"/>
      <point x="722.056" y="284.82" type="line"/>
      <point x="538.641" y="284.814" type="line"/>
      <point x="538.641" y="274.814" type="line"/>
      <point x="552.882" y="274.835" type="line" smooth="yes"/>
      <point x="582.1" y="274.88"/>
      <point x="599.747" y="260.726"/>
      <point x="599.427" y="235.55" type="curve" smooth="yes"/>
      <point x="597.766" y="102.656" type="line"/>
      <point x="535.128" y="41.68"/>
      <point x="461.253" y="16"/>
      <point x="378" y="16" type="curve" smooth="yes"/>
      <point x="224.569" y="16"/>
      <point x="122.286" y="124.638"/>
      <point x="122.286" y="300" type="curve" smooth="yes"/>
      <point x="122.286" y="476.126"/>
      <point x="224.041" y="584.074"/>
      <point x="376.793" y="584.074" type="curve" smooth="yes"/>
      <point x="516.647" y="584.074"/>
      <point x="595.346" y="529.095"/>
      <point x="624.403" y="412.264" type="curve"/>
      <point x="633.164" y="412.232" type="line"/>
      <point x="611.168" y="553.468" type="line"/>
      <point x="543.737" y="594.63"/>
      <point x="469.853" y="614"/>
    </contour>
  </outline>
</glyph>
<glyph name="h" format="2">
  <advance width="746"/>
  <unicode hex="0068"/>
  <anchor x="375.621" y="296.227" name="center"/>
  <anchor x="378.314" y="650.822" name="top"/>
  <outline>
    <contour>
      <point x="621.959" y="600" type="line"/>
      <point x="557.992" y="600" type="line"/>
      <point x="557.992" y="0" type="line"/>
      <point x="621.959" y="0" type="line"/>
    </contour>
    <contour>
      <point x="188.919" y="600" type="line"/>
      <point x="124.981" y="600" type="line"/>
      <point x="124.981" y="0" type="line"/>
      <point x="188.919" y="0" type="line"/>
    </contour>
    <contour>
      <point x="567.728" y="311.058" type="line"/>
      <point x="177.944" y="311.058" type="line"/>
      <point x="177.944" y="281.058" type="line"/>
      <point x="567.728" y="281.058" type="line"/>
    </contour>
    <contour>
      <point x="127.612" y="64.193" type="line"/>
      <point x="124.983" y="64.193" type="line"/>
      <point x="124.371" y="34.163"/>
      <point x="98.552" y="9.979"/>
      <point x="66.681" y="9.979" type="curve" smooth="yes"/>
      <point x="66.568" y="9.979"/>
      <point x="55.335" y="10"/>
      <point x="55.188" y="10" type="curve"/>
      <point x="55.038" y="0" type="line"/>
      <point x="127.612" y="0" type="line"/>
    </contour>
    <contour>
      <point x="186.239" y="64.193" type="line"/>
      <point x="186.239" y="0" type="line"/>
      <point x="258.814" y="0" type="line"/>
      <point x="258.664" y="10" type="line"/>
      <point x="258.547" y="10"/>
      <point x="247.313" y="9.979"/>
      <point x="247.171" y="9.979" type="curve" smooth="yes"/>
      <point x="215.33" y="9.979"/>
      <point x="189.48" y="34.163"/>
      <point x="188.899" y="64.193" type="curve"/>
    </contour>
    <contour>
      <point x="186.202" y="535.807" type="line"/>
      <point x="188.861" y="535.807" type="line"/>
      <point x="189.443" y="565.837"/>
      <point x="215.292" y="590.021"/>
      <point x="247.133" y="590.021" type="curve" smooth="yes"/>
      <point x="247.275" y="590.021"/>
      <point x="258.509" y="590"/>
      <point x="258.655" y="590" type="curve"/>
      <point x="258.776" y="600" type="line"/>
      <point x="186.202" y="600" type="line"/>
    </contour>
    <contour>
      <point x="127.576" y="535.807" type="line"/>
      <point x="127.576" y="600" type="line"/>
      <point x="55" y="600" type="line"/>
      <point x="55.151" y="590" type="line"/>
      <point x="55.297" y="590"/>
      <point x="66.53" y="590.021"/>
      <point x="66.643" y="590.021" type="curve" smooth="yes"/>
      <point x="98.514" y="590.021"/>
      <point x="124.334" y="565.837"/>
      <point x="124.945" y="535.807" type="curve"/>
    </contour>
    <contour>
      <point x="560.673" y="64.193" type="line"/>
      <point x="558.014" y="64.193" type="line"/>
      <point x="557.432" y="34.163"/>
      <point x="531.583" y="9.979"/>
      <point x="499.742" y="9.979" type="curve" smooth="yes"/>
      <point x="499.6" y="9.979"/>
      <point x="488.366" y="10"/>
      <point x="488.249" y="10" type="curve"/>
      <point x="488.099" y="0" type="line"/>
      <point x="560.673" y="0" type="line"/>
    </contour>
    <contour>
      <point x="619.299" y="64.193" type="line"/>
      <point x="619.299" y="0" type="line"/>
      <point x="691.875" y="0" type="line"/>
      <point x="691.724" y="10" type="line"/>
      <point x="691.578" y="10"/>
      <point x="680.374" y="9.979"/>
      <point x="680.232" y="9.979" type="curve" smooth="yes"/>
      <point x="648.39" y="9.979"/>
      <point x="622.541" y="34.163"/>
      <point x="621.93" y="64.193" type="curve"/>
    </contour>
    <contour>
      <point x="619.263" y="535.807" type="line"/>
      <point x="621.892" y="535.807" type="line"/>
      <point x="622.504" y="565.837"/>
      <point x="648.352" y="590.021"/>
      <point x="680.194" y="590.021" type="curve" smooth="yes"/>
      <point x="680.336" y="590.021"/>
      <point x="691.54" y="590"/>
      <point x="691.686" y="590" type="curve"/>
      <point x="691.837" y="600" type="line"/>
      <point x="619.263" y="600" type="line"/>
    </contour>
    <contour>
      <point x="560.636" y="535.807" type="line"/>
      <point x="560.636" y="600" type="line"/>
      <point x="488.061" y="600" type="line"/>
      <point x="488.211" y="590" type="line"/>
      <point x="488.328" y="590"/>
      <point x="499.562" y="590.021"/>
      <point x="499.704" y="590.021" type="curve" smooth="yes"/>
      <point x="531.545" y="590.021"/>
      <point x="557.395" y="565.837"/>
      <point x="557.977" y="535.807" type="curve"/>
    </contour>
  </outline>
</glyph>
<glyph name="i" format="2">
  <advance width="336"/>
  <unicode hex="0069"/>
  <outline>
    <contour>
      <point x="200.187" y="600" type="line"/>
      <point x="136.592" y="600" type="line"/>
      <point x="136.592" y="0" type="line"/>
      <point x="200.187" y="0" type="line"/>
    </contour>
    <contour>
      <point x="139.606" y="64.193" type="line"/>
      <point x="136.594" y="64.193" type="line"/>
      <point x="135.834" y="34.163"/>
      <point x="105.796" y="9.979"/>
      <point x="68.578" y="9.979" type="curve" smooth="yes"/>
      <point x="68.523" y="9.979"/>
      <point x="55.416" y="10"/>
      <point x="55.234" y="10" type="curve"/>
      <point x="55.047" y="0" type="line"/>
      <point x="139.606" y="0" type="line"/>
    </contour>
    <contour>
      <point x="197.027" y="64.193" type="line"/>
      <point x="197.027" y="0" type="line"/>
      <point x="281.587" y="0" type="line"/>
      <point x="281.4" y="10" type="line"/>
      <point x="281.34" y="10"/>
      <point x="268.233" y="9.979"/>
      <point x="268.056" y="9.979" type="curve" smooth="yes"/>
      <point x="230.96" y="9.979"/>
      <point x="200.799" y="34.163"/>
      <point x="200.161" y="64.193" type="curve"/>
    </contour>
    <contour>
      <point x="196.981" y="535.807" type="line"/>
      <point x="200.114" y="535.807" type="line"/>
      <point x="200.753" y="565.837"/>
      <point x="230.913" y="590.021"/>
      <point x="268.009" y="590.021" type="curve" smooth="yes"/>
      <point x="268.186" y="590.021"/>
      <point x="281.293" y="590"/>
      <point x="281.474" y="590" type="curve"/>
      <point x="281.54" y="600" type="line"/>
      <point x="196.981" y="600" type="line"/>
    </contour>
    <contour>
      <point x="139.56" y="535.807" type="line"/>
      <point x="139.56" y="600" type="line"/>
      <point x="55" y="600" type="line"/>
      <point x="55.187" y="590" type="line"/>
      <point x="55.369" y="590"/>
      <point x="68.476" y="590.021"/>
      <point x="68.531" y="590.021" type="curve" smooth="yes"/>
      <point x="105.749" y="590.021"/>
      <point x="135.788" y="565.837"/>
      <point x="136.547" y="535.807" type="curve"/>
    </contour>
  </outline>
</glyph>
<glyph name="j" format="2">
  <advance width="309"/>
  <unicode hex="006A"/>
  <outline>
    <contour>
      <point x="196.196" y="600" type="line"/>
      <point x="132.311" y="599.742" type="line" smooth="yes"/>
      <point x="132.311" y="0" type="line" smooth="yes"/>
      <point x="132.299" y="-74"/>
      <point x="76.882" y="-148"/>
      <point x="13" y="-168" type="curve"/>
      <point x="13" y="-178" type="line"/>
      <point x="111.511" y="-178"/>
      <point x="196.189" y="-97"/>
      <point x="196.189" y="0" type="curve" smooth="yes"/>
    </contour>
    <contour>
      <point x="135.526" y="599.729" type="line"/>
      <point x="54.475" y="599.729" type="line"/>
      <point x="54.639" y="589.729" type="line"/>
      <point x="67.491" y="589.75" type="line" smooth="yes"/>
      <point x="103.052" y="589.75"/>
      <point x="131.904" y="565.566"/>
      <point x="132.569" y="535.536" type="curve"/>
      <point x="135.526" y="535.536" type="line"/>
    </contour>
    <contour>
      <point x="274.331" y="600" type="line"/>
      <point x="193.281" y="600" type="line"/>
      <point x="193.281" y="535.807" type="line"/>
      <point x="196.237" y="535.807" type="line"/>
      <point x="196.903" y="565.837"/>
      <point x="225.754" y="590.021"/>
      <point x="261.315" y="590.021" type="curve" smooth="yes"/>
      <point x="274.167" y="590" type="line"/>
    </contour>
  </outline>
</glyph>
<glyph name="k" format="2">
  <advance width="624"/>
  <unicode hex="006B"/>
  <anchor x="361.115" y="-64" name="bottom"/>
  <outline>
    <contour>
      <point x="280.564" y="335.286" type="line"/>
      <point x="225.222" y="298.182" type="line"/>
      <point x="225.225" y="298.18"/>
      <point x="445.674" y="56.779"/>
      <point x="444.634" y="56.779" type="curve"/>
      <point x="491.682" y="3.193"/>
      <point x="561.41" y="0.231"/>
      <point x="591.566" y="0.131" type="curve" smooth="yes"/>
      <point x="629.148" y="0" type="line"/>
      <point x="629.148" y="10.075" type="line"/>
      <point x="585.575" y="11.11"/>
      <point x="565.326" y="23.542"/>
      <point x="541.569" y="50.906" type="curve"/>
    </contour>
    <contour>
      <point x="548.194" y="592.968" type="line"/>
      <point x="475.766" y="592.968" type="line"/>
      <point x="225.222" y="298.182" type="line"/>
      <point x="272.237" y="298.182" type="line"/>
    </contour>
    <contour>
      <point x="612.712" y="600" type="line"/>
      <point x="608.684" y="600" type="line"/>
      <point x="409.473" y="600" type="line"/>
      <point x="409.473" y="590.204" type="line"/>
      <point x="418.359" y="590.204" type="line"/>
      <point x="441.55" y="590.204"/>
      <point x="454.949" y="569.064"/>
      <point x="440.237" y="551.334" type="curve"/>
      <point x="507.588" y="549.681" type="line"/>
      <point x="531.284" y="575.916"/>
      <point x="568.091" y="590.119"/>
      <point x="608.684" y="590.204" type="curve" smooth="yes"/>
      <point x="612.712" y="590.204" type="line"/>
    </contour>
    <contour>
      <point x="189.645" y="600" type="line"/>
      <point x="125.714" y="600" type="line"/>
      <point x="125.714" y="0" type="line"/>
      <point x="189.645" y="0" type="line"/>
    </contour>
    <contour>
      <point x="128.392" y="64.193" type="line"/>
      <point x="125.717" y="64.193" type="line"/>
      <point x="125.114" y="34.163"/>
      <point x="99" y="9.979"/>
      <point x="66.816" y="9.979" type="curve" smooth="yes"/>
      <point x="66.732" y="9.979"/>
      <point x="55.275" y="10"/>
      <point x="55.187" y="10" type="curve"/>
      <point x="55.039" y="0" type="line"/>
      <point x="128.392" y="0" type="line"/>
    </contour>
    <contour>
      <point x="186.947" y="64.193" type="line"/>
      <point x="186.947" y="0" type="line"/>
      <point x="260.301" y="0" type="line"/>
      <point x="260.153" y="10" type="line"/>
      <point x="260.058" y="10"/>
      <point x="248.585" y="9.979"/>
      <point x="248.512" y="9.979" type="curve" smooth="yes"/>
      <point x="216.329" y="9.979"/>
      <point x="190.225" y="34.163"/>
      <point x="189.624" y="64.193" type="curve"/>
    </contour>
    <contour>
      <point x="186.91" y="535.807" type="line"/>
      <point x="189.586" y="535.807" type="line"/>
      <point x="190.188" y="565.837"/>
      <point x="216.289" y="590.021"/>
      <point x="248.474" y="590.021" type="curve" smooth="yes"/>
      <point x="248.55" y="590.021"/>
      <point x="260.02" y="590.021"/>
      <point x="260.115" y="590.021" type="curve"/>
      <point x="260.263" y="600" type="line"/>
      <point x="186.91" y="600" type="line"/>
    </contour>
    <contour>
      <point x="128.354" y="535.807" type="line"/>
      <point x="128.354" y="600" type="line"/>
      <point x="55" y="600" type="line"/>
      <point x="55.148" y="590.021" type="line"/>
      <point x="55.236" y="590.021"/>
      <point x="66.7" y="590.021"/>
      <point x="66.778" y="590.021" type="curve" smooth="yes"/>
      <point x="98.968" y="590.021"/>
      <point x="125.076" y="565.837"/>
      <point x="125.677" y="535.807" type="curve"/>
    </contour>
  </outline>
</glyph>
<glyph name="l" format="2">
  <advance width="536"/>
  <unicode hex="006C"/>
  <anchor x="327.959" y="-64" name="bottom"/>
  <anchor x="157.273" y="664" name="top"/>
  <anchor x="361.442" y="500" name="topright"/>
  <outline>
    <contour>
      <point x="190.544" y="600" type="line"/>
      <point x="126.71" y="600" type="line"/>
      <point x="126.71" y="0" type="line"/>
      <point x="190.544" y="0" type="line"/>
    </contour>
    <contour>
      <point x="459.776" y="30.59" type="line"/>
      <point x="188.624" y="30.59" type="line"/>
      <point x="188.624" y="0" type="line"/>
      <point x="458.138" y="0" type="line"/>
    </contour>
    <contour>
      <point x="516.43" y="143.45" type="line"/>
      <point x="505.591" y="143.45" type="line"/>
      <point x="476.793" y="77.814"/>
      <point x="442.018" y="30.561"/>
      <point x="342.824" y="30.561" type="curve"/>
      <point x="308.982" y="0" type="line"/>
      <point x="461.31" y="0" type="line"/>
    </contour>
    <contour>
      <point x="129.431" y="64.193" type="line"/>
      <point x="126.745" y="64.193" type="line"/>
      <point x="126.11" y="34.163"/>
      <point x="101.645" y="9.979"/>
      <point x="68.976" y="9.979" type="curve" smooth="yes"/>
      <point x="68.849" y="9.979"/>
      <point x="55.424" y="10"/>
      <point x="55.248" y="10" type="curve"/>
      <point x="55.067" y="0" type="line"/>
      <point x="141.785" y="0" type="line"/>
    </contour>
    <contour>
      <point x="187.811" y="535.807" type="line"/>
      <point x="190.541" y="535.807" type="line"/>
      <point x="191.132" y="565.837"/>
      <point x="217.624" y="590.021"/>
      <point x="250.25" y="590.021" type="curve" smooth="yes"/>
      <point x="250.397" y="590.021"/>
      <point x="261.91" y="590"/>
      <point x="262.019" y="590" type="curve"/>
      <point x="262.175" y="600" type="line"/>
      <point x="187.811" y="600" type="line"/>
    </contour>
    <contour>
      <point x="129.365" y="535.807" type="line"/>
      <point x="129.365" y="600" type="line"/>
      <point x="55" y="600" type="line"/>
      <point x="55.156" y="590" type="line"/>
      <point x="55.308" y="590"/>
      <point x="66.821" y="590.021"/>
      <point x="66.925" y="590.021" type="curve" smooth="yes"/>
      <point x="99.594" y="590.021"/>
      <point x="126.044" y="565.837"/>
      <point x="126.677" y="535.807" type="curve"/>
    </contour>
  </outline>
</glyph>
<glyph name="m" format="2">
  <advance width="878"/>
  <unicode hex="006D"/>
  <outline>
    <contour>
      <point x="697.912" y="613.697" type="line"/>
      <point x="413.943" y="48.95" type="line"/>
      <point x="427.969" y="-14" type="line"/>
      <point x="437.76" y="-14" type="line"/>
      <point x="444.637" y="27.387"/>
      <point x="473.317" y="88.109"/>
      <point x="473.317" y="88.109" type="curve"/>
      <point x="706.885" y="548.912" type="line"/>
    </contour>
    <contour>
      <point x="111.576" y="66.704" type="line"/>
      <point x="91.439" y="66.704" type="line"/>
      <point x="86.633" y="30.921"/>
      <point x="56.547" y="9.991"/>
      <point x="22.958" y="9.991" type="curve" smooth="yes"/>
      <point x="22.852" y="9.991"/>
      <point x="8.087" y="10"/>
      <point x="8" y="10" type="curve"/>
      <point x="8" y="0" type="line"/>
      <point x="111.576" y="0" type="line"/>
    </contour>
    <contour>
      <point x="142.458" y="52.12" type="curve"/>
      <point x="135.792" y="52.12" type="line"/>
      <point x="135.792" y="0.006" type="line"/>
      <point x="193.495" y="0.006" type="line"/>
      <point x="193.495" y="9.451" type="line"/>
      <point x="178.855" y="9.451" type="line" smooth="yes"/>
      <point x="150.183" y="9.509"/>
      <point x="140.313" y="32.496"/>
    </contour>
    <contour>
      <point x="168.819" y="614" type="line"/>
      <point x="82.01" y="0" type="line"/>
      <point x="136.602" y="0" type="line"/>
      <point x="198.765" y="554.713" type="line"/>
      <point x="178.643" y="614" type="line"/>
    </contour>
    <contour>
      <point x="178.643" y="614" type="line"/>
      <point x="159.605" y="503.692" type="line"/>
      <point x="427.972" y="-14" type="line"/>
      <point x="450.718" y="90.642" type="line"/>
    </contour>
    <contour>
      <point x="707.411" y="613.697" type="line"/>
      <point x="697.912" y="613.697" type="line"/>
      <point x="656.176" y="502.769" type="line"/>
      <point x="720.627" y="0" type="line"/>
      <point x="797.03" y="0" type="line"/>
    </contour>
    <contour>
      <point x="767.169" y="66.704" type="line"/>
      <point x="767.169" y="0" type="line"/>
      <point x="870.745" y="0" type="line"/>
      <point x="870.745" y="10" type="line"/>
      <point x="870.638" y="10"/>
      <point x="855.894" y="9.991"/>
      <point x="855.787" y="9.991" type="curve" smooth="yes"/>
      <point x="822.178" y="9.991"/>
      <point x="792.073" y="30.921"/>
      <point x="787.286" y="66.704" type="curve"/>
    </contour>
    <contour>
      <point x="714.017" y="52.12" type="line"/>
      <point x="716.113" y="32.907"/>
      <point x="708.231" y="9.513"/>
      <point x="677.62" y="9.451" type="curve" smooth="yes"/>
      <point x="662.979" y="9.451" type="line"/>
      <point x="662.979" y="0.006" type="line"/>
      <point x="720.682" y="0.006" type="line"/>
      <point x="720.682" y="52.12" type="line"/>
    </contour>
  </outline>
</glyph>
<glyph name="n" format="2">
  <advance width="779"/>
  <unicode hex="006E"/>
  <anchor x="398.013" y="-64" name="bottom"/>
  <anchor x="388.013" y="664" name="top"/>
  <outline>
    <contour>
      <point x="108.143" y="614.952" type="line"/>
      <point x="117.915" y="510.837" type="line"/>
      <point x="671.681" y="-14" type="line"/>
      <point x="662.163" y="92.808" type="line"/>
    </contour>
    <contour>
      <point x="109.981" y="62.232" type="line"/>
      <point x="107.467" y="62.232" type="line"/>
      <point x="106.885" y="33.29"/>
      <point x="82.215" y="9.981"/>
      <point x="51.795" y="9.981" type="curve" smooth="yes"/>
      <point x="51.654" y="9.981"/>
      <point x="35.281" y="9.994"/>
      <point x="35.143" y="10" type="curve"/>
      <point x="35" y="0" type="line"/>
      <point x="109.981" y="0" type="line"/>
    </contour>
    <contour>
      <point x="151.588" y="62.232" type="curve"/>
      <point x="149.053" y="62.232" type="line"/>
      <point x="149.053" y="0" type="line"/>
      <point x="224.034" y="0" type="line"/>
      <point x="223.917" y="10" type="line"/>
      <point x="223.775" y="9.994"/>
      <point x="207.402" y="9.981"/>
      <point x="207.263" y="9.981" type="curve" smooth="yes"/>
      <point x="176.843" y="9.981"/>
      <point x="152.149" y="33.29"/>
    </contour>
    <contour>
      <point x="108.247" y="615" type="line"/>
      <point x="97.895" y="614.991" type="line"/>
      <point x="97.895" y="614.991"/>
      <point x="107.476" y="558.335"/>
      <point x="107.476" y="490.069" type="curve" smooth="yes"/>
      <point x="107.476" y="0" type="line"/>
      <point x="151.645" y="0" type="line"/>
      <point x="150.884" y="558.772" type="line"/>
    </contour>
    <contour>
      <point x="671.712" y="600.019" type="line"/>
      <point x="627.566" y="600.019" type="line"/>
      <point x="627.59" y="39.152" type="line"/>
      <point x="671.681" y="-14" type="line"/>
      <point x="681.198" y="-14" type="line" smooth="yes"/>
      <point x="681.198" y="-14"/>
      <point x="671.712" y="49.151"/>
      <point x="671.712" y="113.582" type="curve" smooth="yes"/>
    </contour>
    <contour>
      <point x="669.084" y="537.787" type="line"/>
      <point x="671.622" y="537.787" type="line"/>
      <point x="672.177" y="566.729"/>
      <point x="696.875" y="590.038"/>
      <point x="727.294" y="590.038" type="curve" smooth="yes"/>
      <point x="727.435" y="590.038"/>
      <point x="743.784" y="590.025"/>
      <point x="743.923" y="590.019" type="curve"/>
      <point x="744.065" y="600.019" type="line"/>
      <point x="669.084" y="600.019" type="line"/>
    </contour>
    <contour>
      <point x="627.666" y="537.787" type="curve"/>
      <point x="630.177" y="537.787" type="line"/>
      <point x="630.177" y="600.019" type="line"/>
      <point x="555.196" y="600.019" type="line"/>
      <point x="555.338" y="590.019" type="line"/>
      <point x="555.478" y="590.025"/>
      <point x="571.829" y="590.038"/>
      <point x="571.968" y="590.038" type="curve" smooth="yes"/>
      <point x="602.385" y="590.038"/>
      <point x="627.081" y="566.729"/>
    </contour>
  </outline>
</glyph>
<glyph name="o" format="2">
  <advance width="774"/>
  <unicode hex="006F"/>
  <anchor x="387" y="664" name="top"/>
  <outline>
    <contour>
      <point x="387" y="614" type="curve" smooth="yes"/>
      <point x="201" y="614"/>
      <point x="50" y="486"/>
      <point x="50" y="299.992" type="curve" smooth="yes"/>
      <point x="50" y="114"/>
      <point x="201" y="-14"/>
      <point x="387" y="-14" type="curve" smooth="yes"/>
      <point x="574" y="-14"/>
      <point x="725" y="114"/>
      <point x="725" y="300" type="curve" smooth="yes"/>
      <point x="725" y="486"/>
      <point x="574" y="614"/>
    </contour>
    <contour>
      <point x="387" y="16" type="curve" smooth="yes"/>
      <point x="240" y="16"/>
      <point x="124" y="131"/>
      <point x="124" y="300" type="curve" smooth="yes"/>
      <point x="124" y="469"/>
      <point x="240" y="584"/>
      <point x="387" y="584" type="curve" smooth="yes"/>
      <point x="535" y="584"/>
      <point x="651" y="469"/>
      <point x="651" y="300" type="curve" smooth="yes"/>
      <point x="651" y="131"/>
      <point x="535" y="16"/>
    </contour>
  </outline>
</glyph>
<glyph name="p" format="2">
  <advance width="553"/>
  <unicode hex="0070"/>
  <outline>
    <contour>
      <point x="177.964" y="600" type="line" smooth="yes"/>
      <point x="177.964" y="600"/>
      <point x="188.963" y="570"/>
      <point x="188.963" y="570" type="curve"/>
      <point x="287.282" y="570" type="line"/>
      <point x="385.261" y="570"/>
      <point x="445.152" y="520.268"/>
      <point x="445" y="439" type="curve" smooth="yes"/>
      <point x="444.968" y="421.824"/>
      <point x="442.905" y="399.057"/>
      <point x="438" y="385" type="curve" smooth="yes"/>
      <point x="388.011" y="241.75"/>
      <point x="229.059" y="283.866"/>
      <point x="229.013" y="283.866" type="curve"/>
      <point x="229.103" y="274.416" type="line"/>
      <point x="364.999" y="208.283"/>
      <point x="516.594" y="276.579"/>
      <point x="517" y="429" type="curve" smooth="yes"/>
      <point x="517.283" y="535.102"/>
      <point x="428.082" y="600"/>
      <point x="288.622" y="600" type="curve" smooth="yes"/>
    </contour>
    <contour>
      <point x="190.503" y="600" type="line"/>
      <point x="126.68" y="600" type="line"/>
      <point x="126.68" y="0" type="line"/>
      <point x="190.503" y="0" type="line"/>
    </contour>
    <contour>
      <point x="129.407" y="64.193" type="line"/>
      <point x="126.709" y="64.193" type="line"/>
      <point x="126.07" y="34.163"/>
      <point x="101.445" y="9.979"/>
      <point x="68.659" y="9.979" type="curve" smooth="yes"/>
      <point x="68.579" y="9.979"/>
      <point x="54.946" y="10"/>
      <point x="54.86" y="10" type="curve"/>
      <point x="54.678" y="0" type="line"/>
      <point x="141.849" y="0" type="line"/>
    </contour>
    <contour>
      <point x="129.384" y="537.186" type="line"/>
      <point x="141.825" y="600" type="line"/>
      <point x="54.656" y="600" type="line"/>
      <point x="54.839" y="590" type="line"/>
      <point x="54.879" y="590"/>
      <point x="68.557" y="590.02"/>
      <point x="68.637" y="590.02" type="curve" smooth="yes"/>
      <point x="101.422" y="590.02"/>
      <point x="126.047" y="567.216"/>
      <point x="126.64" y="537.186" type="curve"/>
    </contour>
    <contour>
      <point x="187.744" y="64.193" type="line"/>
      <point x="175.302" y="0" type="line"/>
      <point x="262.473" y="0" type="line"/>
      <point x="262.291" y="10" type="line"/>
      <point x="262.205" y="10"/>
      <point x="248.568" y="9.979"/>
      <point x="248.493" y="9.979" type="curve" smooth="yes"/>
      <point x="215.564" y="9.979"/>
      <point x="191.081" y="34.163"/>
      <point x="190.488" y="64.193" type="curve"/>
    </contour>
  </outline>
</glyph>
<glyph name="q" format="2">
  <advance width="777"/>
  <unicode hex="0071"/>
  <outline>
    <contour>
      <point x="380.701" y="614" type="curve" smooth="yes"/>
      <point x="197.574" y="614"/>
      <point x="49.978" y="485.836"/>
      <point x="49.978" y="299.992" type="curve" smooth="yes"/>
      <point x="49.978" y="114.156"/>
      <point x="197.574" y="-14"/>
      <point x="380.701" y="-14" type="curve" smooth="yes"/>
      <point x="563.812" y="-14"/>
      <point x="711.409" y="114.156"/>
      <point x="711.409" y="299.992" type="curve" smooth="yes"/>
      <point x="711.409" y="485.836"/>
      <point x="563.812" y="614"/>
    </contour>
    <contour>
      <point x="380.701" y="15.925" type="curve" smooth="yes"/>
      <point x="237.085" y="15.925"/>
      <point x="123.859" y="130.914"/>
      <point x="123.859" y="299.992" type="curve" smooth="yes"/>
      <point x="123.859" y="469.078"/>
      <point x="237.085" y="584.075"/>
      <point x="380.701" y="584.075" type="curve" smooth="yes"/>
      <point x="524.303" y="584.075"/>
      <point x="637.529" y="469.078"/>
      <point x="637.529" y="299.992" type="curve" smooth="yes"/>
      <point x="637.529" y="130.914"/>
      <point x="524.303" y="15.925"/>
    </contour>
    <contour>
      <point x="379.464" y="-13" type="line"/>
      <point x="498.77" y="-34"/>
      <point x="644.112" y="-129"/>
      <point x="752" y="-174" type="curve" smooth="yes"/>
      <point x="1004.57" y="-281"/>
      <point x="1173.07" y="-132"/>
      <point x="1194.12" y="-78" type="curve"/>
      <point x="1190.78" y="-74" type="line"/>
      <point x="1081.16" y="-174"/>
      <point x="890.909" y="-167"/>
      <point x="758" y="-114" type="curve" smooth="yes"/>
      <point x="581.61" y="-44"/>
      <point x="440.289" y="8.964"/>
      <point x="388.9" y="8.964" type="curve"/>
    </contour>
  </outline>
</glyph>
<glyph name="r" format="2">
  <advance width="627"/>
  <unicode hex="0072"/>
  <anchor x="367.348" y="-64" name="bottom"/>
  <anchor x="302.348" y="664" name="top"/>
  <outline>
    <contour>
      <point x="176.684" y="600" type="line" smooth="yes"/>
      <point x="176.684" y="600"/>
      <point x="187.433" y="570.736"/>
      <point x="187.366" y="569.211" type="curve" smooth="yes"/>
      <point x="186.892" y="567.686"/>
      <point x="241.116" y="571.181"/>
      <point x="304" y="568" type="curve" smooth="yes"/>
      <point x="384.46" y="563.929"/>
      <point x="434.893" y="519.915"/>
      <point x="437" y="445" type="curve" smooth="yes"/>
      <point x="437.616" y="423.084"/>
      <point x="434.784" y="402.019"/>
      <point x="430" y="388" type="curve" smooth="yes"/>
      <point x="401.317" y="303.942"/>
      <point x="338.306" y="303.403"/>
      <point x="283" y="302" type="curve" smooth="yes"/>
      <point x="250.301" y="301.171"/>
      <point x="225.624" y="301.594"/>
      <point x="225.658" y="301.594" type="curve"/>
      <point x="225.658" y="292.34" type="line"/>
      <point x="265.23" y="292.34"/>
      <point x="299.922" y="258.927"/>
      <point x="327" y="225" type="curve" smooth="yes"/>
      <point x="334.833" y="215.186"/>
      <point x="413.685" y="101.597"/>
      <point x="425" y="88" type="curve" smooth="yes"/>
      <point x="456.369" y="50.306"/>
      <point x="500.027" y="0"/>
      <point x="610.66" y="0" type="curve" smooth="yes"/>
      <point x="642.165" y="0" type="line"/>
      <point x="642.165" y="10.028" type="line"/>
      <point x="586.701" y="10.499"/>
      <point x="558.703" y="40.374"/>
      <point x="518" y="86" type="curve" smooth="yes"/>
      <point x="476.655" y="132.346"/>
      <point x="430.346" y="195.026"/>
      <point x="430.51" y="195.026" type="curve" smooth="yes"/>
      <point x="409.084" y="225.393"/>
      <point x="375.298" y="263.492"/>
      <point x="353.476" y="273.391" type="curve"/>
      <point x="443.225" y="282.391"/>
      <point x="508.963" y="353.255"/>
      <point x="508.963" y="438.063" type="curve" smooth="yes"/>
      <point x="508.963" y="539.084"/>
      <point x="431.725" y="600"/>
      <point x="305.657" y="600" type="curve" smooth="yes"/>
    </contour>
    <contour>
      <point x="189.016" y="600" type="line"/>
      <point x="125.49" y="600" type="line"/>
      <point x="125.49" y="0" type="line"/>
      <point x="189.016" y="0" type="line"/>
    </contour>
    <contour>
      <point x="128.182" y="64.193" type="line"/>
      <point x="125.534" y="64.193" type="line"/>
      <point x="124.914" y="34.163"/>
      <point x="100.793" y="9.979"/>
      <point x="68.694" y="9.979" type="curve" smooth="yes"/>
      <point x="68.595" y="9.979"/>
      <point x="55.303" y="10"/>
      <point x="55.198" y="10" type="curve"/>
      <point x="55.022" y="0" type="line"/>
      <point x="140.245" y="0" type="line"/>
    </contour>
    <contour>
      <point x="128.16" y="537.186" type="line"/>
      <point x="140.222" y="600" type="line"/>
      <point x="55" y="600" type="line"/>
      <point x="55.178" y="590" type="line"/>
      <point x="55.282" y="590"/>
      <point x="68.575" y="590.02"/>
      <point x="68.674" y="590.02" type="curve" smooth="yes"/>
      <point x="100.771" y="590.02"/>
      <point x="124.893" y="567.216"/>
      <point x="125.512" y="537.186" type="curve"/>
    </contour>
    <contour>
      <point x="186.334" y="64.193" type="line"/>
      <point x="174.27" y="0" type="line"/>
      <point x="259.528" y="0" type="line"/>
      <point x="259.351" y="10" type="line"/>
      <point x="259.247" y="10"/>
      <point x="245.917" y="9.979"/>
      <point x="245.821" y="9.979" type="curve" smooth="yes"/>
      <point x="213.652" y="9.979"/>
      <point x="189.635" y="34.163"/>
      <point x="189.016" y="64.193" type="curve"/>
    </contour>
  </outline>
</glyph>
<glyph name="s" format="2">
  <advance width="462"/>
  <unicode hex="0073"/>
  <anchor x="229.058" y="-64" name="bottom"/>
  <anchor x="232.269" y="664" name="top"/>
  <outline>
    <contour>
      <point x="234.103" y="614" type="curve" smooth="yes"/>
      <point x="141.529" y="614"/>
      <point x="67.571" y="549.254"/>
      <point x="68.766" y="468" type="curve" smooth="yes"/>
      <point x="69.276" y="433.288"/>
      <point x="79.315" y="391.732"/>
      <point x="116.542" y="359.935" type="curve" smooth="yes"/>
      <point x="316.587" y="205.577" type="line" smooth="yes"/>
      <point x="342.353" y="183.016"/>
      <point x="353.016" y="157.567"/>
      <point x="353.016" y="126.431" type="curve" smooth="yes"/>
      <point x="353.016" y="61.441"/>
      <point x="302.431" y="18.352"/>
      <point x="219.766" y="16" type="curve" smooth="yes"/>
      <point x="131.532" y="13.489"/>
      <point x="70.871" y="67.188"/>
      <point x="79.712" y="157.282" type="curve"/>
      <point x="68.186" y="157.282" type="line"/>
      <point x="54.53" y="118.629"/>
      <point x="51.963" y="59.716"/>
      <point x="58.266" y="33.102" type="curve"/>
      <point x="94.692" y="0.448"/>
      <point x="171.502" y="-14"/>
      <point x="230.766" y="-14" type="curve" smooth="yes"/>
      <point x="329.451" y="-14"/>
      <point x="408.558" y="57.775"/>
      <point x="407.766" y="147" type="curve" smooth="yes"/>
      <point x="407.421" y="185.885"/>
      <point x="393.308" y="228.547"/>
      <point x="362.489" y="254.436" type="curve" smooth="yes"/>
      <point x="160.077" y="410.249" type="line" smooth="yes"/>
      <point x="128.716" y="435.443"/>
      <point x="120.951" y="463.293"/>
      <point x="120.766" y="489" type="curve" smooth="yes"/>
      <point x="120.383" y="542.161"/>
      <point x="174.161" y="584.385"/>
      <point x="240.947" y="584.385" type="curve" smooth="yes"/>
      <point x="319.414" y="584.385"/>
      <point x="356.492" y="551.372"/>
      <point x="356.492" y="495.96" type="curve"/>
      <point x="367.946" y="495.96" type="line"/>
      <point x="366.596" y="594.508" type="line"/>
      <point x="343.119" y="603.266"/>
      <point x="308.406" y="614"/>
    </contour>
    <contour>
      <point x="366.443" y="604.742" type="line"/>
      <point x="296.472" y="604.742" type="line"/>
      <point x="296.472" y="587.274" type="line"/>
      <point x="366.656" y="587.274" type="line"/>
    </contour>
  </outline>
</glyph>
<glyph name="u" format="2">
  <advance width="700"/>
  <unicode hex="0075"/>
  <anchor x="337.313" y="-10.369" name="ogonek"/>
  <anchor x="350.565" y="664" name="top"/>
  <outline>
    <contour>
      <point x="166.835" y="600" type="line"/>
      <point x="102.948" y="600" type="line"/>
      <point x="102.86" y="209.79" type="line" smooth="yes"/>
      <point x="102.829" y="71.04"/>
      <point x="198.524" y="-14"/>
      <point x="352.954" y="-14" type="curve" smooth="yes"/>
      <point x="507.315" y="-14"/>
      <point x="602.233" y="71.611"/>
      <point x="602.245" y="211.293" type="curve" smooth="yes"/>
      <point x="602.282" y="599.979" type="line"/>
      <point x="556.033" y="599.979" type="line"/>
      <point x="555.757" y="211.344" type="line" smooth="yes"/>
      <point x="555.699" y="88.465"/>
      <point x="478.239" y="13.151"/>
      <point x="352.105" y="13.151" type="curve" smooth="yes"/>
      <point x="237.256" y="13.151"/>
      <point x="166.777" y="92.688"/>
      <point x="166.777" y="222.459" type="curve"/>
    </contour>
    <contour>
      <point x="105.106" y="600" type="line"/>
      <point x="40" y="600" type="line"/>
      <point x="40" y="590" type="line"/>
      <point x="40.121" y="590"/>
      <point x="54.718" y="590.017"/>
      <point x="54.837" y="590.017" type="curve" smooth="yes"/>
      <point x="81.113" y="590.017"/>
      <point x="102.414" y="571.496"/>
      <point x="102.92" y="546.706" type="curve"/>
      <point x="105.106" y="546.706" type="line"/>
    </contour>
    <contour>
      <point x="229.801" y="600" type="line"/>
      <point x="164.697" y="600" type="line"/>
      <point x="164.697" y="546.706" type="line"/>
      <point x="166.881" y="546.706" type="line"/>
      <point x="167.388" y="571.496"/>
      <point x="188.719" y="590.017"/>
      <point x="214.993" y="590.017" type="curve" smooth="yes"/>
      <point x="215.113" y="590.017"/>
      <point x="229.682" y="590"/>
      <point x="229.801" y="590" type="curve"/>
    </contour>
    <contour>
      <point x="558.198" y="600" type="line"/>
      <point x="493.092" y="600" type="line"/>
      <point x="493.092" y="590" type="line"/>
      <point x="493.214" y="590"/>
      <point x="507.811" y="590.017"/>
      <point x="507.93" y="590.017" type="curve" smooth="yes"/>
      <point x="534.206" y="590.017"/>
      <point x="555.537" y="571.496"/>
      <point x="556.014" y="546.706" type="curve"/>
      <point x="558.198" y="546.706" type="line"/>
    </contour>
    <contour>
      <point x="665.159" y="600" type="line"/>
      <point x="600.052" y="600" type="line"/>
      <point x="600.052" y="546.706" type="line"/>
      <point x="602.237" y="546.706" type="line"/>
      <point x="602.743" y="571.496"/>
      <point x="624.046" y="590.017"/>
      <point x="650.32" y="590.017" type="curve" smooth="yes"/>
      <point x="650.44" y="590.017"/>
      <point x="665.038" y="590"/>
      <point x="665.159" y="590" type="curve"/>
    </contour>
  </outline>
</glyph>
<glyph name="v" format="2">
  <advance width="663"/>
  <unicode hex="0076"/>
  <outline>
    <contour>
      <point x="326.688" y="-14" type="line"/>
      <point x="343.936" y="75" type="line"/>
      <point x="130.887" y="593.905" type="line"/>
      <point x="51.62" y="593.905" type="line"/>
    </contour>
    <contour>
      <point x="326.688" y="-14" type="line"/>
      <point x="336.148" y="-14" type="line"/>
      <point x="338.217" y="12.16"/>
      <point x="374.909" y="89"/>
      <point x="374.626" y="89" type="curve"/>
      <point x="611.884" y="596.905" type="line"/>
      <point x="549.217" y="596.905" type="line"/>
      <point x="320.216" y="55" type="line"/>
    </contour>
    <contour>
      <point x="519.813" y="527.319" type="curve"/>
      <point x="579.174" y="526.987" type="line"/>
      <point x="599.558" y="571.536"/>
      <point x="632.352" y="590"/>
      <point x="660.065" y="590" type="curve" smooth="yes"/>
      <point x="660.065" y="590"/>
      <point x="668.018" y="590"/>
      <point x="668.018" y="590" type="curve"/>
      <point x="668.018" y="600" type="line"/>
      <point x="477.523" y="600" type="line"/>
      <point x="477.523" y="590.092" type="line"/>
      <point x="485.452" y="590.092" type="line" smooth="yes"/>
      <point x="508.798" y="590.092"/>
      <point x="535.083" y="567.336"/>
    </contour>
    <contour>
      <point x="158.096" y="527.319" type="line"/>
      <point x="143.821" y="567.336"/>
      <point x="169.084" y="590.09"/>
      <point x="192.43" y="590.09" type="curve" smooth="yes"/>
      <point x="200.385" y="590.09" type="line"/>
      <point x="200.385" y="600" type="line"/>
      <point x="-5" y="600" type="line"/>
      <point x="-5" y="590" type="line"/>
      <point x="-5" y="590"/>
      <point x="2.557" y="590"/>
      <point x="2.557" y="590" type="curve" smooth="yes"/>
      <point x="30.27" y="590"/>
      <point x="61.619" y="571.536"/>
      <point x="82.004" y="526.987" type="curve"/>
    </contour>
  </outline>
</glyph>
<glyph name="w" format="2">
  <advance width="899"/>
  <unicode hex="0077"/>
  <anchor x="463.149" y="665.642" name="top"/>
  <outline>
    <contour>
      <point x="57.036" y="593.96" type="line"/>
      <point x="289.586" y="-12" type="line"/>
      <point x="298.655" y="100.962" type="line"/>
      <point x="137.062" y="593.934" type="line"/>
    </contour>
    <contour>
      <point x="467.907" y="615.642" type="line"/>
      <point x="458.437" y="615.642" type="line"/>
      <point x="271.115" y="76.784" type="line"/>
      <point x="289.586" y="-12" type="line"/>
      <point x="299.368" y="-12" type="line"/>
      <point x="301.1" y="37.149"/>
      <point x="321.002" y="99.156"/>
      <point x="321.002" y="99.156" type="curve"/>
      <point x="476.08" y="534.818" type="line"/>
    </contour>
    <contour>
      <point x="468.108" y="615.321" type="line"/>
      <point x="434.161" y="507.38" type="line"/>
      <point x="637.011" y="-12" type="line"/>
      <point x="659.559" y="125.554" type="line"/>
    </contour>
    <contour>
      <point x="836.458" y="594.217" type="line"/>
      <point x="778.702" y="594.217" type="line"/>
      <point x="624.936" y="86.933" type="line"/>
      <point x="637.011" y="-12" type="line"/>
      <point x="646.792" y="-12" type="line"/>
      <point x="648.513" y="35.624"/>
      <point x="669.593" y="99.156"/>
      <point x="669.593" y="99.156" type="curve"/>
    </contour>
    <contour>
      <point x="759.042" y="529.504" type="curve"/>
      <point x="814.619" y="529.504" type="line"/>
      <point x="827.254" y="564.792"/>
      <point x="854.702" y="590"/>
      <point x="896.546" y="590" type="curve" smooth="yes"/>
      <point x="896.546" y="590"/>
      <point x="904.391" y="590"/>
      <point x="904.391" y="590" type="curve"/>
      <point x="904.391" y="600" type="line"/>
      <point x="721.11" y="600" type="line"/>
      <point x="721.11" y="590.092" type="line"/>
      <point x="728.956" y="590.092" type="line" smooth="yes"/>
      <point x="750.298" y="590.092"/>
      <point x="773.127" y="572.508"/>
    </contour>
    <contour>
      <point x="157.603" y="530.778" type="line"/>
      <point x="143.61" y="573.782"/>
      <point x="168.462" y="590.092"/>
      <point x="189.84" y="590.092" type="curve" smooth="yes"/>
      <point x="197.668" y="590.092" type="line"/>
      <point x="197.668" y="600" type="line"/>
      <point x="-8" y="600" type="line"/>
      <point x="-8" y="590" type="line"/>
      <point x="-8" y="590"/>
      <point x="0.289" y="590"/>
      <point x="0.289" y="590" type="curve" smooth="yes"/>
      <point x="41.689" y="590"/>
      <point x="69.21" y="564.792"/>
      <point x="81.789" y="529.504" type="curve"/>
    </contour>
  </outline>
</glyph>
<glyph name="x" format="2">
  <advance width="626"/>
  <unicode hex="0078"/>
  <outline>
    <contour>
      <point x="151.559" y="598.976" type="line"/>
      <point x="73.359" y="598.976" type="line"/>
      <point x="488.45" y="1" type="line"/>
      <point x="568.759" y="1" type="line"/>
    </contour>
    <contour>
      <point x="161.71" y="63.642" type="curve"/>
      <point x="98.497" y="60.813" type="line"/>
      <point x="77.197" y="34.199"/>
      <point x="42.138" y="10"/>
      <point x="1.719" y="10" type="curve" smooth="yes"/>
      <point x="-11" y="10" type="line"/>
      <point x="-11" y="0" type="line"/>
      <point x="207.285" y="0" type="line"/>
      <point x="207.285" y="10" type="line"/>
      <point x="207.285" y="10"/>
      <point x="195.221" y="10"/>
      <point x="195.221" y="10" type="curve" smooth="yes"/>
      <point x="169.07" y="10"/>
      <point x="143.77" y="39.171"/>
    </contour>
    <contour>
      <point x="295.624" y="313.403" type="line"/>
      <point x="51.743" y="1" type="line"/>
      <point x="115.362" y="1" type="line"/>
      <point x="316.158" y="272.431" type="line"/>
    </contour>
    <contour>
      <point x="445.366" y="63.084" type="line"/>
      <point x="461.406" y="38.614"/>
      <point x="437.975" y="10"/>
      <point x="411.825" y="10" type="curve" smooth="yes"/>
      <point x="411.825" y="10"/>
      <point x="399.762" y="10"/>
      <point x="399.762" y="10" type="curve"/>
      <point x="399.762" y="0" type="line"/>
      <point x="636.981" y="0" type="line"/>
      <point x="636.981" y="10" type="line"/>
      <point x="623.926" y="10" type="line" smooth="yes"/>
      <point x="583.699" y="10"/>
      <point x="546.713" y="33.667"/>
      <point x="527.339" y="60.281" type="curve"/>
    </contour>
    <contour>
      <point x="240.462" y="600" type="line"/>
      <point x="5.016" y="600" type="line"/>
      <point x="5.016" y="590" type="line"/>
      <point x="17.923" y="590" type="line" smooth="yes"/>
      <point x="58.18" y="590"/>
      <point x="95.081" y="566.333"/>
      <point x="114.51" y="539.719" type="curve"/>
      <point x="194.857" y="536.916" type="line"/>
      <point x="178.817" y="561.386"/>
      <point x="202.25" y="590"/>
      <point x="228.4" y="590" type="curve" smooth="yes"/>
      <point x="228.4" y="590"/>
      <point x="240.462" y="590"/>
      <point x="240.462" y="590" type="curve"/>
    </contour>
    <contour>
      <point x="553.152" y="598.981" type="line"/>
      <point x="485.163" y="598.981" type="line"/>
      <point x="314.525" y="344.589" type="line"/>
      <point x="340.335" y="302.952" type="line"/>
    </contour>
    <contour>
      <point x="619.812" y="600" type="line"/>
      <point x="397.59" y="600" type="line"/>
      <point x="397.59" y="590" type="line"/>
      <point x="397.59" y="590"/>
      <point x="409.652" y="590"/>
      <point x="409.652" y="590" type="curve" smooth="yes"/>
      <point x="435.804" y="590"/>
      <point x="459.078" y="560.829"/>
      <point x="443.165" y="536.359" type="curve"/>
      <point x="510.162" y="539.187" type="line"/>
      <point x="530.493" y="566.801"/>
      <point x="566.157" y="590"/>
      <point x="606.383" y="590" type="curve" smooth="yes"/>
      <point x="619.812" y="590" type="line"/>
    </contour>
  </outline>
</glyph>
<glyph name="y" format="2">
  <advance width="640"/>
  <unicode hex="0079"/>
  <anchor x="333" y="664" name="top"/>
  <outline>
    <contour>
      <point x="149" y="599" type="line"/>
      <point x="62" y="599" type="line"/>
      <point x="293" y="235" type="line"/>
      <point x="334" y="270" type="line"/>
    </contour>
    <contour>
      <point x="349" y="258" type="line"/>
      <point x="284" y="258" type="line"/>
      <point x="284" y="0" type="line"/>
      <point x="349" y="0" type="line"/>
    </contour>
    <contour>
      <point x="517" y="599" type="line"/>
      <point x="305" y="248" type="line"/>
      <point x="342" y="237" type="line"/>
      <point x="580" y="599" type="line"/>
    </contour>
    <contour>
      <point x="479" y="536" type="curve"/>
      <point x="542" y="539" type="line"/>
      <point x="561" y="566"/>
      <point x="595" y="590"/>
      <point x="633" y="590" type="curve" smooth="yes"/>
      <point x="645" y="590" type="line"/>
      <point x="645" y="600" type="line"/>
      <point x="436" y="600" type="line"/>
      <point x="436" y="590" type="line"/>
      <point x="436" y="590"/>
      <point x="448" y="590"/>
      <point x="448" y="590" type="curve" smooth="yes"/>
      <point x="477" y="590"/>
      <point x="494" y="563"/>
    </contour>
    <contour>
      <point x="184" y="537" type="line"/>
      <point x="171" y="561"/>
      <point x="186" y="590"/>
      <point x="215" y="590" type="curve" smooth="yes"/>
      <point x="215" y="590"/>
      <point x="227" y="590"/>
      <point x="227" y="590" type="curve"/>
      <point x="227" y="600" type="line"/>
      <point x="-5" y="600" type="line"/>
      <point x="-5" y="590" type="line"/>
      <point x="7" y="590" type="line" smooth="yes"/>
      <point x="45" y="590"/>
      <point x="78" y="570"/>
      <point x="99" y="540" type="curve"/>
    </contour>
    <contour>
      <point x="287" y="64" type="line"/>
      <point x="284" y="64" type="line"/>
      <point x="283" y="34"/>
      <point x="258" y="10"/>
      <point x="226" y="10" type="curve" smooth="yes"/>
      <point x="226" y="10"/>
      <point x="215" y="10"/>
      <point x="214" y="10" type="curve"/>
      <point x="214" y="0" type="line"/>
      <point x="287" y="0" type="line"/>
    </contour>
    <contour>
      <point x="346" y="64" type="line"/>
      <point x="346" y="0" type="line"/>
      <point x="419" y="0" type="line"/>
      <point x="419" y="10" type="line"/>
      <point x="419" y="10"/>
      <point x="407" y="10"/>
      <point x="407" y="10" type="curve" smooth="yes"/>
      <point x="375" y="10"/>
      <point x="350" y="34"/>
      <point x="349" y="64" type="curve"/>
    </contour>
  </outline>
</glyph>
<glyph name="z" format="2">
  <advance width="608"/>
  <unicode hex="007A"/>
  <anchor x="299.771" y="664" name="top"/>
  <outline>
    <contour>
      <point x="519.595" y="614" type="curve"/>
      <point x="507.005" y="607.817"/>
      <point x="449.441" y="601.098"/>
      <point x="406.511" y="601.098" type="curve"/>
      <point x="65.309" y="600.737" type="line"/>
      <point x="65.309" y="570.856" type="line"/>
      <point x="422.902" y="570.855" type="line"/>
      <point x="50.201" y="9.322" type="line"/>
      <point x="50" y="0" type="line"/>
      <point x="119.714" y="0" type="line"/>
      <point x="519.595" y="605.328" type="line"/>
      <point x="519.595" y="605.33"/>
      <point x="519.595" y="614"/>
    </contour>
    <contour>
      <point x="528.791" y="30" type="line"/>
      <point x="114.595" y="30" type="line"/>
      <point x="114.595" y="0" type="line"/>
      <point x="522.245" y="0" type="line"/>
    </contour>
    <contour>
      <point x="583.29" y="142.867" type="line"/>
      <point x="572.608" y="142.867" type="line"/>
      <point x="544.373" y="77.231"/>
      <point x="509.842" y="30.978"/>
      <point x="412.564" y="29.978" type="curve"/>
      <point x="379.367" y="0" type="line"/>
      <point x="529.343" y="0" type="line"/>
    </contour>
    <contour>
      <point x="65.309" y="573.217" type="line"/>
      <point x="65.309" y="503.992" type="line"/>
      <point x="76.031" y="504.121" type="line"/>
      <point x="76.01" y="519.487" type="line" smooth="yes"/>
      <point x="76.01" y="547.57"/>
      <point x="95.647" y="570.357"/>
      <point x="126.007" y="570.883" type="curve"/>
      <point x="126.007" y="573.217" type="line"/>
    </contour>
    <contour>
      <point x="65.309" y="616.533" type="curve"/>
      <point x="65.309" y="591.294" type="line"/>
      <point x="177.098" y="600.844" type="line"/>
      <point x="137.341" y="601.844"/>
      <point x="82.693" y="609.649"/>
    </contour>
  </outline>
</glyph>
<glyph name="braceleft" format="2">
  <advance width="337"/>
  <unicode hex="007B"/>
  <outline>
    <contour>
      <point x="137.75" y="339.841" type="curve"/>
      <point x="130.167" y="324.718"/>
      <point x="102.583" y="324.595"/>
      <point x="85" y="324.472" type="curve"/>
      <point x="85" y="314.472" type="line"/>
      <point x="101.688" y="312.82"/>
      <point x="127.781" y="308.93"/>
      <point x="135.065" y="291.515" type="curve" smooth="yes"/>
      <point x="145.688" y="266.119"/>
      <point x="123.781" y="181.503"/>
      <point x="124.462" y="115.831" type="curve" smooth="yes"/>
      <point x="125.72" y="-5"/>
      <point x="174.716" y="-100"/>
      <point x="295.881" y="-100" type="curve"/>
      <point x="297.566" y="-92" type="line"/>
      <point x="204.818" y="-68"/>
      <point x="190.54" y="5.894"/>
      <point x="189.462" y="115.831" type="curve" smooth="yes"/>
      <point x="188.633" y="200.427"/>
      <point x="208.927" y="300.547"/>
      <point x="140.571" y="316.39" type="curve"/>
      <point x="207.158" y="335.868"/>
      <point x="188.593" y="428.261"/>
      <point x="189.462" y="516.949" type="curve" smooth="yes"/>
      <point x="190.539" y="626.886"/>
      <point x="204.818" y="700.78"/>
      <point x="297.566" y="724.78" type="curve"/>
      <point x="295.881" y="732.78" type="line"/>
      <point x="174.716" y="732.78"/>
      <point x="125.72" y="638.185"/>
      <point x="124.462" y="516.949" type="curve" smooth="yes"/>
      <point x="123.78" y="451.277"/>
      <point x="148.373" y="365.237"/>
    </contour>
  </outline>
</glyph>
<glyph name="braceright" format="2">
  <advance width="337"/>
  <unicode hex="007D"/>
  <outline>
    <contour>
      <point x="41.685" y="732.78" type="curve"/>
      <point x="40" y="724.78" type="line"/>
      <point x="132.748" y="700.78"/>
      <point x="147.027" y="626.886"/>
      <point x="148.104" y="516.949" type="curve"/>
      <point x="148.973" y="428.261"/>
      <point x="130.408" y="335.868"/>
      <point x="196.995" y="316.39" type="curve"/>
      <point x="128.639" y="300.547"/>
      <point x="148.933" y="200.427"/>
      <point x="148.104" y="115.831" type="curve" smooth="yes"/>
      <point x="147.027" y="5.894"/>
      <point x="132.748" y="-68"/>
      <point x="40" y="-92" type="curve"/>
      <point x="41.685" y="-100" type="line"/>
      <point x="162.85" y="-100"/>
      <point x="211.846" y="-5"/>
      <point x="213.104" y="115.831" type="curve" smooth="yes"/>
      <point x="213.786" y="181.503"/>
      <point x="191.878" y="266.119"/>
      <point x="202.501" y="291.515" type="curve" smooth="yes"/>
      <point x="209.785" y="308.93"/>
      <point x="235.878" y="312.82"/>
      <point x="252.566" y="314.472" type="curve"/>
      <point x="252.566" y="324.472" type="line"/>
      <point x="234.983" y="324.595"/>
      <point x="207.399" y="324.718"/>
      <point x="199.816" y="339.841" type="curve"/>
      <point x="189.193" y="365.237"/>
      <point x="213.786" y="451.277"/>
      <point x="213.104" y="516.949" type="curve" smooth="yes"/>
      <point x="211.846" y="638.185"/>
      <point x="162.85" y="732.78"/>
    </contour>
  </outline>
</glyph>
<glyph name="asciitilde" format="2">
  <advance width="493"/>
  <unicode hex="007E"/>
  <outline>
    <contour>
      <point x="85" y="218.706" type="line"/>
      <point x="73" y="287.254"/>
      <point x="102.652" y="314.422"/>
      <point x="140.298" y="312.652" type="curve" smooth="yes"/>
      <point x="199.701" y="309.86"/>
      <point x="276.455" y="213.706"/>
      <point x="345.676" y="213.706" type="curve" smooth="yes"/>
      <point x="412.248" y="213.706"/>
      <point x="476.05" y="256.168"/>
      <point x="453.05" y="352.652" type="curve"/>
      <point x="408.05" y="352.652" type="line"/>
      <point x="428.05" y="291.676"/>
      <point x="388.071" y="257.394"/>
      <point x="345.676" y="258.706" type="curve" smooth="yes"/>
      <point x="293.88" y="260.308"/>
      <point x="210.464" y="358.98"/>
      <point x="140.298" y="357.652" type="curve" smooth="yes"/>
      <point x="78.113" y="356.475"/>
      <point x="23" y="311.898"/>
      <point x="40" y="218.706" type="curve"/>
    </contour>
  </outline>
</glyph>
<glyph name="sterling" format="2">
  <advance width="577"/>
  <unicode hex="00A3"/>
  <outline>
    <contour>
      <point x="547.685" y="159.402" type="line"/>
      <point x="537.685" y="159.402" type="line"/>
      <point x="488.681" y="61"/>
      <point x="391.681" y="41"/>
      <point x="311.681" y="48" type="curve" smooth="yes"/>
      <point x="236.681" y="54"/>
      <point x="175.681" y="71"/>
      <point x="125.051" y="53.691" type="curve"/>
      <point x="178.681" y="105"/>
      <point x="236.681" y="161"/>
      <point x="228.681" y="377" type="curve" smooth="yes"/>
      <point x="222.681" y="553"/>
      <point x="239.681" y="672"/>
      <point x="359.681" y="684" type="curve" smooth="yes"/>
      <point x="423.681" y="690"/>
      <point x="476.681" y="657"/>
      <point x="464.853" y="565.502" type="curve"/>
      <point x="474.853" y="565.502" type="line"/>
      <point x="502.202" y="656.702" type="line"/>
      <point x="474.681" y="692"/>
      <point x="424.681" y="720"/>
      <point x="359.681" y="714" type="curve" smooth="yes"/>
      <point x="198.681" y="699"/>
      <point x="149.681" y="560"/>
      <point x="158.681" y="370" type="curve" smooth="yes"/>
      <point x="167.681" y="182"/>
      <point x="112.681" y="54"/>
      <point x="57.696" y="9.979" type="curve"/>
      <point x="57.696" y="0" type="line"/>
      <point x="67.696" y="0" type="line"/>
      <point x="79.681" y="12"/>
      <point x="99.681" y="22"/>
      <point x="108.681" y="24" type="curve" smooth="yes"/>
      <point x="171.681" y="37"/>
      <point x="220.681" y="4"/>
      <point x="309.681" y="-8" type="curve" smooth="yes"/>
      <point x="362.681" y="-15"/>
      <point x="436.681" y="-6"/>
      <point x="502.253" y="24" type="curve"/>
    </contour>
    <contour>
      <point x="62.261" y="364.614" type="line"/>
      <point x="50" y="328.752" type="line"/>
      <point x="400.358" y="328.752" type="line"/>
      <point x="412.618" y="364.614" type="line"/>
    </contour>
  </outline>
</glyph>
<glyph name="yen" format="2">
  <advance width="661"/>
  <unicode hex="00A5"/>
  <outline>
    <contour>
      <point x="150.266" y="699" type="line"/>
      <point x="63.863" y="699" type="line"/>
      <point x="302.866" y="299.429" type="line"/>
      <point x="345.938" y="333.559" type="line"/>
    </contour>
    <contour>
      <point x="359.625" y="322.282" type="line"/>
      <point x="294.607" y="322.282" type="line"/>
      <point x="294.607" y="0" type="line"/>
      <point x="359.625" y="0" type="line"/>
    </contour>
    <contour>
      <point x="537.922" y="699" type="line"/>
      <point x="317.393" y="311.642" type="line"/>
      <point x="352.564" y="300.938" type="line"/>
      <point x="598.831" y="699" type="line"/>
    </contour>
    <contour>
      <point x="497.465" y="627.94" type="curve"/>
      <point x="556.846" y="631.221" type="line"/>
      <point x="578.123" y="662.093"/>
      <point x="615.643" y="689.993"/>
      <point x="657.64" y="689.993" type="curve" smooth="yes"/>
      <point x="671.64" y="689.993" type="line"/>
      <point x="671.64" y="700.017" type="line"/>
      <point x="449.868" y="700.017" type="line"/>
      <point x="449.868" y="689.993" type="line"/>
      <point x="449.868" y="689.993"/>
      <point x="462.468" y="689.993"/>
      <point x="462.468" y="689.993" type="curve" smooth="yes"/>
      <point x="489.742" y="689.993"/>
      <point x="514.198" y="656.326"/>
    </contour>
    <contour>
      <point x="188.326" y="627.952" type="line"/>
      <point x="173.594" y="656.338"/>
      <point x="194.051" y="690.034"/>
      <point x="223.324" y="690.034" type="curve" smooth="yes"/>
      <point x="223.324" y="690.034"/>
      <point x="235.923" y="690.034"/>
      <point x="235.923" y="690.034" type="curve"/>
      <point x="235.923" y="700" type="line"/>
      <point x="-10" y="700" type="line"/>
      <point x="-10" y="690.034" type="line"/>
      <point x="3.632" y="690.034" type="line" smooth="yes"/>
      <point x="45.63" y="690.034"/>
      <point x="85.149" y="662.076"/>
      <point x="104.427" y="631.204" type="curve"/>
    </contour>
    <contour>
      <point x="297.496" y="72.864" type="line"/>
      <point x="294.586" y="72.864" type="line"/>
      <point x="293.931" y="38.029"/>
      <point x="265.534" y="9.979"/>
      <point x="230.532" y="9.979" type="curve" smooth="yes"/>
      <point x="230.38" y="9.979"/>
      <point x="218.039" y="10"/>
      <point x="217.882" y="10" type="curve"/>
      <point x="217.721" y="0" type="line"/>
      <point x="297.496" y="0" type="line"/>
    </contour>
    <contour>
      <point x="356.693" y="72.864" type="line"/>
      <point x="356.693" y="0" type="line"/>
      <point x="436.468" y="0" type="line"/>
      <point x="436.307" y="10" type="line"/>
      <point x="436.15" y="10"/>
      <point x="423.809" y="9.979"/>
      <point x="423.657" y="9.979" type="curve" smooth="yes"/>
      <point x="388.655" y="9.979"/>
      <point x="360.258" y="38.029"/>
      <point x="359.603" y="72.864" type="curve"/>
    </contour>
    <contour>
      <point x="104.484" y="294.909" type="line"/>
      <point x="104.484" y="264.909" type="line"/>
      <point x="549.747" y="264.909" type="line"/>
      <point x="549.747" y="294.909" type="line"/>
    </contour>
    <contour>
      <point x="104.484" y="414.909" type="line"/>
      <point x="104.484" y="384.909" type="line"/>
      <point x="281.576" y="384.909" type="line"/>
      <point x="281.576" y="414.909" type="line"/>
    </contour>
    <contour>
      <point x="390.576" y="414.909" type="line"/>
      <point x="390.576" y="384.909" type="line"/>
      <point x="549.747" y="384.909" type="line"/>
      <point x="549.747" y="414.909" type="line"/>
    </contour>
  </outline>
</glyph>
<glyph name="section" format="2">
  <advance width="511"/>
  <unicode hex="00A7"/>
  <outline>
    <contour>
      <point x="278" y="708" type="curve" smooth="yes"/>
      <point x="121.449" y="682.084"/>
      <point x="-55" y="422.214"/>
      <point x="179" y="197" type="curve" smooth="yes"/>
      <point x="347.386" y="35.18"/>
      <point x="376.481" y="-50"/>
      <point x="307" y="-98" type="curve" smooth="yes"/>
      <point x="214.147" y="-163"/>
      <point x="152.534" y="-26"/>
      <point x="115" y="-54" type="curve" smooth="yes"/>
      <point x="71.735" y="-87"/>
      <point x="120.834" y="-171"/>
      <point x="243" y="-151" type="curve" smooth="yes"/>
      <point x="405.679" y="-124"/>
      <point x="558.423" y="142.26"/>
      <point x="336" y="367" type="curve" smooth="yes"/>
      <point x="160.007" y="544.826"/>
      <point x="145.491" y="607.681"/>
      <point x="212" y="656" type="curve" smooth="yes"/>
      <point x="304.009" y="722.846"/>
      <point x="367.092" y="583.574"/>
      <point x="405" y="612" type="curve" smooth="yes"/>
      <point x="445.837" y="642.622"/>
      <point x="400.23" y="728.235"/>
    </contour>
    <contour>
      <point x="139.248" y="582.916" type="curve"/>
      <point x="131.41" y="505.116"/>
      <point x="160.447" y="440.442"/>
      <point x="289" y="317" type="curve" smooth="yes"/>
      <point x="437.703" y="174.209"/>
      <point x="421.363" y="63.605"/>
      <point x="371.372" y="-15" type="curve"/>
      <point x="390.414" y="50.101"/>
      <point x="350.887" y="132.245"/>
      <point x="224" y="248" type="curve" smooth="yes"/>
      <point x="63.673" y="394.261"/>
      <point x="96.193" y="502.246"/>
    </contour>
  </outline>
</glyph>
<glyph name="dieresis" format="2">
  <advance width="600"/>
  <unicode hex="00A8"/>
  <outline>
    <contour>
      <point x="186" y="700" type="curve" smooth="yes"/>
      <point x="208" y="700"/>
      <point x="225" y="718"/>
      <point x="225" y="739" type="curve" smooth="yes"/>
      <point x="225" y="761"/>
      <point x="208" y="778"/>
      <point x="186" y="778" type="curve" smooth="yes"/>
      <point x="165" y="778"/>
      <point x="147" y="761"/>
      <point x="147" y="739" type="curve" smooth="yes"/>
      <point x="147" y="718"/>
      <point x="165" y="700"/>
    </contour>
    <contour>
      <point x="375" y="700" type="curve" smooth="yes"/>
      <point x="396" y="700"/>
      <point x="414" y="718"/>
      <point x="414" y="739" type="curve" smooth="yes"/>
      <point x="414" y="761"/>
      <point x="396" y="778"/>
      <point x="375" y="778" type="curve" smooth="yes"/>
      <point x="353" y="778"/>
      <point x="336" y="761"/>
      <point x="336" y="739" type="curve" smooth="yes"/>
      <point x="336" y="718"/>
      <point x="353" y="700"/>
    </contour>
  </outline>
</glyph>
<glyph name="guillemotleft" format="2">
  <advance width="453"/>
  <unicode hex="00AB"/>
  <outline>
    <contour>
      <point x="40" y="292" type="line"/>
      <point x="215" y="490" type="line"/>
      <point x="223" y="485" type="line"/>
      <point x="105" y="292" type="line"/>
      <point x="224" y="95" type="line"/>
      <point x="215" y="90" type="line"/>
    </contour>
    <contour>
      <point x="210" y="292" type="line"/>
      <point x="385" y="490" type="line"/>
      <point x="393" y="485" type="line"/>
      <point x="275" y="292" type="line"/>
      <point x="394" y="95" type="line"/>
      <point x="385" y="90" type="line"/>
    </contour>
  </outline>
</glyph>
<glyph name="logicalnot" format="2">
  <advance width="601"/>
  <unicode hex="00AC"/>
  <outline>
    <contour>
      <point x="40" y="397" type="line"/>
      <point x="40" y="352" type="line"/>
      <point x="562" y="352" type="line"/>
      <point x="562" y="397" type="line"/>
    </contour>
    <contour>
      <point x="517" y="397" type="line"/>
      <point x="517" y="195" type="line"/>
      <point x="562" y="195" type="line"/>
      <point x="562" y="397" type="line"/>
    </contour>
  </outline>
</glyph>
<glyph name="registered" format="2">
  <advance width="245"/>
  <unicode hex="00AE"/>
  <outline>
    <contour>
      <point x="122.865" y="700.865" type="curve" smooth="yes"/>
      <point x="60.531" y="700.865"/>
      <point x="10" y="650.334"/>
      <point x="10" y="588" type="curve" smooth="yes"/>
      <point x="10" y="525.666"/>
      <point x="60.531" y="475.135"/>
      <point x="122.865" y="475.135" type="curve" smooth="yes"/>
      <point x="185.199" y="475.135"/>
      <point x="235.73" y="525.666"/>
      <point x="235.73" y="588" type="curve" smooth="yes"/>
      <point x="235.73" y="650.334"/>
      <point x="185.199" y="700.865"/>
    </contour>
    <contour>
      <point x="83.508" y="531.781" type="line"/>
      <point x="80.807" y="544.611" type="line"/>
      <point x="80.694" y="538.609"/>
      <point x="76.154" y="533.775"/>
      <point x="70.123" y="533.775" type="curve" smooth="yes"/>
      <point x="70.093" y="533.775"/>
      <point x="67.626" y="533.779"/>
      <point x="67.595" y="533.779" type="curve"/>
      <point x="67.563" y="531.781" type="line"/>
    </contour>
    <contour>
      <point x="104.605" y="544.611" type="curve"/>
      <point x="101.904" y="531.781" type="line"/>
      <point x="117.849" y="531.781" type="line"/>
      <point x="117.817" y="533.779" type="line"/>
      <point x="117.785" y="533.779"/>
      <point x="115.319" y="533.775"/>
      <point x="115.288" y="533.775" type="curve" smooth="yes"/>
      <point x="109.257" y="533.775"/>
      <point x="104.718" y="538.609"/>
    </contour>
    <contour>
      <point x="104.605" y="651.704" type="line"/>
      <point x="80.799" y="651.704" type="line"/>
      <point x="80.799" y="531.781" type="line"/>
      <point x="104.605" y="531.781" type="line"/>
    </contour>
    <contour>
      <point x="83.504" y="651.704" type="line"/>
      <point x="67.559" y="651.704" type="line"/>
      <point x="67.591" y="649.706" type="line"/>
      <point x="67.623" y="649.706"/>
      <point x="70.089" y="649.71"/>
      <point x="70.12" y="649.71" type="curve" smooth="yes"/>
      <point x="76.15" y="649.71"/>
      <point x="80.69" y="645.152"/>
      <point x="80.803" y="639.15" type="curve"/>
    </contour>
    <contour>
      <point x="126.413" y="651.704" type="curve" smooth="yes"/>
      <point x="102.301" y="651.704" type="line" smooth="yes"/>
      <point x="102.301" y="651.704"/>
      <point x="104.298" y="642.855"/>
      <point x="104.298" y="642.55" type="curve"/>
      <point x="116.623" y="642.326" type="line"/>
      <point x="133.588" y="642.506"/>
      <point x="141.011" y="633.625"/>
      <point x="141.419" y="620.652" type="curve" smooth="yes"/>
      <point x="141.556" y="616.272"/>
      <point x="141.026" y="612.085"/>
      <point x="140.147" y="609.284" type="curve" smooth="yes"/>
      <point x="134.875" y="592.482"/>
      <point x="123.317" y="592.409"/>
      <point x="122.02" y="592.127" type="curve" smooth="yes"/>
      <point x="116.003" y="591.963"/>
      <point x="111.458" y="592.061"/>
      <point x="111.458" y="592.061" type="curve"/>
      <point x="111.458" y="590.211" type="line"/>
      <point x="115.759" y="590.211"/>
      <point x="118.655" y="583.488"/>
      <point x="122.679" y="576.724" type="curve" smooth="yes"/>
      <point x="134.262" y="557.256"/>
      <point x="141.72" y="531.781"/>
      <point x="175.563" y="531.781" type="curve" smooth="yes"/>
      <point x="188.248" y="531.781" type="line"/>
      <point x="188.248" y="533.785" type="line"/>
      <point x="175.752" y="537.713"/>
      <point x="170.384" y="548.656"/>
      <point x="167.481" y="552.876" type="curve" smooth="yes"/>
      <point x="159.743" y="564.126"/>
      <point x="148.174" y="584.445"/>
      <point x="139.352" y="586.424" type="curve"/>
      <point x="156.374" y="588.223"/>
      <point x="167.88" y="602.387"/>
      <point x="167.88" y="619.338" type="curve" smooth="yes"/>
      <point x="167.88" y="639.529"/>
      <point x="150.015" y="651.704"/>
    </contour>
    <contour>
      <point x="122.865" y="680.854" type="curve" smooth="yes"/>
      <point x="174.147" y="680.854"/>
      <point x="215.719" y="639.282"/>
      <point x="215.719" y="588" type="curve" smooth="yes"/>
      <point x="215.719" y="536.718"/>
      <point x="174.147" y="495.146"/>
      <point x="122.865" y="495.146" type="curve" smooth="yes"/>
      <point x="71.583" y="495.146"/>
      <point x="30.011" y="536.718"/>
      <point x="30.011" y="588" type="curve" smooth="yes"/>
      <point x="30.011" y="639.282"/>
      <point x="71.583" y="680.854"/>
    </contour>
  </outline>
</glyph>
<glyph name="macron" format="2">
  <advance width="600"/>
  <unicode hex="00AF"/>
  <outline>
    <contour>
      <point x="170" y="738" type="line"/>
      <point x="170" y="703" type="line"/>
      <point x="420" y="703" type="line"/>
      <point x="420" y="738" type="line"/>
    </contour>
  </outline>
</glyph>
<glyph name="degree" format="2">
  <advance width="257"/>
  <unicode hex="00B0"/>
  <outline>
    <contour>
      <point x="128.535" y="664.351" type="curve" smooth="yes"/>
      <point x="74.115" y="664.351"/>
      <point x="30" y="620.236"/>
      <point x="30" y="565.817" type="curve" smooth="yes"/>
      <point x="30" y="511.396"/>
      <point x="74.115" y="467.281"/>
      <point x="128.535" y="467.281" type="curve" smooth="yes"/>
      <point x="182.955" y="467.281"/>
      <point x="227.07" y="511.396"/>
      <point x="227.07" y="565.817" type="curve" smooth="yes"/>
      <point x="227.07" y="620.236"/>
      <point x="182.955" y="664.351"/>
    </contour>
    <contour>
      <point x="128.535" y="625.019" type="curve" smooth="yes"/>
      <point x="161.688" y="625.019"/>
      <point x="187.738" y="598.97"/>
      <point x="187.738" y="565.817" type="curve" smooth="yes"/>
      <point x="187.738" y="532.663"/>
      <point x="161.688" y="506.613"/>
      <point x="128.535" y="506.613" type="curve" smooth="yes"/>
      <point x="95.381" y="506.613"/>
      <point x="69.332" y="532.663"/>
      <point x="69.332" y="565.817" type="curve" smooth="yes"/>
      <point x="69.332" y="598.97"/>
      <point x="95.381" y="625.019"/>
    </contour>
  </outline>
</glyph>
<glyph name="twosuperior" format="2">
  <advance width="375"/>
  <unicode hex="00B2"/>
  <outline>
    <contour>
      <point x="51.051" y="595" type="line"/>
      <point x="57.717" y="595" type="line"/>
      <point x="56.384" y="653.933"/>
      <point x="100.513" y="687.824"/>
      <point x="153.491" y="689" type="curve" smooth="yes"/>
      <point x="208.061" y="690.211"/>
      <point x="247.447" y="653.152"/>
      <point x="247.447" y="589.291" type="curve" smooth="yes"/>
      <point x="247.447" y="486.639"/>
      <point x="107.811" y="386.46"/>
      <point x="30" y="314.667" type="curve"/>
      <point x="30" y="308" type="line"/>
      <point x="303.667" y="308" type="line"/>
      <point x="335.477" y="406.089" type="line"/>
      <point x="328.81" y="406.089" type="line"/>
      <point x="305.356" y="363.837"/>
      <point x="290.351" y="349.569"/>
      <point x="250.731" y="349.569" type="curve"/>
      <point x="113.303" y="349.569" type="line"/>
      <point x="179.174" y="397.194"/>
      <point x="302.114" y="477.931"/>
      <point x="302.114" y="591.958" type="curve" smooth="yes"/>
      <point x="302.114" y="665.183"/>
      <point x="236.065" y="714"/>
      <point x="153.491" y="714" type="curve" smooth="yes"/>
      <point x="110.94" y="714"/>
      <point x="64.877" y="695.805"/>
      <point x="39.485" y="670.468" type="curve"/>
    </contour>
  </outline>
</glyph>
<glyph name="acute" format="2">
  <advance width="439"/>
  <unicode hex="00B4"/>
  <outline>
    <contour>
      <point x="201" y="753" type="curve"/>
      <point x="208" y="746" type="line"/>
      <point x="261" y="772"/>
      <point x="315" y="800"/>
      <point x="369" y="831" type="curve"/>
      <point x="358" y="851"/>
      <point x="343" y="868"/>
      <point x="328" y="884" type="curve"/>
      <point x="285" y="843"/>
      <point x="243" y="799"/>
    </contour>
  </outline>
</glyph>
<glyph name="ordmasculine" format="2">
  <advance width="412"/>
  <unicode hex="00BA"/>
  <outline>
    <contour>
      <point x="206.376" y="714" type="curve" smooth="yes"/>
      <point x="109.286" y="714"/>
      <point x="30" y="638.234"/>
      <point x="30" y="541.804" type="curve" smooth="yes"/>
      <point x="30" y="445.379"/>
      <point x="109.286" y="369.617"/>
      <point x="206.376" y="369.617" type="curve" smooth="yes"/>
      <point x="303.467" y="369.617"/>
      <point x="382.753" y="445.379"/>
      <point x="382.753" y="541.804" type="curve" smooth="yes"/>
      <point x="382.753" y="638.234"/>
      <point x="303.467" y="714"/>
    </contour>
    <contour>
      <point x="206.376" y="390.578" type="curve" smooth="yes"/>
      <point x="135.51" y="390.578"/>
      <point x="84.83" y="455.997"/>
      <point x="84.83" y="541.804" type="curve" smooth="yes"/>
      <point x="84.83" y="627.615"/>
      <point x="135.51" y="693.039"/>
      <point x="206.376" y="693.039" type="curve" smooth="yes"/>
      <point x="277.243" y="693.039"/>
      <point x="327.923" y="627.615"/>
      <point x="327.923" y="541.804" type="curve" smooth="yes"/>
      <point x="327.923" y="455.997"/>
      <point x="277.243" y="390.578"/>
    </contour>
  </outline>
</glyph>
<glyph name="guillemotright" format="2">
  <advance width="453"/>
  <unicode hex="00BB"/>
  <outline>
    <contour>
      <point x="413.802" y="291.757" type="line"/>
      <point x="239" y="89.715" type="line"/>
      <point x="230" y="94.715" type="line"/>
      <point x="348.802" y="291.757" type="line"/>
      <point x="231" y="484.715" type="line"/>
      <point x="239" y="489.715" type="line"/>
    </contour>
    <contour>
      <point x="243.802" y="291.757" type="line"/>
      <point x="69" y="89.715" type="line"/>
      <point x="60" y="94.715" type="line"/>
      <point x="178.802" y="291.757" type="line"/>
      <point x="61" y="484.715" type="line"/>
      <point x="69" y="489.715" type="line"/>
    </contour>
  </outline>
</glyph>
<glyph name="onehalf" format="2">
  <advance width="805"/>
  <unicode hex="00BD"/>
  <guideline x="285.739" y="308" angle="0"/>
  <outline>
    <contour>
      <point x="211.361" y="308" type="line"/>
      <point x="64.993" y="308" type="line"/>
      <point x="65.085" y="314.667" type="line"/>
      <point x="79.022" y="314.653" type="line" smooth="yes"/>
      <point x="99.118" y="314.632"/>
      <point x="115.833" y="330.739"/>
      <point x="115.833" y="350.735" type="curve" smooth="yes"/>
      <point x="115.833" y="632" type="line"/>
      <point x="115.833" y="653.467"/>
      <point x="105.243" y="664.667"/>
      <point x="85.155" y="664.667" type="curve"/>
      <point x="60" y="664.667" type="line"/>
      <point x="60" y="671.333" type="line"/>
      <point x="94.672" y="676.015"/>
      <point x="127.877" y="683.099"/>
      <point x="153.865" y="714" type="curve"/>
      <point x="160.531" y="714" type="line"/>
      <point x="160.531" y="350.3" type="line" smooth="yes"/>
      <point x="160.531" y="330.5"/>
      <point x="177.381" y="314.633"/>
      <point x="197.331" y="314.653" type="curve" smooth="yes"/>
      <point x="211.268" y="314.667" type="line"/>
    </contour>
    <contour>
      <point x="481.051" y="287" type="line"/>
      <point x="487.717" y="287" type="line"/>
      <point x="486.384" y="345.933"/>
      <point x="530.513" y="379.824"/>
      <point x="583.491" y="381" type="curve" smooth="yes"/>
      <point x="638.061" y="382.211"/>
      <point x="677.447" y="345.152"/>
      <point x="677.447" y="281.291" type="curve" smooth="yes"/>
      <point x="677.447" y="178.639"/>
      <point x="537.811" y="78.46"/>
      <point x="460" y="6.667" type="curve"/>
      <point x="460" y="0" type="line"/>
      <point x="733.667" y="0" type="line"/>
      <point x="765.477" y="98.089" type="line"/>
      <point x="758.81" y="98.089" type="line"/>
      <point x="735.356" y="55.837"/>
      <point x="720.351" y="41.569"/>
      <point x="680.731" y="41.569" type="curve"/>
      <point x="543.303" y="41.569" type="line"/>
      <point x="609.174" y="89.194"/>
      <point x="732.114" y="169.931"/>
      <point x="732.114" y="283.958" type="curve" smooth="yes"/>
      <point x="732.114" y="357.183"/>
      <point x="666.065" y="406"/>
      <point x="583.491" y="406" type="curve" smooth="yes"/>
      <point x="540.94" y="406"/>
      <point x="494.877" y="387.805"/>
      <point x="469.485" y="362.468" type="curve"/>
    </contour>
    <component base="fraction" xOffset="79"/>
  </outline>
</glyph>
<glyph name="questiondown" format="2">
  <advance width="433"/>
  <unicode hex="00BF"/>
  <outline>
    <contour>
      <point x="393.326" y="75.046" type="curve"/>
      <point x="383.326" y="169.77" type="line"/>
      <point x="373.326" y="169.77" type="line"/>
      <point x="375.326" y="73.704"/>
      <point x="324.835" y="16"/>
      <point x="245.717" y="16" type="curve" smooth="yes"/>
      <point x="170.872" y="16"/>
      <point x="125" y="68.356"/>
      <point x="125" y="155.694" type="curve" smooth="yes"/>
      <point x="125" y="281.134"/>
      <point x="267.739" y="339.608"/>
      <point x="267.739" y="434.441" type="curve" smooth="yes"/>
      <point x="267.739" y="466.294"/>
      <point x="258.009" y="498.147"/>
      <point x="223.144" y="530" type="curve"/>
      <point x="217.118" y="525.044" type="line"/>
      <point x="241.698" y="492.624"/>
      <point x="235.885" y="465.159"/>
      <point x="226.885" y="432.739" type="curve" smooth="yes"/>
      <point x="201.159" y="340.068"/>
      <point x="50" y="291.389"/>
      <point x="50" y="155.694" type="curve" smooth="yes"/>
      <point x="50" y="49.756"/>
      <point x="124.372" y="-14"/>
      <point x="245.717" y="-14" type="curve" smooth="yes"/>
      <point x="309.889" y="-14"/>
      <point x="362.981" y="19.109"/>
    </contour>
    <contour>
      <point x="232.975" y="704" type="curve" smooth="yes"/>
      <point x="208.122" y="704"/>
      <point x="187.975" y="683.853"/>
      <point x="187.975" y="659" type="curve" smooth="yes"/>
      <point x="187.975" y="634.147"/>
      <point x="208.122" y="614"/>
      <point x="232.975" y="614" type="curve" smooth="yes"/>
      <point x="257.828" y="614"/>
      <point x="277.974" y="634.147"/>
      <point x="277.974" y="659" type="curve" smooth="yes"/>
      <point x="277.974" y="683.853"/>
      <point x="257.828" y="704"/>
    </contour>
  </outline>
</glyph>
<glyph name="Aring" format="2">
  <advance width="712"/>
  <unicode hex="00C5"/>
  <outline>
    <contour>
      <point x="359.414" y="714" type="line"/>
      <point x="339.4" y="619" type="line"/>
      <point x="569.573" y="6.095" type="line"/>
      <point x="654.633" y="6.095" type="line"/>
    </contour>
    <contour>
      <point x="144.486" y="72.681" type="curve"/>
      <point x="86.66" y="73.013" type="line"/>
      <point x="66.448" y="28.464"/>
      <point x="29.438" y="10"/>
      <point x="-1" y="10" type="curve" smooth="yes"/>
      <point x="-1" y="10"/>
      <point x="-10" y="10"/>
      <point x="-10" y="10" type="curve"/>
      <point x="-10" y="0" type="line"/>
      <point x="191.278" y="0" type="line"/>
      <point x="191.278" y="9.908" type="line"/>
      <point x="182.486" y="9.908" type="line" smooth="yes"/>
      <point x="156.669" y="9.908"/>
      <point x="129.884" y="32.663"/>
    </contour>
    <contour>
      <point x="359.414" y="714" type="line"/>
      <point x="350.408" y="714" type="line"/>
      <point x="350.408" y="692.013"/>
      <point x="313.382" y="611"/>
      <point x="313.382" y="611" type="curve"/>
      <point x="57.19" y="3.095" type="line"/>
      <point x="117.233" y="3.095" type="line"/>
      <point x="368.42" y="644" type="line"/>
    </contour>
    <contour>
      <point x="499.513" y="273" type="line"/>
      <point x="187.293" y="273" type="line"/>
      <point x="187.293" y="243" type="line"/>
      <point x="499.513" y="243" type="line"/>
    </contour>
    <contour>
      <point x="544.567" y="72.681" type="line"/>
      <point x="559.169" y="32.664"/>
      <point x="532.384" y="9.911"/>
      <point x="506.568" y="9.911" type="curve" smooth="yes"/>
      <point x="497.776" y="9.911" type="line"/>
      <point x="497.776" y="0" type="line"/>
      <point x="722.956" y="0" type="line"/>
      <point x="722.956" y="10" type="line"/>
      <point x="722.956" y="10"/>
      <point x="714.593" y="10"/>
      <point x="714.593" y="10" type="curve" smooth="yes"/>
      <point x="683.946" y="10"/>
      <point x="646.936" y="28.464"/>
      <point x="626.724" y="73.013" type="curve"/>
    </contour>
    <contour>
      <point x="355.855" y="837.345" type="curve" smooth="yes"/>
      <point x="307.444" y="837.345"/>
      <point x="270.773" y="809.127"/>
      <point x="270.773" y="769.351" type="curve" smooth="yes"/>
      <point x="270.773" y="729.575"/>
      <point x="307.444" y="701.357"/>
      <point x="355.855" y="701.357" type="curve" smooth="yes"/>
      <point x="404.267" y="701.357"/>
      <point x="440.938" y="729.575"/>
      <point x="440.938" y="769.351" type="curve" smooth="yes"/>
      <point x="440.938" y="812.127"/>
      <point x="404.267" y="837.345"/>
    </contour>
    <contour>
      <point x="355.856" y="821.784" type="curve" smooth="yes"/>
      <point x="380.934" y="821.784"/>
      <point x="400.305" y="803.1"/>
      <point x="400.305" y="769.351" type="curve" smooth="yes"/>
      <point x="400.305" y="735.602"/>
      <point x="380.934" y="716.918"/>
      <point x="355.856" y="716.918" type="curve" smooth="yes"/>
      <point x="330.777" y="716.918"/>
      <point x="311.406" y="735.602"/>
      <point x="311.406" y="769.351" type="curve" smooth="yes"/>
      <point x="311.406" y="803.1"/>
      <point x="330.777" y="821.784"/>
    </contour>
  </outline>
</glyph>
<glyph name="Ograve" format="2">
  <advance width="838"/>
  <unicode hex="00D2"/>
  <outline>
    <contour>
      <point x="429" y="714" type="curve" smooth="yes"/>
      <point x="217" y="714"/>
      <point x="70" y="568"/>
      <point x="70" y="350" type="curve" smooth="yes"/>
      <point x="70" y="132"/>
      <point x="217" y="-14"/>
      <point x="429" y="-14" type="curve" smooth="yes"/>
      <point x="642" y="-14"/>
      <point x="789" y="132"/>
      <point x="789" y="350" type="curve" smooth="yes"/>
      <point x="789" y="568"/>
      <point x="642" y="714"/>
    </contour>
    <contour>
      <point x="429" y="16" type="curve" smooth="yes"/>
      <point x="260" y="16"/>
      <point x="147" y="150"/>
      <point x="147" y="350" type="curve" smooth="yes"/>
      <point x="147" y="550"/>
      <point x="260" y="684"/>
      <point x="429" y="684" type="curve" smooth="yes"/>
      <point x="599" y="684"/>
      <point x="712" y="550"/>
      <point x="712" y="350" type="curve" smooth="yes"/>
      <point x="712" y="150"/>
      <point x="599" y="16"/>
    </contour>
    <contour>
      <point x="436" y="771" type="line"/>
      <point x="394" y="818"/>
      <point x="351" y="861"/>
      <point x="309" y="902" type="curve"/>
      <point x="293" y="887"/>
      <point x="279" y="870"/>
      <point x="268" y="849" type="curve"/>
      <point x="322" y="818"/>
      <point x="375" y="789"/>
      <point x="429" y="764" type="curve"/>
    </contour>
  </outline>
</glyph>
<glyph name="Oslash" format="2">
  <advance width="828"/>
  <unicode hex="00D8"/>
  <anchor x="300" y="700" name="top"/>
  <outline>
    <contour>
      <point x="414.432" y="714" type="curve" smooth="yes"/>
      <point x="201.773" y="714"/>
      <point x="60" y="568.397"/>
      <point x="60" y="349.992" type="curve" smooth="yes"/>
      <point x="60" y="131.597"/>
      <point x="201.773" y="-14"/>
      <point x="414.432" y="-14" type="curve" smooth="yes"/>
      <point x="627.092" y="-14"/>
      <point x="768.865" y="131.597"/>
      <point x="768.865" y="349.992" type="curve" smooth="yes"/>
      <point x="768.865" y="568.397"/>
      <point x="627.092" y="714"/>
    </contour>
    <contour>
      <point x="414.432" y="15.925" type="curve" smooth="yes"/>
      <point x="244.773" y="15.925"/>
      <point x="131.667" y="149.552"/>
      <point x="131.667" y="349.992" type="curve" smooth="yes"/>
      <point x="131.667" y="550.442"/>
      <point x="244.773" y="684.075"/>
      <point x="414.432" y="684.075" type="curve" smooth="yes"/>
      <point x="584.092" y="684.075"/>
      <point x="697.198" y="550.442"/>
      <point x="697.198" y="349.992" type="curve" smooth="yes"/>
      <point x="697.198" y="149.552"/>
      <point x="584.092" y="15.925"/>
    </contour>
    <contour>
      <point x="699.389" y="722.336" type="line"/>
      <point x="97.844" y="-1" type="line"/>
      <point x="122.854" y="-23" type="line"/>
      <point x="724.701" y="699.577" type="line"/>
    </contour>
  </outline>
</glyph>
<glyph name="Thorn" format="2">
  <advance width="554"/>
  <unicode hex="00DE"/>
  <outline>
    <contour>
      <point x="184.614" y="700" type="line"/>
      <point x="119.567" y="700" type="line"/>
      <point x="119.567" y="0" type="line"/>
      <point x="184.614" y="0" type="line"/>
    </contour>
    <contour>
      <point x="122.469" y="72.864" type="line"/>
      <point x="119.559" y="72.864" type="line"/>
      <point x="118.904" y="38.029"/>
      <point x="90.507" y="9.979"/>
      <point x="55.505" y="9.979" type="curve" smooth="yes"/>
      <point x="55.353" y="9.979"/>
      <point x="43.012" y="10"/>
      <point x="42.855" y="10" type="curve"/>
      <point x="42.694" y="0" type="line"/>
      <point x="122.469" y="0" type="line"/>
    </contour>
    <contour>
      <point x="122.485" y="627.196" type="line"/>
      <point x="122.485" y="700.06" type="line"/>
      <point x="42.71" y="700.06" type="line"/>
      <point x="42.872" y="690.06" type="line"/>
      <point x="43.029" y="690.06"/>
      <point x="55.37" y="690.08"/>
      <point x="55.522" y="690.08" type="curve" smooth="yes"/>
      <point x="90.523" y="690.08"/>
      <point x="118.92" y="662.03"/>
      <point x="119.576" y="627.196" type="curve"/>
    </contour>
    <contour>
      <point x="181.706" y="72.864" type="line"/>
      <point x="181.706" y="0" type="line"/>
      <point x="261.481" y="0" type="line"/>
      <point x="261.32" y="10" type="line"/>
      <point x="261.163" y="10"/>
      <point x="248.822" y="9.979"/>
      <point x="248.67" y="9.979" type="curve" smooth="yes"/>
      <point x="213.668" y="9.979"/>
      <point x="185.271" y="38.029"/>
      <point x="184.616" y="72.864" type="curve"/>
    </contour>
    <contour>
      <point x="181.69" y="627.196" type="line"/>
      <point x="184.599" y="627.196" type="line"/>
      <point x="185.255" y="662.03"/>
      <point x="213.652" y="690.08"/>
      <point x="248.653" y="690.08" type="curve" smooth="yes"/>
      <point x="248.805" y="690.08"/>
      <point x="261.146" y="690.06"/>
      <point x="261.303" y="690.06" type="curve"/>
      <point x="261.465" y="700.06" type="line"/>
      <point x="181.69" y="700.06" type="line"/>
    </contour>
    <contour>
      <point x="172.144" y="547.899" type="line" smooth="yes"/>
      <point x="172.144" y="547.899"/>
      <point x="182.197" y="517.899"/>
      <point x="182.197" y="517.899" type="curve"/>
      <point x="300.044" y="517.899" type="line"/>
      <point x="385.104" y="517.899"/>
      <point x="432.366" y="456.668"/>
      <point x="434.867" y="364.822" type="curve" smooth="yes"/>
      <point x="435.469" y="342.712"/>
      <point x="432.913" y="318.585"/>
      <point x="428.476" y="304.504" type="curve" smooth="yes"/>
      <point x="383.349" y="161.278"/>
      <point x="218.836" y="196.765"/>
      <point x="218.836" y="196.765" type="curve"/>
      <point x="218.956" y="187.315" type="line"/>
      <point x="344.424" y="121.182"/>
      <point x="504.867" y="202.346"/>
      <point x="504.867" y="354.767" type="curve" smooth="yes"/>
      <point x="504.867" y="473.046"/>
      <point x="435.586" y="547.899"/>
      <point x="303.666" y="547.899" type="curve" smooth="yes"/>
    </contour>
  </outline>
</glyph>
<glyph name="ae" format="2">
  <advance width="834"/>
  <unicode hex="00E6"/>
  <guideline x="330.93" y="600" angle="0"/>
  <anchor x="624.715" y="500" name="top"/>
  <outline>
    <contour>
      <point x="143.443" y="58.042" type="curve"/>
      <point x="80.522" y="61.506" type="line"/>
      <point x="63.507" y="34.2"/>
      <point x="29.64" y="10"/>
      <point x="1.034" y="10" type="curve" smooth="yes"/>
      <point x="1.034" y="10"/>
      <point x="-5" y="10"/>
      <point x="-5" y="10" type="curve"/>
      <point x="-5" y="0" type="line"/>
      <point x="174.468" y="0" type="line"/>
      <point x="174.468" y="10" type="line"/>
      <point x="166.325" y="10" type="line" smooth="yes"/>
      <point x="140.359" y="10"/>
      <point x="128.919" y="33.332"/>
    </contour>
    <contour>
      <point x="497.739" y="600.448" type="line"/>
      <point x="432.676" y="560.741" type="line"/>
      <point x="432.676" y="0" type="line"/>
      <point x="497.739" y="0" type="line"/>
    </contour>
    <contour>
      <point x="434.601" y="50.307" type="line"/>
      <point x="432.672" y="50.307" type="line"/>
      <point x="432.238" y="27.208"/>
      <point x="413.407" y="9.984"/>
      <point x="390.196" y="9.984" type="curve" smooth="yes"/>
      <point x="390.095" y="9.984"/>
      <point x="381.912" y="10"/>
      <point x="381.807" y="10" type="curve"/>
      <point x="381.701" y="0" type="line"/>
      <point x="434.601" y="0" type="line" smooth="yes"/>
    </contour>
    <contour>
      <point x="750.46" y="30.37" type="line"/>
      <point x="495.309" y="30.37" type="line"/>
      <point x="495.309" y="0" type="line"/>
      <point x="750.46" y="0" type="line"/>
    </contour>
    <contour>
      <point x="715.117" y="301.912" type="line"/>
      <point x="268.188" y="301.912" type="line"/>
      <point x="263.878" y="271.05" type="line"/>
      <point x="715.117" y="271.05" type="line"/>
    </contour>
    <contour>
      <point x="750.42" y="600.448" type="line"/>
      <point x="408.537" y="600.448" type="line"/>
      <point x="408.537" y="591.828" type="line"/>
      <point x="411.985" y="591.828" type="line"/>
      <point x="428.152" y="591.828"/>
      <point x="437.517" y="576.928"/>
      <point x="430.713" y="562.029" type="curve"/>
      <point x="40.583" y="2.586" type="line"/>
      <point x="109.102" y="2.586" type="line"/>
      <point x="451.816" y="540.679" type="line" smooth="yes"/>
      <point x="454.402" y="568.077" type="line"/>
      <point x="750.42" y="568.077" type="line"/>
    </contour>
    <contour>
      <point x="799.719" y="123.655" type="line"/>
      <point x="789.099" y="123.655" type="line"/>
      <point x="766.394" y="69.41"/>
      <point x="726.578" y="30.358"/>
      <point x="657.496" y="30.358" type="curve"/>
      <point x="631.632" y="0" type="line"/>
      <point x="751.709" y="0" type="line"/>
    </contour>
    <contour>
      <point x="715.117" y="273.006" type="line"/>
      <point x="663.431" y="273.006" type="line"/>
      <point x="663.431" y="271.077" type="line"/>
      <point x="686.53" y="270.642"/>
      <point x="705.168" y="251.811"/>
      <point x="705.132" y="228.601" type="curve" smooth="yes"/>
      <point x="705.117" y="218.899" type="line"/>
      <point x="715.117" y="218.792" type="line"/>
    </contour>
    <contour>
      <point x="715.117" y="357.22" type="line"/>
      <point x="705.117" y="357.112" type="line"/>
      <point x="705.134" y="344.41" type="line" smooth="yes"/>
      <point x="705.134" y="321.201"/>
      <point x="686.53" y="302.373"/>
      <point x="663.431" y="301.938" type="curve"/>
      <point x="663.431" y="300.01" type="line"/>
      <point x="715.117" y="300.01" type="line"/>
    </contour>
    <contour>
      <point x="750.42" y="569.987" type="line"/>
      <point x="698.114" y="569.987" type="line"/>
      <point x="698.114" y="568.058" type="line"/>
      <point x="721.215" y="567.623"/>
      <point x="740.436" y="548.791"/>
      <point x="740.436" y="525.582" type="curve" smooth="yes"/>
      <point x="740.42" y="512.883" type="line"/>
      <point x="750.42" y="512.776" type="line"/>
    </contour>
    <contour>
      <point x="750.42" y="616.127" type="line"/>
      <point x="734.085" y="609.242"/>
      <point x="682.686" y="600.437"/>
      <point x="645.307" y="600.437" type="curve"/>
      <point x="750.42" y="590.887" type="line"/>
    </contour>
  </outline>
</glyph>
<glyph name="eth" format="2">
  <advance width="760"/>
  <unicode hex="00F0"/>
  <outline>
    <contour>
      <point x="389" y="600" type="curve"/>
      <point x="164" y="600" type="line"/>
      <point x="164" y="570" type="line"/>
      <point x="309" y="570"/>
      <point x="389" y="570"/>
      <point x="389" y="570" type="curve" smooth="yes"/>
      <point x="543" y="570"/>
      <point x="638" y="467"/>
      <point x="638" y="300" type="curve" smooth="yes"/>
      <point x="638" y="133"/>
      <point x="543" y="30"/>
      <point x="389" y="30" type="curve" smooth="yes"/>
      <point x="389" y="30"/>
      <point x="313" y="30"/>
      <point x="174" y="30" type="curve"/>
      <point x="176" y="0" type="line"/>
      <point x="389" y="0" type="line"/>
      <point x="586" y="0"/>
      <point x="710" y="114"/>
      <point x="710" y="300" type="curve" smooth="yes"/>
      <point x="710" y="486"/>
      <point x="586" y="600"/>
    </contour>
    <contour>
      <point x="190" y="600" type="line"/>
      <point x="125" y="600" type="line"/>
      <point x="125" y="0" type="line"/>
      <point x="190" y="0" type="line"/>
    </contour>
    <contour>
      <point x="127" y="65" type="line"/>
      <point x="125" y="65" type="line"/>
      <point x="124" y="35"/>
      <point x="100" y="10"/>
      <point x="68" y="10" type="curve" smooth="yes"/>
      <point x="68" y="10"/>
      <point x="55" y="10"/>
      <point x="55" y="10" type="curve"/>
      <point x="55" y="0" type="line"/>
      <point x="127" y="0" type="line"/>
    </contour>
    <contour>
      <point x="127" y="535" type="line"/>
      <point x="127" y="600" type="line"/>
      <point x="55" y="600" type="line"/>
      <point x="55" y="590" type="line"/>
      <point x="55" y="590"/>
      <point x="67" y="590"/>
      <point x="67" y="590" type="curve" smooth="yes"/>
      <point x="99" y="590"/>
      <point x="124" y="567"/>
      <point x="125" y="535" type="curve"/>
    </contour>
    <contour>
      <point x="62" y="315" type="line"/>
      <point x="62" y="285" type="line"/>
      <point x="347" y="285" type="line"/>
      <point x="347" y="315" type="line"/>
    </contour>
  </outline>
</glyph>
<glyph name="divide" format="2">
  <advance width="481"/>
  <unicode hex="00F7"/>
  <outline>
    <contour>
      <point x="40" y="332.253" type="line"/>
      <point x="40" y="287.253" type="line"/>
      <point x="441.723" y="287.253" type="line"/>
      <point x="441.723" y="332.253" type="line"/>
    </contour>
    <contour>
      <point x="240.502" y="116.858" type="curve" smooth="yes"/>
      <point x="259.975" y="116.858"/>
      <point x="275.761" y="132.644"/>
      <point x="275.761" y="152.117" type="curve" smooth="yes"/>
      <point x="275.761" y="171.59"/>
      <point x="259.975" y="187.375"/>
      <point x="240.502" y="187.375" type="curve" smooth="yes"/>
      <point x="221.029" y="187.375"/>
      <point x="205.243" y="171.59"/>
      <point x="205.243" y="152.117" type="curve" smooth="yes"/>
      <point x="205.243" y="132.644"/>
      <point x="221.029" y="116.858"/>
    </contour>
    <contour>
      <point x="240.502" y="432.908" type="curve" smooth="yes"/>
      <point x="259.975" y="432.908"/>
      <point x="275.761" y="448.694"/>
      <point x="275.761" y="468.167" type="curve" smooth="yes"/>
      <point x="275.761" y="487.639"/>
      <point x="259.975" y="503.425"/>
      <point x="240.502" y="503.425" type="curve"/>
      <point x="221.029" y="503.425"/>
      <point x="205.243" y="487.639"/>
      <point x="205.243" y="468.167" type="curve" smooth="yes"/>
      <point x="205.243" y="448.694"/>
      <point x="221.029" y="432.908"/>
    </contour>
  </outline>
</glyph>
<glyph name="oslash" format="2">
  <advance width="774"/>
  <unicode hex="00F8"/>
  <anchor x="290" y="500" name="top"/>
  <outline>
    <contour>
      <point x="613.341" y="631.032" type="line"/>
      <point x="87.844" y="-1" type="line"/>
      <point x="112.854" y="-23" type="line"/>
      <point x="638.653" y="608.273" type="line"/>
    </contour>
    <contour>
      <point x="387.445" y="614" type="curve" smooth="yes"/>
      <point x="200.878" y="614"/>
      <point x="50" y="485.836"/>
      <point x="50" y="299.992" type="curve" smooth="yes"/>
      <point x="50" y="114.156"/>
      <point x="200.878" y="-14"/>
      <point x="387.445" y="-14" type="curve" smooth="yes"/>
      <point x="573.986" y="-14"/>
      <point x="724.865" y="114.156"/>
      <point x="724.865" y="299.992" type="curve" smooth="yes"/>
      <point x="724.865" y="485.836"/>
      <point x="573.986" y="614"/>
    </contour>
    <contour>
      <point x="387.445" y="15.925" type="curve" smooth="yes"/>
      <point x="240.336" y="15.925"/>
      <point x="124.081" y="130.914"/>
      <point x="124.081" y="299.992" type="curve" smooth="yes"/>
      <point x="124.081" y="469.078"/>
      <point x="240.336" y="584.075"/>
      <point x="387.445" y="584.075" type="curve" smooth="yes"/>
      <point x="534.529" y="584.075"/>
      <point x="650.811" y="469.078"/>
      <point x="650.811" y="299.992" type="curve" smooth="yes"/>
      <point x="650.811" y="130.914"/>
      <point x="534.529" y="15.925"/>
    </contour>
  </outline>
</glyph>
<glyph name="thorn" format="2">
  <advance width="527"/>
  <unicode hex="00FE"/>
  <outline>
    <contour>
      <point x="172.144" y="475.406" type="line" smooth="yes"/>
      <point x="172.144" y="475.406"/>
      <point x="182.197" y="445.406"/>
      <point x="182.197" y="445.406" type="curve"/>
      <point x="280.044" y="445.406" type="line"/>
      <point x="369.214" y="445.406"/>
      <point x="423.867" y="395.597"/>
      <point x="423.867" y="314.328" type="curve" smooth="yes"/>
      <point x="423.867" y="297.152"/>
      <point x="421.913" y="274.092"/>
      <point x="417.476" y="260.011" type="curve" smooth="yes"/>
      <point x="372.349" y="116.785"/>
      <point x="228.836" y="159.272"/>
      <point x="228.836" y="159.272" type="curve"/>
      <point x="228.956" y="149.822" type="line"/>
      <point x="354.423" y="83.689"/>
      <point x="491.867" y="151.853"/>
      <point x="491.867" y="304.274" type="curve" smooth="yes"/>
      <point x="491.867" y="410.376"/>
      <point x="413.991" y="475.406"/>
      <point x="283.666" y="475.406" type="curve" smooth="yes"/>
    </contour>
    <contour>
      <point x="183.64" y="600" type="line"/>
      <point x="119.64" y="600" type="line"/>
      <point x="119.64" y="0" type="line"/>
      <point x="183.64" y="0" type="line"/>
    </contour>
    <contour>
      <point x="122.174" y="64.193" type="line"/>
      <point x="119.666" y="64.193" type="line"/>
      <point x="119.101" y="34.163"/>
      <point x="96.388" y="9.979"/>
      <point x="66.213" y="9.979" type="curve" smooth="yes"/>
      <point x="66.061" y="9.979"/>
      <point x="53.721" y="10"/>
      <point x="53.563" y="10" type="curve"/>
      <point x="53.403" y="0" type="line"/>
      <point x="133.178" y="0" type="line"/>
    </contour>
    <contour>
      <point x="122.154" y="537.186" type="line"/>
      <point x="133.157" y="600" type="line"/>
      <point x="53.383" y="600" type="line"/>
      <point x="53.544" y="590" type="line"/>
      <point x="53.702" y="590"/>
      <point x="66.043" y="590.02"/>
      <point x="66.195" y="590.02" type="curve" smooth="yes"/>
      <point x="96.368" y="590.02"/>
      <point x="119.081" y="567.216"/>
      <point x="119.646" y="537.186" type="curve"/>
    </contour>
    <contour>
      <point x="181.119" y="64.193" type="line"/>
      <point x="170.115" y="0" type="line"/>
      <point x="249.89" y="0" type="line"/>
      <point x="249.729" y="10" type="line"/>
      <point x="249.572" y="10"/>
      <point x="237.231" y="9.979"/>
      <point x="237.079" y="9.979" type="curve" smooth="yes"/>
      <point x="206.905" y="9.979"/>
      <point x="184.192" y="34.163"/>
      <point x="183.627" y="64.193" type="curve"/>
    </contour>
    <contour>
      <point x="181.079" y="537.186" type="line"/>
      <point x="183.587" y="537.186" type="line"/>
      <point x="184.152" y="567.216"/>
      <point x="206.865" y="590.02"/>
      <point x="237.038" y="590.02" type="curve" smooth="yes"/>
      <point x="237.19" y="590.02"/>
      <point x="249.531" y="590"/>
      <point x="249.688" y="590" type="curve"/>
      <point x="249.85" y="600" type="line"/>
      <point x="170.076" y="600" type="line"/>
    </contour>
  </outline>
</glyph>
<glyph name="aogonek" format="2">
  <advance width="633"/>
  <unicode hex="0105"/>
  <outline>
    <contour>
      <point x="143.248" y="72.681" type="curve"/>
      <point x="83.86" y="73.013" type="line"/>
      <point x="63.458" y="28.464"/>
      <point x="30.658" y="10"/>
      <point x="2.931" y="10" type="curve" smooth="yes"/>
      <point x="2.931" y="10"/>
      <point x="-5" y="10"/>
      <point x="-5" y="10" type="curve"/>
      <point x="-5" y="0" type="line"/>
      <point x="185.542" y="0" type="line"/>
      <point x="185.542" y="9.908" type="line"/>
      <point x="177.594" y="9.908" type="line" smooth="yes"/>
      <point x="154.253" y="9.908"/>
      <point x="127.967" y="32.664"/>
    </contour>
    <contour>
      <point x="336.339" y="614" type="line"/>
      <point x="326.859" y="614" type="line"/>
      <point x="324.802" y="587.84"/>
      <point x="288.086" y="511"/>
      <point x="288.372" y="511" type="curve"/>
      <point x="51.133" y="3.095" type="line"/>
      <point x="113.824" y="3.095" type="line"/>
      <point x="342.809" y="545" type="line"/>
    </contour>
    <contour>
      <point x="336.339" y="614" type="line"/>
      <point x="319.075" y="525" type="line"/>
      <point x="532.104" y="6.095" type="line"/>
      <point x="611.41" y="6.095" type="line"/>
    </contour>
    <contour>
      <point x="454.01" y="233" type="line"/>
      <point x="189.253" y="233" type="line"/>
      <point x="189.253" y="203" type="line"/>
      <point x="454.01" y="203" type="line"/>
    </contour>
    <contour>
      <point x="492.751" y="0" type="curve" smooth="yes"/>
      <point x="534.15" y="10.477"/>
      <point x="612.635" y="0"/>
      <point x="663.611" y="0" type="curve"/>
      <point x="663.611" y="10" type="line"/>
      <point x="632.108" y="10"/>
      <point x="601.645" y="24.867"/>
      <point x="580.652" y="73.013" type="curve"/>
      <point x="504.647" y="73.013" type="line"/>
      <point x="520.235" y="32.664"/>
      <point x="496.395" y="18.192"/>
      <point x="471.89" y="9.91" type="curve" smooth="yes"/>
      <point x="423.214" y="-7"/>
      <point x="395.306" y="-43"/>
      <point x="395.761" y="-82" type="curve" smooth="yes"/>
      <point x="397.085" y="-198"/>
      <point x="539.551" y="-201"/>
      <point x="569.774" y="-119" type="curve"/>
      <point x="563.774" y="-113" type="line"/>
      <point x="514.646" y="-164"/>
      <point x="443.804" y="-128"/>
      <point x="441.804" y="-71" type="curve" smooth="yes"/>
      <point x="440.693" y="-39"/>
      <point x="453.42" y="-10"/>
    </contour>
  </outline>
</glyph>
<glyph name="gcommaaccent" format="2">
  <advance width="742"/>
  <unicode hex="0123"/>
  <outline>
    <contour>
      <point x="348.2" y="-81" type="curve" smooth="yes"/>
      <point x="339.238" y="-101"/>
      <point x="356.148" y="-115"/>
      <point x="366.572" y="-128" type="curve" smooth="yes"/>
      <point x="380.253" y="-144"/>
      <point x="388.215" y="-186"/>
      <point x="339.574" y="-201" type="curve"/>
      <point x="341.525" y="-208" type="line"/>
      <point x="393.806" y="-206"/>
      <point x="436.868" y="-151"/>
      <point x="410.874" y="-89" type="curve" smooth="yes"/>
      <point x="397.343" y="-56"/>
      <point x="358.395" y="-58"/>
    </contour>
    <contour>
      <point x="377.709" y="614" type="curve" smooth="yes"/>
      <point x="180.639" y="614"/>
      <point x="50" y="494.681"/>
      <point x="50" y="300.002" type="curve" smooth="yes"/>
      <point x="50" y="106.208"/>
      <point x="180.367" y="-13"/>
      <point x="378" y="-14" type="curve" smooth="yes"/>
      <point x="518.834" y="-14"/>
      <point x="616.259" y="55.96"/>
      <point x="662.83" y="114.81" type="curve"/>
      <point x="662.804" y="235.182" type="line"/>
      <point x="662.708" y="260.78"/>
      <point x="679.164" y="274.841"/>
      <point x="708.41" y="274.841" type="curve" smooth="yes"/>
      <point x="722.056" y="274.82" type="line"/>
      <point x="722.056" y="284.82" type="line"/>
      <point x="538.641" y="284.814" type="line"/>
      <point x="538.641" y="274.814" type="line"/>
      <point x="552.882" y="274.835" type="line" smooth="yes"/>
      <point x="582.1" y="274.88"/>
      <point x="599.747" y="260.726"/>
      <point x="599.427" y="235.55" type="curve" smooth="yes"/>
      <point x="597.766" y="102.656" type="line"/>
      <point x="535.128" y="41.68"/>
      <point x="461.253" y="16"/>
      <point x="378" y="16" type="curve" smooth="yes"/>
      <point x="224.569" y="16"/>
      <point x="122.286" y="124.638"/>
      <point x="122.286" y="300" type="curve" smooth="yes"/>
      <point x="122.286" y="476.126"/>
      <point x="224.041" y="584.074"/>
      <point x="376.793" y="584.074" type="curve" smooth="yes"/>
      <point x="516.647" y="584.074"/>
      <point x="595.346" y="529.095"/>
      <point x="624.403" y="412.264" type="curve"/>
      <point x="633.164" y="412.232" type="line"/>
      <point x="611.168" y="553.468" type="line"/>
      <point x="543.737" y="594.63"/>
      <point x="469.853" y="614"/>
    </contour>
  </outline>
</glyph>
<glyph name="Hbar" format="2">
  <advance width="778"/>
  <unicode hex="0126"/>
  <outline>
    <contour>
      <point x="725.012" y="528.11" type="line"/>
      <point x="56.268" y="528.11" type="line"/>
      <point x="56.268" y="498.11" type="line"/>
      <point x="725.012" y="498.11" type="line"/>
    </contour>
    <contour>
      <point x="658.883" y="700" type="line"/>
      <point x="593.836" y="700" type="line"/>
      <point x="593.836" y="0" type="line"/>
      <point x="658.883" y="0" type="line"/>
    </contour>
    <contour>
      <point x="184.614" y="700" type="line"/>
      <point x="119.567" y="700" type="line"/>
      <point x="119.567" y="0" type="line"/>
      <point x="184.614" y="0" type="line"/>
    </contour>
    <contour>
      <point x="603.012" y="361.058" type="line"/>
      <point x="174.268" y="361.058" type="line"/>
      <point x="174.268" y="331.058" type="line"/>
      <point x="603.012" y="331.058" type="line"/>
    </contour>
    <contour>
      <point x="122.469" y="72.864" type="line"/>
      <point x="119.559" y="72.864" type="line"/>
      <point x="118.904" y="38.029"/>
      <point x="90.507" y="9.979"/>
      <point x="55.505" y="9.979" type="curve" smooth="yes"/>
      <point x="55.353" y="9.979"/>
      <point x="43.012" y="10"/>
      <point x="42.855" y="10" type="curve"/>
      <point x="42.694" y="0" type="line"/>
      <point x="122.469" y="0" type="line"/>
    </contour>
    <contour>
      <point x="122.485" y="627.196" type="line"/>
      <point x="122.485" y="700.06" type="line"/>
      <point x="42.71" y="700.06" type="line"/>
      <point x="42.872" y="690.06" type="line"/>
      <point x="43.029" y="690.06"/>
      <point x="55.37" y="690.08"/>
      <point x="55.522" y="690.08" type="curve" smooth="yes"/>
      <point x="90.523" y="690.08"/>
      <point x="118.92" y="662.03"/>
      <point x="119.576" y="627.196" type="curve"/>
    </contour>
    <contour>
      <point x="181.706" y="72.864" type="line"/>
      <point x="181.706" y="0" type="line"/>
      <point x="261.481" y="0" type="line"/>
      <point x="261.32" y="10" type="line"/>
      <point x="261.163" y="10"/>
      <point x="248.822" y="9.979"/>
      <point x="248.67" y="9.979" type="curve" smooth="yes"/>
      <point x="213.668" y="9.979"/>
      <point x="185.271" y="38.029"/>
      <point x="184.616" y="72.864" type="curve"/>
    </contour>
    <contour>
      <point x="181.69" y="627.196" type="line"/>
      <point x="184.599" y="627.196" type="line"/>
      <point x="185.255" y="662.03"/>
      <point x="213.652" y="690.08"/>
      <point x="248.653" y="690.08" type="curve" smooth="yes"/>
      <point x="248.805" y="690.08"/>
      <point x="261.146" y="690.06"/>
      <point x="261.303" y="690.06" type="curve"/>
      <point x="261.465" y="700.06" type="line"/>
      <point x="181.69" y="700.06" type="line"/>
    </contour>
    <contour>
      <point x="596.765" y="72.864" type="line"/>
      <point x="593.855" y="72.864" type="line"/>
      <point x="593.2" y="38.029"/>
      <point x="564.803" y="9.979"/>
      <point x="529.801" y="9.979" type="curve" smooth="yes"/>
      <point x="529.649" y="9.979"/>
      <point x="517.308" y="10"/>
      <point x="517.151" y="10" type="curve"/>
      <point x="516.99" y="0" type="line"/>
      <point x="596.765" y="0" type="line"/>
    </contour>
    <contour>
      <point x="596.781" y="627.196" type="line"/>
      <point x="596.781" y="700.06" type="line"/>
      <point x="517.006" y="700.06" type="line"/>
      <point x="517.168" y="690.06" type="line"/>
      <point x="517.325" y="690.06"/>
      <point x="529.666" y="690.08"/>
      <point x="529.818" y="690.08" type="curve" smooth="yes"/>
      <point x="564.819" y="690.08"/>
      <point x="593.216" y="662.03"/>
      <point x="593.872" y="627.196" type="curve"/>
    </contour>
    <contour>
      <point x="656.002" y="72.864" type="line"/>
      <point x="656.002" y="0" type="line"/>
      <point x="735.777" y="0" type="line"/>
      <point x="735.616" y="10" type="line"/>
      <point x="735.459" y="10"/>
      <point x="723.118" y="9.979"/>
      <point x="722.966" y="9.979" type="curve" smooth="yes"/>
      <point x="687.964" y="9.979"/>
      <point x="659.567" y="38.029"/>
      <point x="658.912" y="72.864" type="curve"/>
    </contour>
    <contour>
      <point x="655.986" y="627.196" type="line"/>
      <point x="658.895" y="627.196" type="line"/>
      <point x="659.551" y="662.03"/>
      <point x="687.948" y="690.08"/>
      <point x="722.949" y="690.08" type="curve" smooth="yes"/>
      <point x="723.101" y="690.08"/>
      <point x="735.442" y="690.06"/>
      <point x="735.599" y="690.06" type="curve"/>
      <point x="735.761" y="700.06" type="line"/>
      <point x="655.986" y="700.06" type="line"/>
    </contour>
  </outline>
</glyph>
<glyph name="iogonek" format="2">
  <advance width="307"/>
  <unicode hex="012F"/>
  <outline>
    <contour>
      <point x="187.296" y="600" type="line"/>
      <point x="123.249" y="600" type="line"/>
      <point x="123.249" y="0" type="line"/>
      <point x="187.296" y="0" type="line"/>
    </contour>
    <contour>
      <point x="125.759" y="64.193" type="line"/>
      <point x="123.251" y="64.193" type="line"/>
      <point x="122.686" y="34.163"/>
      <point x="98.206" y="9.979"/>
      <point x="68.032" y="9.979" type="curve" smooth="yes"/>
      <point x="67.901" y="9.979"/>
      <point x="57.262" y="10"/>
      <point x="57.127" y="10" type="curve"/>
      <point x="56.988" y="0" type="line"/>
      <point x="125.759" y="0" type="line"/>
    </contour>
    <contour>
      <point x="184.768" y="64.193" type="line"/>
      <point x="184.768" y="0" type="line"/>
      <point x="253.54" y="0" type="line"/>
      <point x="253.401" y="10" type="line"/>
      <point x="253.266" y="10"/>
      <point x="242.627" y="9.979"/>
      <point x="242.496" y="9.979" type="curve" smooth="yes"/>
      <point x="212.322" y="9.979"/>
      <point x="187.841" y="34.163"/>
      <point x="187.277" y="64.193" type="curve"/>
    </contour>
    <contour>
      <point x="184.734" y="535.807" type="line"/>
      <point x="187.242" y="535.807" type="line"/>
      <point x="187.807" y="565.837"/>
      <point x="212.287" y="590.021"/>
      <point x="242.461" y="590.021" type="curve" smooth="yes"/>
      <point x="242.592" y="590.021"/>
      <point x="253.231" y="590"/>
      <point x="253.366" y="590" type="curve"/>
      <point x="253.505" y="600" type="line"/>
      <point x="184.734" y="600" type="line"/>
    </contour>
    <contour>
      <point x="125.725" y="535.807" type="line"/>
      <point x="125.725" y="600" type="line"/>
      <point x="56.953" y="600" type="line"/>
      <point x="57.092" y="590" type="line"/>
      <point x="57.227" y="590"/>
      <point x="67.866" y="590.021"/>
      <point x="67.997" y="590.021" type="curve" smooth="yes"/>
      <point x="98.171" y="590.021"/>
      <point x="122.652" y="565.837"/>
      <point x="123.216" y="535.807" type="curve"/>
    </contour>
    <contour>
      <point x="165.554" y="3.008" type="line"/>
      <point x="105.319" y="3.008"/>
      <point x="54.394" y="-36"/>
      <point x="55.005" y="-89" type="curve" smooth="yes"/>
      <point x="56.33" y="-205"/>
      <point x="198.796" y="-208"/>
      <point x="229.019" y="-126" type="curve"/>
      <point x="223.019" y="-120" type="line"/>
      <point x="173.891" y="-171"/>
      <point x="103.049" y="-135"/>
      <point x="101.049" y="-78" type="curve" smooth="yes"/>
      <point x="99.731" y="-40"/>
      <point x="120.126" y="-13"/>
      <point x="175.554" y="0.008" type="curve"/>
    </contour>
  </outline>
</glyph>
<glyph name="dotlessi" format="2">
  <advance width="306"/>
  <unicode hex="0131"/>
  <anchor x="123.601" y="3" name="ogonek"/>
  <anchor x="153.575" y="664" name="top"/>
  <outline>
    <contour>
      <point x="185.343" y="600" type="line"/>
      <point x="121.296" y="600" type="line"/>
      <point x="121.296" y="0" type="line"/>
      <point x="185.343" y="0" type="line"/>
    </contour>
    <contour>
      <point x="123.806" y="64.193" type="line"/>
      <point x="121.298" y="64.193" type="line"/>
      <point x="120.733" y="34.163"/>
      <point x="96.253" y="9.979"/>
      <point x="66.079" y="9.979" type="curve" smooth="yes"/>
      <point x="65.948" y="9.979"/>
      <point x="55.309" y="10"/>
      <point x="55.174" y="10" type="curve"/>
      <point x="55.035" y="0" type="line"/>
      <point x="123.806" y="0" type="line"/>
    </contour>
    <contour>
      <point x="182.815" y="64.193" type="line"/>
      <point x="182.815" y="0" type="line"/>
      <point x="251.587" y="0" type="line"/>
      <point x="251.448" y="10" type="line"/>
      <point x="251.313" y="10"/>
      <point x="240.674" y="9.979"/>
      <point x="240.543" y="9.979" type="curve" smooth="yes"/>
      <point x="210.369" y="9.979"/>
      <point x="185.888" y="34.163"/>
      <point x="185.324" y="64.193" type="curve"/>
    </contour>
    <contour>
      <point x="182.781" y="535.807" type="line"/>
      <point x="185.289" y="535.807" type="line"/>
      <point x="185.854" y="565.837"/>
      <point x="210.334" y="590.021"/>
      <point x="240.508" y="590.021" type="curve" smooth="yes"/>
      <point x="240.639" y="590.021"/>
      <point x="251.278" y="590"/>
      <point x="251.413" y="590" type="curve"/>
      <point x="251.552" y="600" type="line"/>
      <point x="182.781" y="600" type="line"/>
    </contour>
    <contour>
      <point x="123.772" y="535.807" type="line"/>
      <point x="123.772" y="600" type="line"/>
      <point x="55" y="600" type="line"/>
      <point x="55.139" y="590" type="line"/>
      <point x="55.274" y="590"/>
      <point x="65.913" y="590.021"/>
      <point x="66.044" y="590.021" type="curve" smooth="yes"/>
      <point x="96.218" y="590.021"/>
      <point x="120.699" y="565.837"/>
      <point x="121.263" y="535.807" type="curve"/>
    </contour>
  </outline>
</glyph>
<glyph name="lcaron" format="2">
  <advance width="536"/>
  <unicode hex="013E"/>
  <outline>
    <contour>
      <point x="190.544" y="600" type="line"/>
      <point x="126.71" y="600" type="line"/>
      <point x="126.71" y="0" type="line"/>
      <point x="190.544" y="0" type="line"/>
    </contour>
    <contour>
      <point x="459.776" y="30.59" type="line"/>
      <point x="188.624" y="30.59" type="line"/>
      <point x="188.624" y="0" type="line"/>
      <point x="458.138" y="0" type="line"/>
    </contour>
    <contour>
      <point x="516.43" y="143.45" type="line"/>
      <point x="505.591" y="143.45" type="line"/>
      <point x="476.793" y="77.814"/>
      <point x="442.018" y="30.561"/>
      <point x="342.824" y="30.561" type="curve"/>
      <point x="308.982" y="0" type="line"/>
      <point x="461.31" y="0" type="line"/>
    </contour>
    <contour>
      <point x="129.431" y="64.193" type="line"/>
      <point x="126.745" y="64.193" type="line"/>
      <point x="126.11" y="34.163"/>
      <point x="101.645" y="9.979"/>
      <point x="68.976" y="9.979" type="curve" smooth="yes"/>
      <point x="68.848" y="9.979"/>
      <point x="55.424" y="10"/>
      <point x="55.248" y="10" type="curve"/>
      <point x="55.067" y="0" type="line"/>
      <point x="141.785" y="0" type="line"/>
    </contour>
    <contour>
      <point x="187.811" y="535.807" type="line"/>
      <point x="190.541" y="535.807" type="line"/>
      <point x="191.132" y="565.837"/>
      <point x="217.624" y="590.021"/>
      <point x="250.25" y="590.021" type="curve" smooth="yes"/>
      <point x="250.397" y="590.021"/>
      <point x="261.91" y="590"/>
      <point x="262.019" y="590" type="curve"/>
      <point x="262.175" y="600" type="line"/>
      <point x="187.811" y="600" type="line"/>
    </contour>
    <contour>
      <point x="129.365" y="535.807" type="line"/>
      <point x="129.365" y="600" type="line"/>
      <point x="55" y="600" type="line"/>
      <point x="55.156" y="590" type="line"/>
      <point x="55.308" y="590"/>
      <point x="66.821" y="590.021"/>
      <point x="66.925" y="590.021" type="curve" smooth="yes"/>
      <point x="99.594" y="590.021"/>
      <point x="126.044" y="565.837"/>
      <point x="126.677" y="535.807" type="curve"/>
    </contour>
    <contour>
      <point x="362.399" y="585.442" type="curve" smooth="yes"/>
      <point x="353.437" y="565.085"/>
      <point x="370.347" y="551.081"/>
      <point x="380.77" y="538.607" type="curve" smooth="yes"/>
      <point x="394.451" y="522.177"/>
      <point x="402.413" y="480.855"/>
      <point x="353.772" y="465.152" type="curve"/>
      <point x="355.723" y="458.541" type="line"/>
      <point x="408.004" y="460.194"/>
      <point x="451.066" y="515.566"/>
      <point x="425.072" y="577.9" type="curve" smooth="yes"/>
      <point x="411.542" y="610.247"/>
      <point x="372.593" y="608.6"/>
    </contour>
  </outline>
</glyph>
<glyph name="Ldot" format="2">
  <advance width="562"/>
  <unicode hex="013F"/>
  <outline>
    <contour>
      <point x="201.915" y="700" type="line"/>
      <point x="136.885" y="700" type="line"/>
      <point x="136.885" y="0" type="line"/>
      <point x="201.915" y="0" type="line"/>
    </contour>
    <contour>
      <point x="139.79" y="72.864" type="line"/>
      <point x="136.88" y="72.864" type="line"/>
      <point x="136.225" y="38.029"/>
      <point x="107.828" y="9.979"/>
      <point x="72.826" y="9.979" type="curve" smooth="yes"/>
      <point x="72.674" y="9.979"/>
      <point x="60.333" y="10"/>
      <point x="60.176" y="10" type="curve"/>
      <point x="60.015" y="0" type="line"/>
      <point x="139.79" y="0" type="line"/>
    </contour>
    <contour>
      <point x="471.86" y="30.589" type="line"/>
      <point x="199.096" y="30.589" type="line"/>
      <point x="199.096" y="0" type="line"/>
      <point x="471.86" y="0" type="line"/>
    </contour>
    <contour>
      <point x="532.86" y="161.543" type="line"/>
      <point x="522.86" y="161.543" type="line"/>
      <point x="491.991" y="85.405"/>
      <point x="451.298" y="30.592"/>
      <point x="345.335" y="30.592" type="curve"/>
      <point x="309.031" y="0" type="line"/>
      <point x="474.572" y="0" type="line"/>
    </contour>
    <contour>
      <point x="139.775" y="699.941" type="line"/>
      <point x="60" y="699.941" type="line"/>
      <point x="60.162" y="689.941" type="line"/>
      <point x="60.319" y="689.941"/>
      <point x="72.66" y="689.961"/>
      <point x="72.812" y="689.961" type="curve" smooth="yes"/>
      <point x="107.813" y="689.961"/>
      <point x="136.21" y="661.911"/>
      <point x="136.866" y="627.077" type="curve"/>
      <point x="139.775" y="627.077" type="line"/>
    </contour>
    <contour>
      <point x="278.781" y="699.941" type="line"/>
      <point x="199.006" y="699.941" type="line"/>
      <point x="199.006" y="627.077" type="line"/>
      <point x="201.915" y="627.077" type="line"/>
      <point x="202.571" y="661.911"/>
      <point x="230.968" y="689.961"/>
      <point x="265.969" y="689.961" type="curve" smooth="yes"/>
      <point x="266.121" y="689.961"/>
      <point x="278.462" y="689.941"/>
      <point x="278.619" y="689.941" type="curve"/>
    </contour>
    <contour>
      <point x="334.423" y="403" type="curve" smooth="yes"/>
      <point x="359.276" y="403"/>
      <point x="379.423" y="423.147"/>
      <point x="379.423" y="448" type="curve" smooth="yes"/>
      <point x="379.423" y="472.853"/>
      <point x="359.276" y="493"/>
      <point x="334.423" y="493" type="curve" smooth="yes"/>
      <point x="309.57" y="493"/>
      <point x="289.423" y="472.853"/>
      <point x="289.423" y="448" type="curve" smooth="yes"/>
      <point x="289.423" y="423.147"/>
      <point x="309.57" y="403"/>
    </contour>
  </outline>
</glyph>
